%TF.GenerationSoftware,KiCad,Pcbnew,(2017-04-07 revision 70c961f)-master*%
%TF.CreationDate,2018-03-16T01:23:05+01:00*%
%TF.ProjectId,Nucleololu64,4E75636C656F6C6F6C7536342E6B6963,rev?*%
%TF.FileFunction,Legend,Bot*%
%TF.FilePolarity,Positive*%
%FSLAX46Y46*%
G04 Gerber Fmt 4.6, Leading zero omitted, Abs format (unit mm)*
G04 Created by KiCad (PCBNEW (2017-04-07 revision 70c961f)-master) date 2018 March 16, Friday 01:23:05*
%MOMM*%
%LPD*%
G01*
G04 APERTURE LIST*
%ADD10C,0.150000*%
%ADD11C,0.200000*%
%ADD12C,0.120000*%
G04 APERTURE END LIST*
D10*
D11*
X-30000Y-105000D02*
X69970000Y-105000D01*
X69970000Y79895000D02*
X69970000Y-105000D01*
D10*
X-30000Y79895000D02*
X69970000Y79895000D01*
X-30000Y-105000D02*
X-30000Y79895000D01*
D12*
X1845000Y46355000D02*
X1845000Y575000D01*
X1845000Y575000D02*
X7045000Y575000D01*
X7045000Y575000D02*
X7045000Y48955000D01*
X7045000Y48955000D02*
X4445000Y48955000D01*
X4445000Y48955000D02*
X4445000Y46355000D01*
X4445000Y46355000D02*
X1845000Y46355000D01*
X1845000Y47625000D02*
X1845000Y48955000D01*
X1845000Y48955000D02*
X3115000Y48955000D01*
X62805000Y46355000D02*
X62805000Y575000D01*
X62805000Y575000D02*
X68005000Y575000D01*
X68005000Y575000D02*
X68005000Y48955000D01*
X68005000Y48955000D02*
X65405000Y48955000D01*
X65405000Y48955000D02*
X65405000Y46355000D01*
X65405000Y46355000D02*
X62805000Y46355000D01*
X62805000Y47625000D02*
X62805000Y48955000D01*
X62805000Y48955000D02*
X64075000Y48955000D01*
X42104000Y45272000D02*
X42104000Y43942000D01*
X43434000Y45272000D02*
X42104000Y45272000D01*
X44704000Y42612000D02*
X44704000Y45272000D01*
X49844000Y42612000D02*
X44704000Y42612000D01*
X49844000Y45272000D02*
X49844000Y42612000D01*
X44704000Y45272000D02*
X49844000Y45272000D01*
M02*
