M48
;DRILL file {KiCad (2017-04-07 revision 70c961f)-master} date 2018 March 16, Friday 01:23:39
;FORMAT={-:-/ absolute / inch / decimal}
FMAT,2
INCH,TZ
T1C0.016
T2C0.039
T3C0.040
T4C0.047
%
G90
G05
M72
T1
X5.4843Y-2.0453
X5.5593Y-1.7853
X5.5593Y-2.8553
X5.5593Y-2.8603
X5.5593Y-2.9003
X5.6043Y-2.9003
X5.8793Y-1.6753
X5.9193Y-2.9703
X6.1193Y-3.0453
X6.1443Y-3.6353
X6.1493Y-4.5453
X6.9193Y-3.1253
X6.9893Y-2.7903
X7.0093Y-3.8653
X7.0443Y-4.5853
X7.0593Y-3.6153
X7.1143Y-2.8203
X7.1543Y-4.5253
X7.1693Y-1.6753
X7.1693Y-2.0803
X7.2143Y-2.4053
X7.2443Y-2.7653
X7.2493Y-4.6453
X7.2743Y-2.7903
X7.3043Y-2.8203
X7.3743Y-3.4753
X7.3943Y-4.4853
X7.4043Y-3.2253
X7.4093Y-3.4753
X7.4193Y-4.5853
X7.4393Y-2.1703
X7.6393Y-2.1703
X7.6943Y-2.3453
X7.7393Y-2.3503
X7.7643Y-2.7653
T2
X5.2443Y-2.8453
X5.2443Y-2.9453
X5.2443Y-3.0453
X5.2443Y-3.1453
X5.2443Y-3.2453
X5.2443Y-3.3453
X5.2443Y-3.4453
X5.2443Y-3.5453
X5.2443Y-3.6453
X5.2443Y-3.7453
X5.2443Y-3.8453
X5.2443Y-3.9453
X5.2443Y-4.0453
X5.2443Y-4.1453
X5.2443Y-4.2453
X5.2443Y-4.3453
X5.2443Y-4.4453
X5.2443Y-4.5453
X5.2443Y-4.6453
X5.3443Y-2.8453
X5.3443Y-2.9453
X5.3443Y-3.0453
X5.3443Y-3.1453
X5.3443Y-3.2453
X5.3443Y-3.3453
X5.3443Y-3.4453
X5.3443Y-3.5453
X5.3443Y-3.6453
X5.3443Y-3.7453
X5.3443Y-3.8453
X5.3443Y-3.9453
X5.3443Y-4.0453
X5.3443Y-4.1453
X5.3443Y-4.2453
X5.3443Y-4.3453
X5.3443Y-4.4453
X5.3443Y-4.5453
X5.3443Y-4.6453
X5.6893Y-1.6853
X5.6893Y-1.7853
X5.6893Y-1.9053
X5.6893Y-2.0053
X5.7893Y-1.6853
X5.7893Y-1.7853
X5.7893Y-1.9053
X5.7893Y-2.0053
X6.0193Y-2.0953
X6.1193Y-2.0953
X6.1993Y-3.5853
X6.1993Y-3.6853
X6.1993Y-3.7853
X6.1993Y-4.3953
X6.1993Y-4.4953
X6.1993Y-4.5953
X6.2193Y-2.0953
X6.2993Y-3.5853
X6.2993Y-3.6853
X6.2993Y-3.7853
X6.2993Y-4.3953
X6.2993Y-4.4953
X6.2993Y-4.5953
X6.3093Y-3.1253
X6.3093Y-3.2253
X6.3093Y-3.3253
X6.3093Y-3.4253
X6.3093Y-3.9353
X6.3093Y-4.0353
X6.3093Y-4.1353
X6.3093Y-4.2353
X6.4443Y-2.2203
X6.5443Y-2.2203
X6.6443Y-2.2203
X6.8293Y-2.9903
X6.8693Y-2.2203
X6.9293Y-2.9903
X6.9693Y-2.2203
X7.0293Y-2.9903
X7.0693Y-2.2203
X7.1093Y-3.5653
X7.1093Y-3.6653
X7.1093Y-3.7653
X7.1093Y-4.3753
X7.1093Y-4.4753
X7.1093Y-4.5753
X7.2093Y-3.1253
X7.2093Y-3.2253
X7.2093Y-3.3253
X7.2093Y-3.4253
X7.2093Y-3.5653
X7.2093Y-3.6653
X7.2093Y-3.7653
X7.2093Y-3.9353
X7.2093Y-4.0353
X7.2093Y-4.1353
X7.2093Y-4.2353
X7.2093Y-4.3753
X7.2093Y-4.4753
X7.2093Y-4.5753
X7.2393Y-1.6753
X7.2393Y-1.7753
X7.2393Y-1.8753
X7.3393Y-1.6753
X7.3393Y-1.7753
X7.3393Y-1.8753
X7.4393Y-1.6753
X7.4393Y-1.7753
X7.4393Y-1.8753
X7.5393Y-1.6753
X7.5393Y-1.7753
X7.5393Y-1.8753
X7.6393Y-1.6753
X7.6393Y-1.7753
X7.6393Y-1.8753
X7.6443Y-2.8453
X7.6443Y-2.9453
X7.6443Y-3.0453
X7.6443Y-3.1453
X7.6443Y-3.2453
X7.6443Y-3.3453
X7.6443Y-3.4453
X7.6443Y-3.5453
X7.6443Y-3.6453
X7.6443Y-3.7453
X7.6443Y-3.8453
X7.6443Y-3.9453
X7.6443Y-4.0453
X7.6443Y-4.1453
X7.6443Y-4.2453
X7.6443Y-4.3453
X7.6443Y-4.4453
X7.6443Y-4.5453
X7.6443Y-4.6453
X7.6493Y-2.5053
X7.6493Y-2.6053
X7.7393Y-1.6753
X7.7393Y-1.7753
X7.7393Y-1.8753
X7.7443Y-2.8453
X7.7443Y-2.9453
X7.7443Y-3.0453
X7.7443Y-3.1453
X7.7443Y-3.2453
X7.7443Y-3.3453
X7.7443Y-3.4453
X7.7443Y-3.5453
X7.7443Y-3.6453
X7.7443Y-3.7453
X7.7443Y-3.8453
X7.7443Y-3.9453
X7.7443Y-4.0453
X7.7443Y-4.1453
X7.7443Y-4.2453
X7.7443Y-4.3453
X7.7443Y-4.4453
X7.7443Y-4.5453
X7.7443Y-4.6453
X7.7493Y-2.5053
X7.7493Y-2.6053
T3
X5.9193Y-3.1253
X5.9193Y-3.2253
X5.9193Y-3.3253
X5.9193Y-3.4253
X5.9193Y-3.5253
X5.9193Y-3.6253
X5.9193Y-3.7253
X5.9193Y-3.8253
X5.9193Y-3.9353
X5.9193Y-4.0353
X5.9193Y-4.1353
X5.9193Y-4.2353
X5.9193Y-4.3353
X5.9193Y-4.4353
X5.9193Y-4.5353
X5.9193Y-4.6353
X6.4193Y-3.1253
X6.4193Y-3.2253
X6.4193Y-3.3253
X6.4193Y-3.4253
X6.4193Y-3.5253
X6.4193Y-3.6253
X6.4193Y-3.7253
X6.4193Y-3.8253
X6.4193Y-3.9353
X6.4193Y-4.0353
X6.4193Y-4.1353
X6.4193Y-4.2353
X6.4193Y-4.3353
X6.4193Y-4.4353
X6.4193Y-4.5353
X6.4193Y-4.6353
X6.8281Y-3.1248
X6.8281Y-3.2248
X6.8281Y-3.3248
X6.8281Y-3.4248
X6.8281Y-3.5248
X6.8281Y-3.6248
X6.8281Y-3.7248
X6.8281Y-3.8248
X6.8293Y-3.9353
X6.8293Y-4.0353
X6.8293Y-4.1353
X6.8293Y-4.2353
X6.8293Y-4.3353
X6.8293Y-4.4353
X6.8293Y-4.5353
X6.8293Y-4.6353
X7.3281Y-3.1248
X7.3281Y-3.2248
X7.3281Y-3.3248
X7.3281Y-3.4248
X7.3281Y-3.5248
X7.3281Y-3.6248
X7.3281Y-3.7248
X7.3281Y-3.8248
X7.3293Y-3.9353
X7.3293Y-4.0353
X7.3293Y-4.1353
X7.3293Y-4.2353
X7.3293Y-4.3353
X7.3293Y-4.4353
X7.3293Y-4.5353
X7.3293Y-4.6353
T4
X5.3065Y-1.8953
X5.4443Y-1.8953
X5.7093Y-3.3253
X5.7093Y-3.4253
X5.7093Y-3.5253
X5.7093Y-3.6253
X5.7093Y-4.1353
X5.7093Y-4.2353
X5.7093Y-4.3353
X5.7093Y-4.4353
X6.0215Y-1.8953
X6.1593Y-1.8953
X6.4565Y-1.8953
X6.5943Y-1.8953
X6.6193Y-3.3253
X6.6193Y-3.4253
X6.6193Y-3.5253
X6.6193Y-3.6253
X6.6193Y-4.1353
X6.6193Y-4.2353
X6.6193Y-4.3353
X6.6193Y-4.4353
X6.8815Y-1.8953
X7.0193Y-1.8953
T0
M30
