%TF.GenerationSoftware,KiCad,Pcbnew,(2017-04-07 revision 70c961f)-master*%
%TF.CreationDate,2018-03-16T01:23:05+01:00*%
%TF.ProjectId,Nucleololu64,4E75636C656F6C6F6C7536342E6B6963,rev?*%
%TF.FileFunction,Soldermask,Bot*%
%TF.FilePolarity,Negative*%
%FSLAX46Y46*%
G04 Gerber Fmt 4.6, Leading zero omitted, Abs format (unit mm)*
G04 Created by KiCad (PCBNEW (2017-04-07 revision 70c961f)-master) date 2018 March 16, Friday 01:23:05*
%MOMM*%
%LPD*%
G01*
G04 APERTURE LIST*
%ADD10C,0.150000*%
%ADD11C,0.200000*%
%ADD12O,2.100000X2.100000*%
%ADD13R,2.100000X2.100000*%
%ADD14C,2.051000*%
%ADD15R,2.200000X2.200000*%
%ADD16O,2.200000X2.200000*%
%ADD17R,2.200000X4.000000*%
%ADD18O,2.200000X4.000000*%
%ADD19R,3.000000X2.400000*%
%ADD20O,3.000000X2.400000*%
G04 APERTURE END LIST*
D10*
D11*
X-30000Y-105000D02*
X69970000Y-105000D01*
X69970000Y79895000D02*
X69970000Y-105000D01*
D10*
X-30000Y79895000D02*
X69970000Y79895000D01*
X-30000Y-105000D02*
X-30000Y79895000D01*
D12*
X66548000Y72263000D03*
X66548000Y74803000D03*
X64008000Y72263000D03*
X64008000Y74803000D03*
X61468000Y72263000D03*
X61468000Y74803000D03*
X58928000Y72263000D03*
X58928000Y74803000D03*
X56388000Y72263000D03*
X56388000Y74803000D03*
X53848000Y72263000D03*
D13*
X53848000Y74803000D03*
D12*
X66548000Y77343000D03*
X64008000Y77343000D03*
X61468000Y77343000D03*
X58928000Y77343000D03*
X56388000Y77343000D03*
D13*
X53848000Y77343000D03*
D14*
X43434000Y2159000D03*
X43434000Y4699000D03*
X43434000Y7239000D03*
X43434000Y9779000D03*
X43434000Y12319000D03*
X43434000Y14859000D03*
X43434000Y17399000D03*
X43434000Y19939000D03*
X56134000Y19939000D03*
X56134000Y17399000D03*
X56134000Y14859000D03*
X56134000Y12319000D03*
X56134000Y9779000D03*
X56134000Y7239000D03*
X56134000Y4699000D03*
X56134000Y2159000D03*
X43403000Y22746000D03*
X43403000Y25286000D03*
X43403000Y27826000D03*
X43403000Y30366000D03*
X43403000Y32906000D03*
X43403000Y35446000D03*
X43403000Y37986000D03*
X43403000Y40526000D03*
X56103000Y40526000D03*
X56103000Y37986000D03*
X56103000Y35446000D03*
X56103000Y32906000D03*
X56103000Y30366000D03*
X56103000Y27826000D03*
X56103000Y25286000D03*
X56103000Y22746000D03*
X33020000Y2159000D03*
X33020000Y4699000D03*
X33020000Y7239000D03*
X33020000Y9779000D03*
X33020000Y12319000D03*
X33020000Y14859000D03*
X33020000Y17399000D03*
X33020000Y19939000D03*
X20320000Y19939000D03*
X20320000Y17399000D03*
X20320000Y14859000D03*
X20320000Y12319000D03*
X20320000Y9779000D03*
X20320000Y7239000D03*
X20320000Y4699000D03*
X20320000Y2159000D03*
X20320000Y22733000D03*
X20320000Y25273000D03*
X20320000Y27813000D03*
X20320000Y30353000D03*
X20320000Y32893000D03*
X20320000Y35433000D03*
X20320000Y37973000D03*
X20320000Y40513000D03*
X33020000Y40513000D03*
X33020000Y37973000D03*
X33020000Y35433000D03*
X33020000Y32893000D03*
X33020000Y30353000D03*
X33020000Y27813000D03*
X33020000Y25273000D03*
X33020000Y22733000D03*
D15*
X22860000Y66675000D03*
D16*
X25400000Y66675000D03*
X27940000Y66675000D03*
D15*
X44450000Y63500000D03*
D16*
X46990000Y63500000D03*
X49530000Y63500000D03*
D15*
X33655000Y63500000D03*
D16*
X36195000Y63500000D03*
X38735000Y63500000D03*
D13*
X53086000Y24257000D03*
D12*
X50546000Y24257000D03*
X53086000Y26797000D03*
X50546000Y26797000D03*
X53086000Y29337000D03*
X50546000Y29337000D03*
D13*
X53086000Y32893000D03*
D12*
X53086000Y35433000D03*
X53086000Y37973000D03*
X53086000Y40513000D03*
D13*
X53086000Y3683000D03*
D12*
X50546000Y3683000D03*
X53086000Y6223000D03*
X50546000Y6223000D03*
X53086000Y8763000D03*
X50546000Y8763000D03*
D13*
X29972000Y3175000D03*
D12*
X27432000Y3175000D03*
X29972000Y5715000D03*
X27432000Y5715000D03*
X29972000Y8255000D03*
X27432000Y8255000D03*
D13*
X29972000Y23749000D03*
D12*
X27432000Y23749000D03*
X29972000Y26289000D03*
X27432000Y26289000D03*
X29972000Y28829000D03*
X27432000Y28829000D03*
D17*
X8255000Y71755000D03*
D18*
X4755000Y71755000D03*
D13*
X3175000Y47625000D03*
D12*
X5715000Y47625000D03*
X3175000Y45085000D03*
X5715000Y45085000D03*
X3175000Y42545000D03*
X5715000Y42545000D03*
X3175000Y40005000D03*
X5715000Y40005000D03*
X3175000Y37465000D03*
X5715000Y37465000D03*
X3175000Y34925000D03*
X5715000Y34925000D03*
X3175000Y32385000D03*
X5715000Y32385000D03*
X3175000Y29845000D03*
X5715000Y29845000D03*
X3175000Y27305000D03*
X5715000Y27305000D03*
X3175000Y24765000D03*
X5715000Y24765000D03*
X3175000Y22225000D03*
X5715000Y22225000D03*
X3175000Y19685000D03*
X5715000Y19685000D03*
X3175000Y17145000D03*
X5715000Y17145000D03*
X3175000Y14605000D03*
X5715000Y14605000D03*
X3175000Y12065000D03*
X5715000Y12065000D03*
X3175000Y9525000D03*
X5715000Y9525000D03*
X3175000Y6985000D03*
X5715000Y6985000D03*
X3175000Y4445000D03*
X5715000Y4445000D03*
X3175000Y1905000D03*
X5715000Y1905000D03*
D13*
X64135000Y47625000D03*
D12*
X66675000Y47625000D03*
X64135000Y45085000D03*
X66675000Y45085000D03*
X64135000Y42545000D03*
X66675000Y42545000D03*
X64135000Y40005000D03*
X66675000Y40005000D03*
X64135000Y37465000D03*
X66675000Y37465000D03*
X64135000Y34925000D03*
X66675000Y34925000D03*
X64135000Y32385000D03*
X66675000Y32385000D03*
X64135000Y29845000D03*
X66675000Y29845000D03*
X64135000Y27305000D03*
X66675000Y27305000D03*
X64135000Y24765000D03*
X66675000Y24765000D03*
X64135000Y22225000D03*
X66675000Y22225000D03*
X64135000Y19685000D03*
X66675000Y19685000D03*
X64135000Y17145000D03*
X66675000Y17145000D03*
X64135000Y14605000D03*
X66675000Y14605000D03*
X64135000Y12065000D03*
X66675000Y12065000D03*
X64135000Y9525000D03*
X66675000Y9525000D03*
X64135000Y6985000D03*
X66675000Y6985000D03*
X64135000Y4445000D03*
X66675000Y4445000D03*
X64135000Y1905000D03*
X66675000Y1905000D03*
D13*
X14478000Y74549000D03*
D12*
X14478000Y77089000D03*
X17018000Y74549000D03*
X17018000Y77089000D03*
D13*
X53086000Y12319000D03*
D12*
X53086000Y14859000D03*
X53086000Y17399000D03*
X53086000Y19939000D03*
X48514000Y43942000D03*
X45974000Y43942000D03*
D13*
X43434000Y43942000D03*
X14478000Y68961000D03*
D12*
X14478000Y71501000D03*
X17018000Y68961000D03*
X17018000Y71501000D03*
X64262000Y56261000D03*
X66802000Y56261000D03*
X64262000Y53721000D03*
D13*
X66802000Y53721000D03*
D19*
X38100000Y27813000D03*
D20*
X38100000Y30353000D03*
X38100000Y32893000D03*
X38100000Y35433000D03*
X38100000Y14859000D03*
X38100000Y12319000D03*
X38100000Y9779000D03*
D19*
X38100000Y7239000D03*
D13*
X30226000Y12319000D03*
D12*
X30226000Y14859000D03*
X30226000Y17399000D03*
X30226000Y19939000D03*
X30226000Y40513000D03*
X30226000Y37973000D03*
X30226000Y35433000D03*
D13*
X30226000Y32893000D03*
D18*
X44760000Y71755000D03*
D17*
X48260000Y71755000D03*
X37465000Y71755000D03*
D18*
X33965000Y71755000D03*
D20*
X14986000Y14859000D03*
X14986000Y12319000D03*
X14986000Y9779000D03*
D19*
X14986000Y7239000D03*
X14986000Y27813000D03*
D20*
X14986000Y30353000D03*
X14986000Y32893000D03*
X14986000Y35433000D03*
D18*
X22916000Y71755000D03*
D17*
X26416000Y71755000D03*
M02*
