%TF.GenerationSoftware,KiCad,Pcbnew,(2017-04-07 revision 70c961f)-master*%
%TF.CreationDate,2018-03-16T01:23:05+01:00*%
%TF.ProjectId,Nucleololu64,4E75636C656F6C6F6C7536342E6B6963,rev?*%
%TF.FileFunction,Legend,Top*%
%TF.FilePolarity,Positive*%
%FSLAX46Y46*%
G04 Gerber Fmt 4.6, Leading zero omitted, Abs format (unit mm)*
G04 Created by KiCad (PCBNEW (2017-04-07 revision 70c961f)-master) date 2018 March 16, Friday 01:23:05*
%MOMM*%
%LPD*%
G01*
G04 APERTURE LIST*
%ADD10C,0.150000*%
%ADD11C,0.100000*%
%ADD12C,0.300000*%
%ADD13C,0.200000*%
%ADD14C,0.381000*%
%ADD15C,0.120000*%
%ADD16C,0.010000*%
G04 APERTURE END LIST*
D10*
X59902885Y56681620D02*
X60474314Y56681620D01*
X60188600Y55681620D02*
X60188600Y56681620D01*
X60807647Y55681620D02*
X60807647Y56681620D01*
X60807647Y56205429D02*
X61379076Y56205429D01*
X61379076Y55681620D02*
X61379076Y56681620D01*
X62379076Y55681620D02*
X61807647Y55681620D01*
X62093361Y55681620D02*
X62093361Y56681620D01*
X61998123Y56538762D01*
X61902885Y56443524D01*
X61807647Y56395905D01*
D11*
X41363166Y47629820D02*
X41363166Y48629820D01*
X41363166Y48248867D02*
X41458404Y48296486D01*
X41648880Y48296486D01*
X41744119Y48248867D01*
X41791738Y48201248D01*
X41839357Y48106010D01*
X41839357Y47820296D01*
X41791738Y47725058D01*
X41744119Y47677439D01*
X41648880Y47629820D01*
X41458404Y47629820D01*
X41363166Y47677439D01*
X42172690Y48296486D02*
X42410785Y47629820D01*
X42648880Y48296486D02*
X42410785Y47629820D01*
X42315547Y47391724D01*
X42267928Y47344105D01*
X42172690Y47296486D01*
X43744119Y47677439D02*
X43886976Y47629820D01*
X44125071Y47629820D01*
X44220309Y47677439D01*
X44267928Y47725058D01*
X44315547Y47820296D01*
X44315547Y47915534D01*
X44267928Y48010772D01*
X44220309Y48058391D01*
X44125071Y48106010D01*
X43934595Y48153629D01*
X43839357Y48201248D01*
X43791738Y48248867D01*
X43744119Y48344105D01*
X43744119Y48439343D01*
X43791738Y48534581D01*
X43839357Y48582200D01*
X43934595Y48629820D01*
X44172690Y48629820D01*
X44315547Y48582200D01*
X44601261Y48296486D02*
X44982214Y48296486D01*
X44744119Y48629820D02*
X44744119Y47772677D01*
X44791738Y47677439D01*
X44886976Y47629820D01*
X44982214Y47629820D01*
X45696500Y47677439D02*
X45601261Y47629820D01*
X45410785Y47629820D01*
X45315547Y47677439D01*
X45267928Y47772677D01*
X45267928Y48153629D01*
X45315547Y48248867D01*
X45410785Y48296486D01*
X45601261Y48296486D01*
X45696500Y48248867D01*
X45744119Y48153629D01*
X45744119Y48058391D01*
X45267928Y47963153D01*
X46029833Y48296486D02*
X46410785Y48296486D01*
X46172690Y47629820D02*
X46172690Y48486962D01*
X46220309Y48582200D01*
X46315547Y48629820D01*
X46410785Y48629820D01*
X47172690Y47629820D02*
X47172690Y48153629D01*
X47125071Y48248867D01*
X47029833Y48296486D01*
X46839357Y48296486D01*
X46744119Y48248867D01*
X47172690Y47677439D02*
X47077452Y47629820D01*
X46839357Y47629820D01*
X46744119Y47677439D01*
X46696500Y47772677D01*
X46696500Y47867915D01*
X46744119Y47963153D01*
X46839357Y48010772D01*
X47077452Y48010772D01*
X47172690Y48058391D01*
X47648880Y48296486D02*
X47648880Y47629820D01*
X47648880Y48201248D02*
X47696500Y48248867D01*
X47791738Y48296486D01*
X47934595Y48296486D01*
X48029833Y48248867D01*
X48077452Y48153629D01*
X48077452Y47629820D01*
X48553642Y47629820D02*
X48553642Y48296486D01*
X48553642Y48629820D02*
X48506023Y48582200D01*
X48553642Y48534581D01*
X48601261Y48582200D01*
X48553642Y48629820D01*
X48553642Y48534581D01*
X49029833Y48296486D02*
X49029833Y47629820D01*
X49029833Y48201248D02*
X49077452Y48248867D01*
X49172690Y48296486D01*
X49315547Y48296486D01*
X49410785Y48248867D01*
X49458404Y48153629D01*
X49458404Y47629820D01*
X50077452Y47629820D02*
X49982214Y47677439D01*
X49934595Y47725058D01*
X49886976Y47820296D01*
X49886976Y48106010D01*
X49934595Y48201248D01*
X49982214Y48248867D01*
X50077452Y48296486D01*
X50220309Y48296486D01*
X50315547Y48248867D01*
X50363166Y48201248D01*
X50410785Y48106010D01*
X50410785Y47820296D01*
X50363166Y47725058D01*
X50315547Y47677439D01*
X50220309Y47629820D01*
X50077452Y47629820D01*
X50886976Y48629820D02*
X50791738Y48439343D01*
X51267928Y47677439D02*
X51363166Y47629820D01*
X51553642Y47629820D01*
X51648880Y47677439D01*
X51696500Y47772677D01*
X51696500Y47820296D01*
X51648880Y47915534D01*
X51553642Y47963153D01*
X51410785Y47963153D01*
X51315547Y48010772D01*
X51267928Y48106010D01*
X51267928Y48153629D01*
X51315547Y48248867D01*
X51410785Y48296486D01*
X51553642Y48296486D01*
X51648880Y48248867D01*
X53363166Y47629820D02*
X52886976Y47629820D01*
X52886976Y48629820D01*
X54125071Y47629820D02*
X54125071Y48153629D01*
X54077452Y48248867D01*
X53982214Y48296486D01*
X53791738Y48296486D01*
X53696500Y48248867D01*
X54125071Y47677439D02*
X54029833Y47629820D01*
X53791738Y47629820D01*
X53696500Y47677439D01*
X53648880Y47772677D01*
X53648880Y47867915D01*
X53696500Y47963153D01*
X53791738Y48010772D01*
X54029833Y48010772D01*
X54125071Y48058391D01*
X54601261Y47629820D02*
X54601261Y48629820D01*
X54601261Y48248867D02*
X54696500Y48296486D01*
X54886976Y48296486D01*
X54982214Y48248867D01*
X55029833Y48201248D01*
X55077452Y48106010D01*
X55077452Y47820296D01*
X55029833Y47725058D01*
X54982214Y47677439D01*
X54886976Y47629820D01*
X54696500Y47629820D01*
X54601261Y47677439D01*
D10*
X35971171Y21982205D02*
X35971171Y22315539D01*
X36494980Y22458396D02*
X36494980Y21982205D01*
X35494980Y21982205D01*
X35494980Y22458396D01*
X36494980Y22886967D02*
X35494980Y22886967D01*
X36494980Y23458396D01*
X35494980Y23458396D01*
X59047071Y22033005D02*
X59047071Y22366339D01*
X59570880Y22509196D02*
X59570880Y22033005D01*
X58570880Y22033005D01*
X58570880Y22509196D01*
X59570880Y22937767D02*
X58570880Y22937767D01*
X59570880Y23509196D01*
X58570880Y23509196D01*
X59224871Y1420905D02*
X59224871Y1754239D01*
X59748680Y1897096D02*
X59748680Y1420905D01*
X58748680Y1420905D01*
X58748680Y1897096D01*
X59748680Y2325667D02*
X58748680Y2325667D01*
X59748680Y2897096D01*
X58748680Y2897096D01*
X36034671Y1357405D02*
X36034671Y1690739D01*
X36558480Y1833596D02*
X36558480Y1357405D01*
X35558480Y1357405D01*
X35558480Y1833596D01*
X36558480Y2262167D02*
X35558480Y2262167D01*
X36558480Y2833596D01*
X35558480Y2833596D01*
D12*
X14473300Y38959529D02*
X15473300Y38959529D01*
X14473300Y37459529D01*
X15473300Y37459529D01*
X37498400Y38908729D02*
X38498400Y37408729D01*
X38498400Y38908729D02*
X37498400Y37408729D01*
X38061900Y17612515D02*
X38061900Y16898229D01*
X37561900Y18398229D02*
X38061900Y17612515D01*
X38561900Y18398229D01*
X14601071Y17633143D02*
X15101071Y17633143D01*
X15315357Y16847429D02*
X14601071Y16847429D01*
X14601071Y18347429D01*
X15315357Y18347429D01*
D10*
X68908561Y71852210D02*
X68956180Y71947448D01*
X68956180Y72137924D01*
X68908561Y72233162D01*
X68813323Y72280781D01*
X68765704Y72280781D01*
X68670466Y72233162D01*
X68622847Y72137924D01*
X68622847Y71995067D01*
X68575228Y71899829D01*
X68479990Y71852210D01*
X68432371Y71852210D01*
X68337133Y71899829D01*
X68289514Y71995067D01*
X68289514Y72137924D01*
X68337133Y72233162D01*
X68575228Y74233162D02*
X68575228Y74995067D01*
X68575228Y76995067D02*
X68575228Y77756972D01*
X68956180Y77376020D02*
X68194276Y77376020D01*
X59940985Y54192420D02*
X60512414Y54192420D01*
X60226700Y53192420D02*
X60226700Y54192420D01*
X60845747Y53192420D02*
X60845747Y54192420D01*
X60845747Y53716229D02*
X61417176Y53716229D01*
X61417176Y53192420D02*
X61417176Y54192420D01*
X62083842Y54192420D02*
X62179080Y54192420D01*
X62274319Y54144800D01*
X62321938Y54097181D01*
X62369557Y54001943D01*
X62417176Y53811467D01*
X62417176Y53573372D01*
X62369557Y53382896D01*
X62321938Y53287658D01*
X62274319Y53240039D01*
X62179080Y53192420D01*
X62083842Y53192420D01*
X61988604Y53240039D01*
X61940985Y53287658D01*
X61893366Y53382896D01*
X61845747Y53573372D01*
X61845747Y53811467D01*
X61893366Y54001943D01*
X61940985Y54097181D01*
X61988604Y54144800D01*
X62083842Y54192420D01*
D12*
X41419771Y49715029D02*
X41419771Y51215029D01*
X42276914Y49715029D01*
X42276914Y51215029D01*
X42991200Y51215029D02*
X42991200Y50000743D01*
X43062628Y49857886D01*
X43134057Y49786458D01*
X43276914Y49715029D01*
X43562628Y49715029D01*
X43705485Y49786458D01*
X43776914Y49857886D01*
X43848342Y50000743D01*
X43848342Y51215029D01*
X45419771Y49857886D02*
X45348342Y49786458D01*
X45134057Y49715029D01*
X44991200Y49715029D01*
X44776914Y49786458D01*
X44634057Y49929315D01*
X44562628Y50072172D01*
X44491200Y50357886D01*
X44491200Y50572172D01*
X44562628Y50857886D01*
X44634057Y51000743D01*
X44776914Y51143600D01*
X44991200Y51215029D01*
X45134057Y51215029D01*
X45348342Y51143600D01*
X45419771Y51072172D01*
X46776914Y49715029D02*
X46062628Y49715029D01*
X46062628Y51215029D01*
X47276914Y50500743D02*
X47776914Y50500743D01*
X47991200Y49715029D02*
X47276914Y49715029D01*
X47276914Y51215029D01*
X47991200Y51215029D01*
X48919771Y51215029D02*
X49205485Y51215029D01*
X49348342Y51143600D01*
X49491200Y51000743D01*
X49562628Y50715029D01*
X49562628Y50215029D01*
X49491200Y49929315D01*
X49348342Y49786458D01*
X49205485Y49715029D01*
X48919771Y49715029D01*
X48776914Y49786458D01*
X48634057Y49929315D01*
X48562628Y50215029D01*
X48562628Y50715029D01*
X48634057Y51000743D01*
X48776914Y51143600D01*
X48919771Y51215029D01*
X50919771Y49715029D02*
X50205485Y49715029D01*
X50205485Y51215029D01*
X51705485Y51215029D02*
X51991200Y51215029D01*
X52134057Y51143600D01*
X52276914Y51000743D01*
X52348342Y50715029D01*
X52348342Y50215029D01*
X52276914Y49929315D01*
X52134057Y49786458D01*
X51991200Y49715029D01*
X51705485Y49715029D01*
X51562628Y49786458D01*
X51419771Y49929315D01*
X51348342Y50215029D01*
X51348342Y50715029D01*
X51419771Y51000743D01*
X51562628Y51143600D01*
X51705485Y51215029D01*
X53705485Y49715029D02*
X52991200Y49715029D01*
X52991200Y51215029D01*
X54205485Y51215029D02*
X54205485Y50000743D01*
X54276914Y49857886D01*
X54348342Y49786458D01*
X54491200Y49715029D01*
X54776914Y49715029D01*
X54919771Y49786458D01*
X54991200Y49857886D01*
X55062628Y50000743D01*
X55062628Y51215029D01*
X57562628Y51215029D02*
X57276914Y51215029D01*
X57134057Y51143600D01*
X57062628Y51072172D01*
X56919771Y50857886D01*
X56848342Y50572172D01*
X56848342Y50000743D01*
X56919771Y49857886D01*
X56991200Y49786458D01*
X57134057Y49715029D01*
X57419771Y49715029D01*
X57562628Y49786458D01*
X57634057Y49857886D01*
X57705485Y50000743D01*
X57705485Y50357886D01*
X57634057Y50500743D01*
X57562628Y50572172D01*
X57419771Y50643600D01*
X57134057Y50643600D01*
X56991200Y50572172D01*
X56919771Y50500743D01*
X56848342Y50357886D01*
X58991200Y50715029D02*
X58991200Y49715029D01*
X58634057Y51286458D02*
X58276914Y50215029D01*
X59205485Y50215029D01*
D10*
X52156742Y79036872D02*
X53299600Y79036872D01*
X52728171Y78655920D02*
X52728171Y79417824D01*
X53871028Y78655920D02*
X54656742Y79322586D01*
X53871028Y79322586D02*
X54656742Y78655920D01*
X55228171Y79036872D02*
X56371028Y79036872D01*
X58228171Y79036872D02*
X59371028Y79036872D01*
X58799600Y78655920D02*
X58799600Y79417824D01*
X59942457Y79322586D02*
X60299600Y78655920D01*
X60656742Y79322586D02*
X60299600Y78655920D01*
X60156742Y78417824D01*
X60085314Y78370205D01*
X59942457Y78322586D01*
X61228171Y79036872D02*
X62371028Y79036872D01*
X64228171Y79036872D02*
X65371028Y79036872D01*
X64799600Y78655920D02*
X64799600Y79417824D01*
X65942457Y79322586D02*
X66728171Y79322586D01*
X65942457Y78655920D01*
X66728171Y78655920D01*
X67299600Y79036872D02*
X68442457Y79036872D01*
D13*
X-30000Y-105000D02*
X69970000Y-105000D01*
X69970000Y79895000D02*
X69970000Y-105000D01*
D10*
X-30000Y79895000D02*
X69970000Y79895000D01*
X-30000Y-105000D02*
X-30000Y79895000D01*
D14*
X57404000Y889000D02*
X42164000Y889000D01*
X57404000Y21209000D02*
X57404000Y889000D01*
X42164000Y21209000D02*
X57404000Y21209000D01*
X42164000Y889000D02*
X42164000Y21209000D01*
X58039000Y3429000D02*
X57404000Y3429000D01*
X58039000Y889000D02*
X58039000Y3429000D01*
X57404000Y889000D02*
X58039000Y889000D01*
X57721500Y889000D02*
X57721500Y3429000D01*
X57373000Y21476000D02*
X42133000Y21476000D01*
X57373000Y41796000D02*
X57373000Y21476000D01*
X42133000Y41796000D02*
X57373000Y41796000D01*
X42133000Y21476000D02*
X42133000Y41796000D01*
X58008000Y24016000D02*
X57373000Y24016000D01*
X58008000Y21476000D02*
X58008000Y24016000D01*
X57373000Y21476000D02*
X58008000Y21476000D01*
X57690500Y21476000D02*
X57690500Y24016000D01*
X34607500Y889000D02*
X34607500Y3429000D01*
X34290000Y889000D02*
X34925000Y889000D01*
X34925000Y889000D02*
X34925000Y3429000D01*
X34925000Y3429000D02*
X34290000Y3429000D01*
X19050000Y889000D02*
X19050000Y21209000D01*
X19050000Y21209000D02*
X34290000Y21209000D01*
X34290000Y21209000D02*
X34290000Y889000D01*
X34290000Y889000D02*
X19050000Y889000D01*
X34290000Y21463000D02*
X19050000Y21463000D01*
X34290000Y41783000D02*
X34290000Y21463000D01*
X19050000Y41783000D02*
X34290000Y41783000D01*
X19050000Y21463000D02*
X19050000Y41783000D01*
X34925000Y24003000D02*
X34290000Y24003000D01*
X34925000Y21463000D02*
X34925000Y24003000D01*
X34290000Y21463000D02*
X34925000Y21463000D01*
X34607500Y21463000D02*
X34607500Y24003000D01*
D15*
X19889000Y52326000D02*
X19889000Y49326000D01*
X7289000Y49326000D02*
X7289000Y52326000D01*
X7289000Y58926000D02*
X7289000Y61926000D01*
X19889000Y61926000D02*
X19889000Y58926000D01*
X23758000Y7655000D02*
X23758000Y8855000D01*
X25518000Y8855000D02*
X25518000Y7655000D01*
X54416000Y30667000D02*
X49216000Y30667000D01*
X54416000Y25527000D02*
X54416000Y30667000D01*
X49216000Y22927000D02*
X49216000Y30667000D01*
X54416000Y25527000D02*
X51816000Y25527000D01*
X51816000Y25527000D02*
X51816000Y22927000D01*
X51816000Y22927000D02*
X49216000Y22927000D01*
X54416000Y24257000D02*
X54416000Y22927000D01*
X54416000Y22927000D02*
X53086000Y22927000D01*
X54416000Y41843000D02*
X51756000Y41843000D01*
X54416000Y34163000D02*
X54416000Y41843000D01*
X51756000Y34163000D02*
X51756000Y41843000D01*
X54416000Y34163000D02*
X51756000Y34163000D01*
X54416000Y32893000D02*
X54416000Y31563000D01*
X54416000Y31563000D02*
X53086000Y31563000D01*
X5826000Y67129000D02*
X3826000Y67129000D01*
X3826000Y69269000D02*
X5826000Y69269000D01*
X46752000Y69015000D02*
X48752000Y69015000D01*
X48752000Y66875000D02*
X46752000Y66875000D01*
X54416000Y10093000D02*
X49216000Y10093000D01*
X54416000Y4953000D02*
X54416000Y10093000D01*
X49216000Y2353000D02*
X49216000Y10093000D01*
X54416000Y4953000D02*
X51816000Y4953000D01*
X51816000Y4953000D02*
X51816000Y2353000D01*
X51816000Y2353000D02*
X49216000Y2353000D01*
X54416000Y3683000D02*
X54416000Y2353000D01*
X54416000Y2353000D02*
X53086000Y2353000D01*
X31302000Y9585000D02*
X26102000Y9585000D01*
X31302000Y4445000D02*
X31302000Y9585000D01*
X26102000Y1845000D02*
X26102000Y9585000D01*
X31302000Y4445000D02*
X28702000Y4445000D01*
X28702000Y4445000D02*
X28702000Y1845000D01*
X28702000Y1845000D02*
X26102000Y1845000D01*
X31302000Y3175000D02*
X31302000Y1845000D01*
X31302000Y1845000D02*
X29972000Y1845000D01*
X31302000Y30159000D02*
X26102000Y30159000D01*
X31302000Y25019000D02*
X31302000Y30159000D01*
X26102000Y22419000D02*
X26102000Y30159000D01*
X31302000Y25019000D02*
X28702000Y25019000D01*
X28702000Y25019000D02*
X28702000Y22419000D01*
X28702000Y22419000D02*
X26102000Y22419000D01*
X31302000Y23749000D02*
X31302000Y22419000D01*
X31302000Y22419000D02*
X29972000Y22419000D01*
X66259000Y57921000D02*
X65059000Y57921000D01*
X65059000Y59681000D02*
X66259000Y59681000D01*
X66259000Y50301000D02*
X65059000Y50301000D01*
X65059000Y52061000D02*
X66259000Y52061000D01*
X48352000Y64779000D02*
X47152000Y64779000D01*
X47152000Y66539000D02*
X48352000Y66539000D01*
X59808000Y68545000D02*
X59808000Y67345000D01*
X58048000Y67345000D02*
X58048000Y68545000D01*
X16672000Y67301000D02*
X17872000Y67301000D01*
X17872000Y65541000D02*
X16672000Y65541000D01*
X7782000Y64761000D02*
X8982000Y64761000D01*
X8982000Y63001000D02*
X7782000Y63001000D01*
X62348000Y68545000D02*
X62348000Y67345000D01*
X60588000Y67345000D02*
X60588000Y68545000D01*
X8982000Y65033000D02*
X7782000Y65033000D01*
X7782000Y66793000D02*
X8982000Y66793000D01*
X57268000Y68545000D02*
X57268000Y67345000D01*
X55508000Y67345000D02*
X55508000Y68545000D01*
X48632000Y4029000D02*
X48632000Y2829000D01*
X46872000Y2829000D02*
X46872000Y4029000D01*
X50130000Y56016000D02*
X48930000Y56016000D01*
X48930000Y57776000D02*
X50130000Y57776000D01*
X45304000Y56016000D02*
X44104000Y56016000D01*
X44104000Y57776000D02*
X45304000Y57776000D01*
X23758000Y28483000D02*
X23758000Y29683000D01*
X25518000Y29683000D02*
X25518000Y28483000D01*
X67428000Y68545000D02*
X67428000Y67345000D01*
X65668000Y67345000D02*
X65668000Y68545000D01*
X64888000Y68545000D02*
X64888000Y67345000D01*
X63128000Y67345000D02*
X63128000Y68545000D01*
X25518000Y4029000D02*
X25518000Y2829000D01*
X23758000Y2829000D02*
X23758000Y4029000D01*
X25518000Y25111000D02*
X25518000Y23911000D01*
X23758000Y23911000D02*
X23758000Y25111000D01*
X37684000Y64779000D02*
X36484000Y64779000D01*
X36484000Y66539000D02*
X37684000Y66539000D01*
X39462000Y56016000D02*
X38262000Y56016000D01*
X38262000Y57776000D02*
X39462000Y57776000D01*
X48632000Y25365000D02*
X48632000Y24165000D01*
X46872000Y24165000D02*
X46872000Y25365000D01*
X46872000Y28991000D02*
X46872000Y30191000D01*
X48632000Y30191000D02*
X48632000Y28991000D01*
X46872000Y8163000D02*
X46872000Y9363000D01*
X48632000Y9363000D02*
X48632000Y8163000D01*
X54728000Y68545000D02*
X54728000Y67345000D01*
X52968000Y67345000D02*
X52968000Y68545000D01*
D10*
X1397000Y60579000D02*
X6477000Y60579000D01*
X6477000Y60579000D02*
X6477000Y56007000D01*
X6477000Y56007000D02*
X1397000Y56007000D01*
X1397000Y56007000D02*
X1397000Y60579000D01*
X1397000Y59055000D02*
X1905000Y59055000D01*
X1905000Y59055000D02*
X1905000Y57785000D01*
X1905000Y57785000D02*
X1397000Y57785000D01*
D15*
X4056000Y64731000D02*
X3056000Y64731000D01*
X3056000Y63031000D02*
X4056000Y63031000D01*
X4056000Y66763000D02*
X3056000Y66763000D01*
X3056000Y65063000D02*
X4056000Y65063000D01*
X4056000Y53682000D02*
X3056000Y53682000D01*
X3056000Y51982000D02*
X4056000Y51982000D01*
X21973000Y52959000D02*
X21973000Y54379000D01*
X28573000Y52199000D02*
X28573000Y54379000D01*
X28573000Y58799000D02*
X28573000Y56619000D01*
X21973000Y58039000D02*
X21973000Y56619000D01*
X28573000Y52199000D02*
X22733000Y52199000D01*
X22733000Y52199000D02*
X21973000Y52959000D01*
X21973000Y58039000D02*
X22733000Y58799000D01*
X22733000Y58799000D02*
X28573000Y58799000D01*
X62699000Y39378000D02*
X62699000Y40378000D01*
X60999000Y40378000D02*
X60999000Y39378000D01*
X61126000Y24249000D02*
X61126000Y23249000D01*
X62826000Y23249000D02*
X62826000Y24249000D01*
X27432000Y12702000D02*
X26012000Y12702000D01*
X28192000Y19302000D02*
X26012000Y19302000D01*
X21592000Y19302000D02*
X23772000Y19302000D01*
X22352000Y12702000D02*
X23772000Y12702000D01*
X28192000Y19302000D02*
X28192000Y13462000D01*
X28192000Y13462000D02*
X27432000Y12702000D01*
X22352000Y12702000D02*
X21592000Y13462000D01*
X21592000Y13462000D02*
X21592000Y19302000D01*
X50546000Y33657000D02*
X49126000Y33657000D01*
X51306000Y40257000D02*
X49126000Y40257000D01*
X44706000Y40257000D02*
X46886000Y40257000D01*
X45466000Y33657000D02*
X46886000Y33657000D01*
X51306000Y40257000D02*
X51306000Y34417000D01*
X51306000Y34417000D02*
X50546000Y33657000D01*
X45466000Y33657000D02*
X44706000Y34417000D01*
X44706000Y34417000D02*
X44706000Y40257000D01*
X27940000Y33530000D02*
X26520000Y33530000D01*
X28700000Y40130000D02*
X26520000Y40130000D01*
X22100000Y40130000D02*
X24280000Y40130000D01*
X22860000Y33530000D02*
X24280000Y33530000D01*
X28700000Y40130000D02*
X28700000Y34290000D01*
X28700000Y34290000D02*
X27940000Y33530000D01*
X22860000Y33530000D02*
X22100000Y34290000D01*
X22100000Y34290000D02*
X22100000Y40130000D01*
X50546000Y13083000D02*
X49126000Y13083000D01*
X51306000Y19683000D02*
X49126000Y19683000D01*
X44706000Y19683000D02*
X46886000Y19683000D01*
X45466000Y13083000D02*
X46886000Y13083000D01*
X51306000Y19683000D02*
X51306000Y13843000D01*
X51306000Y13843000D02*
X50546000Y13083000D01*
X45466000Y13083000D02*
X44706000Y13843000D01*
X44706000Y13843000D02*
X44706000Y19683000D01*
X20873000Y52196000D02*
X20873000Y48896000D01*
X20873000Y48896000D02*
X27773000Y48896000D01*
X20873000Y52196000D02*
X27773000Y52196000D01*
X19894000Y62231000D02*
X19894000Y65531000D01*
X19894000Y65531000D02*
X12994000Y65531000D01*
X19894000Y62231000D02*
X12994000Y62231000D01*
X42590000Y61213000D02*
X42590000Y57913000D01*
X42590000Y57913000D02*
X49490000Y57913000D01*
X42590000Y61213000D02*
X49490000Y61213000D01*
X10785000Y70475000D02*
X10785000Y79835000D01*
X10785000Y79835000D02*
X2225000Y79835000D01*
X2225000Y79835000D02*
X2225000Y70475000D01*
X10785000Y70475000D02*
X9305000Y70475000D01*
X2225000Y70475000D02*
X3705000Y70475000D01*
X7205000Y70475000D02*
X5805000Y70475000D01*
X10785000Y76555000D02*
X2225000Y76555000D01*
X7955000Y69155000D02*
X8255000Y69755000D01*
X8255000Y69755000D02*
X8555000Y69155000D01*
X8555000Y69155000D02*
X7955000Y69155000D01*
X18348000Y73219000D02*
X18348000Y78419000D01*
X15748000Y73219000D02*
X18348000Y73219000D01*
X13148000Y78419000D02*
X18348000Y78419000D01*
X15748000Y73219000D02*
X15748000Y75819000D01*
X15748000Y75819000D02*
X13148000Y75819000D01*
X13148000Y75819000D02*
X13148000Y78419000D01*
X14478000Y73219000D02*
X13148000Y73219000D01*
X13148000Y73219000D02*
X13148000Y74549000D01*
X54416000Y21269000D02*
X51756000Y21269000D01*
X54416000Y13589000D02*
X54416000Y21269000D01*
X51756000Y13589000D02*
X51756000Y21269000D01*
X54416000Y13589000D02*
X51756000Y13589000D01*
X54416000Y12319000D02*
X54416000Y10989000D01*
X54416000Y10989000D02*
X53086000Y10989000D01*
X36084000Y69015000D02*
X38084000Y69015000D01*
X38084000Y66875000D02*
X36084000Y66875000D01*
X33436000Y57776000D02*
X34636000Y57776000D01*
X34636000Y56016000D02*
X33436000Y56016000D01*
X11654000Y66921000D02*
X13754000Y66921000D01*
X11654000Y65921000D02*
X13754000Y65921000D01*
X11654000Y66921000D02*
X11654000Y65921000D01*
X43172000Y69245000D02*
X43172000Y67145000D01*
X42172000Y69245000D02*
X42172000Y67145000D01*
X43172000Y69245000D02*
X42172000Y69245000D01*
X31922000Y61213000D02*
X31922000Y57913000D01*
X31922000Y57913000D02*
X38822000Y57913000D01*
X31922000Y61213000D02*
X38822000Y61213000D01*
X32504000Y69245000D02*
X31504000Y69245000D01*
X31504000Y69245000D02*
X31504000Y67145000D01*
X32504000Y69245000D02*
X32504000Y67145000D01*
X21000000Y64388000D02*
X27900000Y64388000D01*
X21000000Y61088000D02*
X27900000Y61088000D01*
X21000000Y64388000D02*
X21000000Y61088000D01*
X18348000Y67631000D02*
X18348000Y72831000D01*
X15748000Y67631000D02*
X18348000Y67631000D01*
X13148000Y72831000D02*
X18348000Y72831000D01*
X15748000Y67631000D02*
X15748000Y70231000D01*
X15748000Y70231000D02*
X13148000Y70231000D01*
X13148000Y70231000D02*
X13148000Y72831000D01*
X14478000Y67631000D02*
X13148000Y67631000D01*
X13148000Y67631000D02*
X13148000Y68961000D01*
X68132000Y52391000D02*
X66802000Y52391000D01*
X68132000Y53721000D02*
X68132000Y52391000D01*
X65532000Y52391000D02*
X62932000Y52391000D01*
X65532000Y54991000D02*
X65532000Y52391000D01*
X68132000Y54991000D02*
X65532000Y54991000D01*
X62932000Y52391000D02*
X62932000Y57591000D01*
X68132000Y54991000D02*
X68132000Y57591000D01*
X68132000Y57591000D02*
X62932000Y57591000D01*
X35080000Y26443000D02*
X41080000Y26443000D01*
X41080000Y26443000D02*
X41080000Y36803000D01*
X41080000Y36803000D02*
X35080000Y36803000D01*
X35080000Y36803000D02*
X35080000Y26443000D01*
X41080000Y27813000D02*
X40080000Y27813000D01*
X40080000Y27813000D02*
X40080000Y35433000D01*
X40080000Y35433000D02*
X41080000Y35433000D01*
X40080000Y27813000D02*
X39650000Y28063000D01*
X39650000Y28063000D02*
X39650000Y35183000D01*
X39650000Y35183000D02*
X40080000Y35433000D01*
X41080000Y28063000D02*
X40080000Y28063000D01*
X41080000Y35183000D02*
X40080000Y35183000D01*
X35080000Y27013000D02*
X35700000Y27013000D01*
X35700000Y27013000D02*
X35700000Y28613000D01*
X35700000Y28613000D02*
X35080000Y28613000D01*
X35080000Y29553000D02*
X35700000Y29553000D01*
X35700000Y29553000D02*
X35700000Y31153000D01*
X35700000Y31153000D02*
X35080000Y31153000D01*
X35080000Y32093000D02*
X35700000Y32093000D01*
X35700000Y32093000D02*
X35700000Y33693000D01*
X35700000Y33693000D02*
X35080000Y33693000D01*
X35080000Y34633000D02*
X35700000Y34633000D01*
X35700000Y34633000D02*
X35700000Y36233000D01*
X35700000Y36233000D02*
X35080000Y36233000D01*
X35700000Y15659000D02*
X35080000Y15659000D01*
X35700000Y14059000D02*
X35700000Y15659000D01*
X35080000Y14059000D02*
X35700000Y14059000D01*
X35700000Y13119000D02*
X35080000Y13119000D01*
X35700000Y11519000D02*
X35700000Y13119000D01*
X35080000Y11519000D02*
X35700000Y11519000D01*
X35700000Y10579000D02*
X35080000Y10579000D01*
X35700000Y8979000D02*
X35700000Y10579000D01*
X35080000Y8979000D02*
X35700000Y8979000D01*
X35700000Y8039000D02*
X35080000Y8039000D01*
X35700000Y6439000D02*
X35700000Y8039000D01*
X35080000Y6439000D02*
X35700000Y6439000D01*
X41080000Y14609000D02*
X40080000Y14609000D01*
X41080000Y7489000D02*
X40080000Y7489000D01*
X39650000Y14609000D02*
X40080000Y14859000D01*
X39650000Y7489000D02*
X39650000Y14609000D01*
X40080000Y7239000D02*
X39650000Y7489000D01*
X40080000Y14859000D02*
X41080000Y14859000D01*
X40080000Y7239000D02*
X40080000Y14859000D01*
X41080000Y7239000D02*
X40080000Y7239000D01*
X35080000Y16229000D02*
X35080000Y5869000D01*
X41080000Y16229000D02*
X35080000Y16229000D01*
X41080000Y5869000D02*
X41080000Y16229000D01*
X35080000Y5869000D02*
X41080000Y5869000D01*
X31556000Y21269000D02*
X28896000Y21269000D01*
X31556000Y13589000D02*
X31556000Y21269000D01*
X28896000Y13589000D02*
X28896000Y21269000D01*
X31556000Y13589000D02*
X28896000Y13589000D01*
X31556000Y12319000D02*
X31556000Y10989000D01*
X31556000Y10989000D02*
X30226000Y10989000D01*
X31556000Y31563000D02*
X30226000Y31563000D01*
X31556000Y32893000D02*
X31556000Y31563000D01*
X31556000Y34163000D02*
X28896000Y34163000D01*
X28896000Y34163000D02*
X28896000Y41843000D01*
X31556000Y34163000D02*
X31556000Y41843000D01*
X31556000Y41843000D02*
X28896000Y41843000D01*
X48560000Y69155000D02*
X47960000Y69155000D01*
X48260000Y69755000D02*
X48560000Y69155000D01*
X47960000Y69155000D02*
X48260000Y69755000D01*
X50790000Y76555000D02*
X42230000Y76555000D01*
X47210000Y70475000D02*
X45810000Y70475000D01*
X42230000Y70475000D02*
X43710000Y70475000D01*
X50790000Y70475000D02*
X49310000Y70475000D01*
X42230000Y79835000D02*
X42230000Y70475000D01*
X50790000Y79835000D02*
X42230000Y79835000D01*
X50790000Y70475000D02*
X50790000Y79835000D01*
X39995000Y70475000D02*
X39995000Y79835000D01*
X39995000Y79835000D02*
X31435000Y79835000D01*
X31435000Y79835000D02*
X31435000Y70475000D01*
X39995000Y70475000D02*
X38515000Y70475000D01*
X31435000Y70475000D02*
X32915000Y70475000D01*
X36415000Y70475000D02*
X35015000Y70475000D01*
X39995000Y76555000D02*
X31435000Y76555000D01*
X37165000Y69155000D02*
X37465000Y69755000D01*
X37465000Y69755000D02*
X37765000Y69155000D01*
X37765000Y69155000D02*
X37165000Y69155000D01*
X12586000Y15659000D02*
X11966000Y15659000D01*
X12586000Y14059000D02*
X12586000Y15659000D01*
X11966000Y14059000D02*
X12586000Y14059000D01*
X12586000Y13119000D02*
X11966000Y13119000D01*
X12586000Y11519000D02*
X12586000Y13119000D01*
X11966000Y11519000D02*
X12586000Y11519000D01*
X12586000Y10579000D02*
X11966000Y10579000D01*
X12586000Y8979000D02*
X12586000Y10579000D01*
X11966000Y8979000D02*
X12586000Y8979000D01*
X12586000Y8039000D02*
X11966000Y8039000D01*
X12586000Y6439000D02*
X12586000Y8039000D01*
X11966000Y6439000D02*
X12586000Y6439000D01*
X17966000Y14609000D02*
X16966000Y14609000D01*
X17966000Y7489000D02*
X16966000Y7489000D01*
X16536000Y14609000D02*
X16966000Y14859000D01*
X16536000Y7489000D02*
X16536000Y14609000D01*
X16966000Y7239000D02*
X16536000Y7489000D01*
X16966000Y14859000D02*
X17966000Y14859000D01*
X16966000Y7239000D02*
X16966000Y14859000D01*
X17966000Y7239000D02*
X16966000Y7239000D01*
X11966000Y16229000D02*
X11966000Y5869000D01*
X17966000Y16229000D02*
X11966000Y16229000D01*
X17966000Y5869000D02*
X17966000Y16229000D01*
X11966000Y5869000D02*
X17966000Y5869000D01*
X11966000Y26443000D02*
X17966000Y26443000D01*
X17966000Y26443000D02*
X17966000Y36803000D01*
X17966000Y36803000D02*
X11966000Y36803000D01*
X11966000Y36803000D02*
X11966000Y26443000D01*
X17966000Y27813000D02*
X16966000Y27813000D01*
X16966000Y27813000D02*
X16966000Y35433000D01*
X16966000Y35433000D02*
X17966000Y35433000D01*
X16966000Y27813000D02*
X16536000Y28063000D01*
X16536000Y28063000D02*
X16536000Y35183000D01*
X16536000Y35183000D02*
X16966000Y35433000D01*
X17966000Y28063000D02*
X16966000Y28063000D01*
X17966000Y35183000D02*
X16966000Y35183000D01*
X11966000Y27013000D02*
X12586000Y27013000D01*
X12586000Y27013000D02*
X12586000Y28613000D01*
X12586000Y28613000D02*
X11966000Y28613000D01*
X11966000Y29553000D02*
X12586000Y29553000D01*
X12586000Y29553000D02*
X12586000Y31153000D01*
X12586000Y31153000D02*
X11966000Y31153000D01*
X11966000Y32093000D02*
X12586000Y32093000D01*
X12586000Y32093000D02*
X12586000Y33693000D01*
X12586000Y33693000D02*
X11966000Y33693000D01*
X11966000Y34633000D02*
X12586000Y34633000D01*
X12586000Y34633000D02*
X12586000Y36233000D01*
X12586000Y36233000D02*
X11966000Y36233000D01*
X26716000Y69155000D02*
X26116000Y69155000D01*
X26416000Y69755000D02*
X26716000Y69155000D01*
X26116000Y69155000D02*
X26416000Y69755000D01*
X28946000Y76555000D02*
X20386000Y76555000D01*
X25366000Y70475000D02*
X23966000Y70475000D01*
X20386000Y70475000D02*
X21866000Y70475000D01*
X28946000Y70475000D02*
X27466000Y70475000D01*
X20386000Y79835000D02*
X20386000Y70475000D01*
X28946000Y79835000D02*
X20386000Y79835000D01*
X28946000Y70475000D02*
X28946000Y79835000D01*
X27086000Y60951000D02*
X28286000Y60951000D01*
X28286000Y59191000D02*
X27086000Y59191000D01*
X22260000Y60951000D02*
X23460000Y60951000D01*
X23460000Y59191000D02*
X22260000Y59191000D01*
D16*
G36*
X32782060Y46421832D02*
X32817292Y46404426D01*
X32860740Y46374094D01*
X32892406Y46341017D01*
X32914094Y46299483D01*
X32927603Y46243778D01*
X32934738Y46168189D01*
X32937300Y46067004D01*
X32937450Y46023503D01*
X32937012Y45928165D01*
X32935196Y45860029D01*
X32931245Y45812882D01*
X32924402Y45780510D01*
X32913911Y45756700D01*
X32902996Y45740457D01*
X32833319Y45671348D01*
X32751266Y45629779D01*
X32662750Y45617277D01*
X32573681Y45635366D01*
X32545463Y45648158D01*
X32477910Y45683369D01*
X32477910Y45131600D01*
X32527212Y45157095D01*
X32592173Y45176820D01*
X32672020Y45181873D01*
X32751752Y45172544D01*
X32811965Y45151586D01*
X32861908Y45111673D01*
X32904581Y45054559D01*
X32907790Y45048695D01*
X32921322Y45021073D01*
X32931205Y44993232D01*
X32938009Y44959506D01*
X32942301Y44914229D01*
X32944651Y44851738D01*
X32945628Y44766365D01*
X32945805Y44670290D01*
X32945805Y44363774D01*
X32761989Y44363774D01*
X32761989Y44928961D01*
X32710575Y44972223D01*
X32657166Y45006828D01*
X32606588Y45013120D01*
X32555730Y44996928D01*
X32528625Y44981073D01*
X32508451Y44958490D01*
X32494103Y44924360D01*
X32484476Y44873866D01*
X32478463Y44802189D01*
X32474960Y44704512D01*
X32473726Y44639498D01*
X32469555Y44372129D01*
X32381825Y44367078D01*
X32294094Y44362027D01*
X32294094Y46021199D01*
X32477910Y46021199D01*
X32482596Y45928700D01*
X32498388Y45864491D01*
X32527883Y45824541D01*
X32573680Y45804820D01*
X32619950Y45800879D01*
X32672328Y45805408D01*
X32707090Y45823231D01*
X32728828Y45846781D01*
X32745940Y45872111D01*
X32756127Y45900331D01*
X32760660Y45939869D01*
X32760809Y45999158D01*
X32759284Y46048802D01*
X32755781Y46123590D01*
X32750567Y46172689D01*
X32741787Y46203833D01*
X32727586Y46224755D01*
X32714184Y46236848D01*
X32658187Y46263219D01*
X32591911Y46267478D01*
X32553856Y46258394D01*
X32516177Y46226104D01*
X32491219Y46163294D01*
X32479122Y46070406D01*
X32477910Y46021199D01*
X32294094Y46021199D01*
X32294094Y46435879D01*
X32386002Y46435879D01*
X32441183Y46433697D01*
X32469652Y46425949D01*
X32477906Y46410832D01*
X32477910Y46410384D01*
X32481740Y46395580D01*
X32498633Y46397261D01*
X32532219Y46413528D01*
X32610478Y46438413D01*
X32698527Y46441029D01*
X32782060Y46421832D01*
X32782060Y46421832D01*
G37*
X32782060Y46421832D02*
X32817292Y46404426D01*
X32860740Y46374094D01*
X32892406Y46341017D01*
X32914094Y46299483D01*
X32927603Y46243778D01*
X32934738Y46168189D01*
X32937300Y46067004D01*
X32937450Y46023503D01*
X32937012Y45928165D01*
X32935196Y45860029D01*
X32931245Y45812882D01*
X32924402Y45780510D01*
X32913911Y45756700D01*
X32902996Y45740457D01*
X32833319Y45671348D01*
X32751266Y45629779D01*
X32662750Y45617277D01*
X32573681Y45635366D01*
X32545463Y45648158D01*
X32477910Y45683369D01*
X32477910Y45131600D01*
X32527212Y45157095D01*
X32592173Y45176820D01*
X32672020Y45181873D01*
X32751752Y45172544D01*
X32811965Y45151586D01*
X32861908Y45111673D01*
X32904581Y45054559D01*
X32907790Y45048695D01*
X32921322Y45021073D01*
X32931205Y44993232D01*
X32938009Y44959506D01*
X32942301Y44914229D01*
X32944651Y44851738D01*
X32945628Y44766365D01*
X32945805Y44670290D01*
X32945805Y44363774D01*
X32761989Y44363774D01*
X32761989Y44928961D01*
X32710575Y44972223D01*
X32657166Y45006828D01*
X32606588Y45013120D01*
X32555730Y44996928D01*
X32528625Y44981073D01*
X32508451Y44958490D01*
X32494103Y44924360D01*
X32484476Y44873866D01*
X32478463Y44802189D01*
X32474960Y44704512D01*
X32473726Y44639498D01*
X32469555Y44372129D01*
X32381825Y44367078D01*
X32294094Y44362027D01*
X32294094Y46021199D01*
X32477910Y46021199D01*
X32482596Y45928700D01*
X32498388Y45864491D01*
X32527883Y45824541D01*
X32573680Y45804820D01*
X32619950Y45800879D01*
X32672328Y45805408D01*
X32707090Y45823231D01*
X32728828Y45846781D01*
X32745940Y45872111D01*
X32756127Y45900331D01*
X32760660Y45939869D01*
X32760809Y45999158D01*
X32759284Y46048802D01*
X32755781Y46123590D01*
X32750567Y46172689D01*
X32741787Y46203833D01*
X32727586Y46224755D01*
X32714184Y46236848D01*
X32658187Y46263219D01*
X32591911Y46267478D01*
X32553856Y46258394D01*
X32516177Y46226104D01*
X32491219Y46163294D01*
X32479122Y46070406D01*
X32477910Y46021199D01*
X32294094Y46021199D01*
X32294094Y46435879D01*
X32386002Y46435879D01*
X32441183Y46433697D01*
X32469652Y46425949D01*
X32477906Y46410832D01*
X32477910Y46410384D01*
X32481740Y46395580D01*
X32498633Y46397261D01*
X32532219Y46413528D01*
X32610478Y46438413D01*
X32698527Y46441029D01*
X32782060Y46421832D01*
G36*
X33479157Y45176116D02*
X33557770Y45155140D01*
X33617616Y45117120D01*
X33659847Y45067322D01*
X33672975Y45046070D01*
X33682668Y45023808D01*
X33689444Y44995330D01*
X33693823Y44955429D01*
X33696324Y44898899D01*
X33697468Y44820533D01*
X33697772Y44715124D01*
X33697778Y44687158D01*
X33697778Y44363774D01*
X33617568Y44363774D01*
X33566406Y44367357D01*
X33528577Y44376434D01*
X33519099Y44382032D01*
X33493188Y44391694D01*
X33466724Y44382032D01*
X33423152Y44369970D01*
X33359860Y44365115D01*
X33289710Y44367222D01*
X33225560Y44376044D01*
X33188107Y44387363D01*
X33115633Y44433888D01*
X33070340Y44498454D01*
X33049978Y44584300D01*
X33049788Y44586504D01*
X33051575Y44624587D01*
X33213173Y44624587D01*
X33227301Y44581270D01*
X33250312Y44556892D01*
X33296504Y44538455D01*
X33357475Y44531095D01*
X33419649Y44534717D01*
X33469451Y44549226D01*
X33483403Y44558535D01*
X33507785Y44601547D01*
X33513963Y44650443D01*
X33513963Y44714695D01*
X33421518Y44714695D01*
X33333695Y44707934D01*
X33267118Y44688780D01*
X33225702Y44658924D01*
X33213173Y44624587D01*
X33051575Y44624587D01*
X33054190Y44680296D01*
X33085124Y44754453D01*
X33143281Y44810533D01*
X33151320Y44815635D01*
X33185863Y44832245D01*
X33228618Y44842304D01*
X33288386Y44847193D01*
X33359390Y44848317D01*
X33513963Y44848379D01*
X33513963Y44913175D01*
X33507406Y44963450D01*
X33490675Y44997131D01*
X33488716Y44998924D01*
X33451483Y45013658D01*
X33395280Y45019369D01*
X33333167Y45016563D01*
X33278210Y45005744D01*
X33245599Y44989518D01*
X33227928Y44976520D01*
X33209269Y44974038D01*
X33183519Y44984687D01*
X33144573Y45011082D01*
X33086330Y45055835D01*
X33080984Y45060027D01*
X33083723Y45075540D01*
X33106576Y45101340D01*
X33141309Y45130011D01*
X33179690Y45154134D01*
X33191748Y45159830D01*
X33235734Y45171197D01*
X33300187Y45179305D01*
X33372197Y45182557D01*
X33375564Y45182564D01*
X33479157Y45176116D01*
X33479157Y45176116D01*
G37*
X33479157Y45176116D02*
X33557770Y45155140D01*
X33617616Y45117120D01*
X33659847Y45067322D01*
X33672975Y45046070D01*
X33682668Y45023808D01*
X33689444Y44995330D01*
X33693823Y44955429D01*
X33696324Y44898899D01*
X33697468Y44820533D01*
X33697772Y44715124D01*
X33697778Y44687158D01*
X33697778Y44363774D01*
X33617568Y44363774D01*
X33566406Y44367357D01*
X33528577Y44376434D01*
X33519099Y44382032D01*
X33493188Y44391694D01*
X33466724Y44382032D01*
X33423152Y44369970D01*
X33359860Y44365115D01*
X33289710Y44367222D01*
X33225560Y44376044D01*
X33188107Y44387363D01*
X33115633Y44433888D01*
X33070340Y44498454D01*
X33049978Y44584300D01*
X33049788Y44586504D01*
X33051575Y44624587D01*
X33213173Y44624587D01*
X33227301Y44581270D01*
X33250312Y44556892D01*
X33296504Y44538455D01*
X33357475Y44531095D01*
X33419649Y44534717D01*
X33469451Y44549226D01*
X33483403Y44558535D01*
X33507785Y44601547D01*
X33513963Y44650443D01*
X33513963Y44714695D01*
X33421518Y44714695D01*
X33333695Y44707934D01*
X33267118Y44688780D01*
X33225702Y44658924D01*
X33213173Y44624587D01*
X33051575Y44624587D01*
X33054190Y44680296D01*
X33085124Y44754453D01*
X33143281Y44810533D01*
X33151320Y44815635D01*
X33185863Y44832245D01*
X33228618Y44842304D01*
X33288386Y44847193D01*
X33359390Y44848317D01*
X33513963Y44848379D01*
X33513963Y44913175D01*
X33507406Y44963450D01*
X33490675Y44997131D01*
X33488716Y44998924D01*
X33451483Y45013658D01*
X33395280Y45019369D01*
X33333167Y45016563D01*
X33278210Y45005744D01*
X33245599Y44989518D01*
X33227928Y44976520D01*
X33209269Y44974038D01*
X33183519Y44984687D01*
X33144573Y45011082D01*
X33086330Y45055835D01*
X33080984Y45060027D01*
X33083723Y45075540D01*
X33106576Y45101340D01*
X33141309Y45130011D01*
X33179690Y45154134D01*
X33191748Y45159830D01*
X33235734Y45171197D01*
X33300187Y45179305D01*
X33372197Y45182557D01*
X33375564Y45182564D01*
X33479157Y45176116D01*
G36*
X33998581Y45180814D02*
X34023588Y45173318D01*
X34031650Y45156849D01*
X34031989Y45149414D01*
X34033436Y45128706D01*
X34043398Y45125455D01*
X34070312Y45139652D01*
X34086298Y45149352D01*
X34136733Y45170125D01*
X34196972Y45180396D01*
X34260134Y45181186D01*
X34319337Y45173514D01*
X34367702Y45158402D01*
X34398346Y45136868D01*
X34404389Y45109934D01*
X34401339Y45102640D01*
X34379106Y45072363D01*
X34344630Y45035125D01*
X34338394Y45029105D01*
X34305533Y45001425D01*
X34277180Y44992482D01*
X34237527Y44998724D01*
X34221642Y45002871D01*
X34172209Y45012833D01*
X34137452Y45008353D01*
X34108100Y44992554D01*
X34081213Y44971351D01*
X34061410Y44944686D01*
X34047648Y44907473D01*
X34038884Y44854627D01*
X34034074Y44781063D01*
X34032174Y44681695D01*
X34031989Y44621699D01*
X34031989Y44363774D01*
X33864884Y44363774D01*
X33864884Y45182590D01*
X33948436Y45182590D01*
X33998581Y45180814D01*
X33998581Y45180814D01*
G37*
X33998581Y45180814D02*
X34023588Y45173318D01*
X34031650Y45156849D01*
X34031989Y45149414D01*
X34033436Y45128706D01*
X34043398Y45125455D01*
X34070312Y45139652D01*
X34086298Y45149352D01*
X34136733Y45170125D01*
X34196972Y45180396D01*
X34260134Y45181186D01*
X34319337Y45173514D01*
X34367702Y45158402D01*
X34398346Y45136868D01*
X34404389Y45109934D01*
X34401339Y45102640D01*
X34379106Y45072363D01*
X34344630Y45035125D01*
X34338394Y45029105D01*
X34305533Y45001425D01*
X34277180Y44992482D01*
X34237527Y44998724D01*
X34221642Y45002871D01*
X34172209Y45012833D01*
X34137452Y45008353D01*
X34108100Y44992554D01*
X34081213Y44971351D01*
X34061410Y44944686D01*
X34047648Y44907473D01*
X34038884Y44854627D01*
X34034074Y44781063D01*
X34032174Y44681695D01*
X34031989Y44621699D01*
X34031989Y44363774D01*
X33864884Y44363774D01*
X33864884Y45182590D01*
X33948436Y45182590D01*
X33998581Y45180814D01*
G36*
X35051331Y44363774D02*
X34959423Y44363774D01*
X34906077Y44365338D01*
X34878293Y44371815D01*
X34868290Y44385882D01*
X34867515Y44395394D01*
X34865828Y44414468D01*
X34855190Y44418126D01*
X34827235Y44406368D01*
X34805495Y44395394D01*
X34722032Y44369389D01*
X34631304Y44367884D01*
X34557542Y44387279D01*
X34488854Y44434135D01*
X34436494Y44503296D01*
X34407822Y44584873D01*
X34407092Y44589434D01*
X34402832Y44639199D01*
X34400714Y44710641D01*
X34400884Y44764674D01*
X34583420Y44764674D01*
X34587649Y44692859D01*
X34597268Y44633666D01*
X34610290Y44600240D01*
X34659556Y44554560D01*
X34718050Y44538185D01*
X34778371Y44551427D01*
X34829917Y44590927D01*
X34849438Y44617493D01*
X34860852Y44649194D01*
X34866198Y44695468D01*
X34867515Y44764972D01*
X34865158Y44833801D01*
X34858933Y44894274D01*
X34850108Y44934744D01*
X34848637Y44938371D01*
X34813047Y44981498D01*
X34761100Y45005176D01*
X34702978Y45008999D01*
X34648860Y44992562D01*
X34608926Y44955460D01*
X34604783Y44948078D01*
X34591816Y44903061D01*
X34584752Y44838333D01*
X34583420Y44764674D01*
X34400884Y44764674D01*
X34400971Y44792070D01*
X34402172Y44835895D01*
X34410345Y44944312D01*
X34427330Y45025712D01*
X34455587Y45085888D01*
X34497572Y45130634D01*
X34538332Y45156900D01*
X34595281Y45175365D01*
X34666111Y45181698D01*
X34738641Y45176540D01*
X34800686Y45160531D01*
X34833468Y45141380D01*
X34867515Y45110568D01*
X34867515Y45500090D01*
X35051331Y45500090D01*
X35051331Y44363774D01*
X35051331Y44363774D01*
G37*
X35051331Y44363774D02*
X34959423Y44363774D01*
X34906077Y44365338D01*
X34878293Y44371815D01*
X34868290Y44385882D01*
X34867515Y44395394D01*
X34865828Y44414468D01*
X34855190Y44418126D01*
X34827235Y44406368D01*
X34805495Y44395394D01*
X34722032Y44369389D01*
X34631304Y44367884D01*
X34557542Y44387279D01*
X34488854Y44434135D01*
X34436494Y44503296D01*
X34407822Y44584873D01*
X34407092Y44589434D01*
X34402832Y44639199D01*
X34400714Y44710641D01*
X34400884Y44764674D01*
X34583420Y44764674D01*
X34587649Y44692859D01*
X34597268Y44633666D01*
X34610290Y44600240D01*
X34659556Y44554560D01*
X34718050Y44538185D01*
X34778371Y44551427D01*
X34829917Y44590927D01*
X34849438Y44617493D01*
X34860852Y44649194D01*
X34866198Y44695468D01*
X34867515Y44764972D01*
X34865158Y44833801D01*
X34858933Y44894274D01*
X34850108Y44934744D01*
X34848637Y44938371D01*
X34813047Y44981498D01*
X34761100Y45005176D01*
X34702978Y45008999D01*
X34648860Y44992562D01*
X34608926Y44955460D01*
X34604783Y44948078D01*
X34591816Y44903061D01*
X34584752Y44838333D01*
X34583420Y44764674D01*
X34400884Y44764674D01*
X34400971Y44792070D01*
X34402172Y44835895D01*
X34410345Y44944312D01*
X34427330Y45025712D01*
X34455587Y45085888D01*
X34497572Y45130634D01*
X34538332Y45156900D01*
X34595281Y45175365D01*
X34666111Y45181698D01*
X34738641Y45176540D01*
X34800686Y45160531D01*
X34833468Y45141380D01*
X34867515Y45110568D01*
X34867515Y45500090D01*
X35051331Y45500090D01*
X35051331Y44363774D01*
G36*
X35692830Y45179196D02*
X35758920Y45174234D01*
X35845326Y44915221D01*
X35931731Y44656208D01*
X35958824Y44748116D01*
X35975128Y44804916D01*
X35996575Y44881675D01*
X36019735Y44966049D01*
X36031980Y45011307D01*
X36078044Y45182590D01*
X36268087Y45182590D01*
X36211282Y45002951D01*
X36183307Y44914596D01*
X36149513Y44808019D01*
X36114220Y44696846D01*
X36082713Y44597721D01*
X36010950Y44372129D01*
X35855986Y44362047D01*
X35813970Y44500772D01*
X35788059Y44586949D01*
X35759783Y44681953D01*
X35735069Y44765859D01*
X35734094Y44769198D01*
X35715635Y44826052D01*
X35699349Y44864844D01*
X35687942Y44879513D01*
X35685598Y44877817D01*
X35677371Y44855075D01*
X35661738Y44806360D01*
X35640604Y44737798D01*
X35615870Y44655515D01*
X35602487Y44610254D01*
X35530011Y44363774D01*
X35376195Y44363774D01*
X35253231Y44752294D01*
X35218688Y44861278D01*
X35187221Y44960252D01*
X35160316Y45044564D01*
X35139459Y45109566D01*
X35126138Y45150608D01*
X35122088Y45162599D01*
X35125294Y45174877D01*
X35150465Y45180254D01*
X35202846Y45179716D01*
X35211045Y45179310D01*
X35308182Y45174234D01*
X35371800Y44940287D01*
X35395184Y44854967D01*
X35416081Y44779965D01*
X35432651Y44721793D01*
X35443054Y44686963D01*
X35444976Y44681284D01*
X35452941Y44687814D01*
X35469004Y44721646D01*
X35491321Y44778173D01*
X35518045Y44852790D01*
X35540637Y44920193D01*
X35626741Y45184157D01*
X35692830Y45179196D01*
X35692830Y45179196D01*
G37*
X35692830Y45179196D02*
X35758920Y45174234D01*
X35845326Y44915221D01*
X35931731Y44656208D01*
X35958824Y44748116D01*
X35975128Y44804916D01*
X35996575Y44881675D01*
X36019735Y44966049D01*
X36031980Y45011307D01*
X36078044Y45182590D01*
X36268087Y45182590D01*
X36211282Y45002951D01*
X36183307Y44914596D01*
X36149513Y44808019D01*
X36114220Y44696846D01*
X36082713Y44597721D01*
X36010950Y44372129D01*
X35855986Y44362047D01*
X35813970Y44500772D01*
X35788059Y44586949D01*
X35759783Y44681953D01*
X35735069Y44765859D01*
X35734094Y44769198D01*
X35715635Y44826052D01*
X35699349Y44864844D01*
X35687942Y44879513D01*
X35685598Y44877817D01*
X35677371Y44855075D01*
X35661738Y44806360D01*
X35640604Y44737798D01*
X35615870Y44655515D01*
X35602487Y44610254D01*
X35530011Y44363774D01*
X35376195Y44363774D01*
X35253231Y44752294D01*
X35218688Y44861278D01*
X35187221Y44960252D01*
X35160316Y45044564D01*
X35139459Y45109566D01*
X35126138Y45150608D01*
X35122088Y45162599D01*
X35125294Y45174877D01*
X35150465Y45180254D01*
X35202846Y45179716D01*
X35211045Y45179310D01*
X35308182Y45174234D01*
X35371800Y44940287D01*
X35395184Y44854967D01*
X35416081Y44779965D01*
X35432651Y44721793D01*
X35443054Y44686963D01*
X35444976Y44681284D01*
X35452941Y44687814D01*
X35469004Y44721646D01*
X35491321Y44778173D01*
X35518045Y44852790D01*
X35540637Y44920193D01*
X35626741Y45184157D01*
X35692830Y45179196D01*
G36*
X36698692Y45177627D02*
X36769127Y45160520D01*
X36789487Y45151456D01*
X36828953Y45127717D01*
X36859241Y45100979D01*
X36881652Y45066601D01*
X36897486Y45019940D01*
X36908043Y44956354D01*
X36914624Y44871201D01*
X36918528Y44759838D01*
X36920010Y44685451D01*
X36925465Y44363774D01*
X36832280Y44363774D01*
X36775747Y44366144D01*
X36746622Y44374245D01*
X36739094Y44387849D01*
X36735120Y44402559D01*
X36717352Y44399746D01*
X36693140Y44387952D01*
X36632528Y44369873D01*
X36554629Y44365001D01*
X36472695Y44372970D01*
X36399981Y44393411D01*
X36393459Y44396249D01*
X36327002Y44442935D01*
X36283191Y44507836D01*
X36263032Y44583700D01*
X36264572Y44610956D01*
X36429045Y44610956D01*
X36443537Y44574276D01*
X36486505Y44547991D01*
X36555829Y44533883D01*
X36592877Y44532010D01*
X36654619Y44536806D01*
X36695660Y44555442D01*
X36705673Y44564300D01*
X36732800Y44612494D01*
X36739094Y44656208D01*
X36739094Y44714695D01*
X36657630Y44714695D01*
X36562934Y44709868D01*
X36496513Y44694687D01*
X36454546Y44668100D01*
X36445149Y44656248D01*
X36429045Y44610956D01*
X36264572Y44610956D01*
X36267529Y44663274D01*
X36297685Y44739305D01*
X36338831Y44790688D01*
X36363752Y44812903D01*
X36388148Y44827502D01*
X36419891Y44836403D01*
X36466852Y44841525D01*
X36536904Y44844785D01*
X36564690Y44845723D01*
X36739094Y44851421D01*
X36738838Y44904209D01*
X36732084Y44959697D01*
X36707664Y44993248D01*
X36658330Y45014682D01*
X36657006Y45015064D01*
X36587060Y45023492D01*
X36518614Y45012484D01*
X36467747Y44985715D01*
X36447337Y44972497D01*
X36425354Y44974326D01*
X36391526Y44993476D01*
X36371661Y45006992D01*
X36332806Y45035868D01*
X36308738Y45057514D01*
X36304876Y45063711D01*
X36320779Y45095781D01*
X36367765Y45134081D01*
X36388173Y45147003D01*
X36446843Y45169259D01*
X36525912Y45181868D01*
X36613741Y45184700D01*
X36698692Y45177627D01*
X36698692Y45177627D01*
G37*
X36698692Y45177627D02*
X36769127Y45160520D01*
X36789487Y45151456D01*
X36828953Y45127717D01*
X36859241Y45100979D01*
X36881652Y45066601D01*
X36897486Y45019940D01*
X36908043Y44956354D01*
X36914624Y44871201D01*
X36918528Y44759838D01*
X36920010Y44685451D01*
X36925465Y44363774D01*
X36832280Y44363774D01*
X36775747Y44366144D01*
X36746622Y44374245D01*
X36739094Y44387849D01*
X36735120Y44402559D01*
X36717352Y44399746D01*
X36693140Y44387952D01*
X36632528Y44369873D01*
X36554629Y44365001D01*
X36472695Y44372970D01*
X36399981Y44393411D01*
X36393459Y44396249D01*
X36327002Y44442935D01*
X36283191Y44507836D01*
X36263032Y44583700D01*
X36264572Y44610956D01*
X36429045Y44610956D01*
X36443537Y44574276D01*
X36486505Y44547991D01*
X36555829Y44533883D01*
X36592877Y44532010D01*
X36654619Y44536806D01*
X36695660Y44555442D01*
X36705673Y44564300D01*
X36732800Y44612494D01*
X36739094Y44656208D01*
X36739094Y44714695D01*
X36657630Y44714695D01*
X36562934Y44709868D01*
X36496513Y44694687D01*
X36454546Y44668100D01*
X36445149Y44656248D01*
X36429045Y44610956D01*
X36264572Y44610956D01*
X36267529Y44663274D01*
X36297685Y44739305D01*
X36338831Y44790688D01*
X36363752Y44812903D01*
X36388148Y44827502D01*
X36419891Y44836403D01*
X36466852Y44841525D01*
X36536904Y44844785D01*
X36564690Y44845723D01*
X36739094Y44851421D01*
X36738838Y44904209D01*
X36732084Y44959697D01*
X36707664Y44993248D01*
X36658330Y45014682D01*
X36657006Y45015064D01*
X36587060Y45023492D01*
X36518614Y45012484D01*
X36467747Y44985715D01*
X36447337Y44972497D01*
X36425354Y44974326D01*
X36391526Y44993476D01*
X36371661Y45006992D01*
X36332806Y45035868D01*
X36308738Y45057514D01*
X36304876Y45063711D01*
X36320779Y45095781D01*
X36367765Y45134081D01*
X36388173Y45147003D01*
X36446843Y45169259D01*
X36525912Y45181868D01*
X36613741Y45184700D01*
X36698692Y45177627D01*
G36*
X37491867Y45182853D02*
X37556108Y45170188D01*
X37592680Y45151436D01*
X37631153Y45120283D01*
X37576417Y45051173D01*
X37542669Y45009321D01*
X37519753Y44988902D01*
X37496979Y44985783D01*
X37463656Y44995828D01*
X37448014Y45001511D01*
X37384242Y45009896D01*
X37325840Y44991922D01*
X37282964Y44951318D01*
X37275999Y44938371D01*
X37268413Y44904076D01*
X37262559Y44840873D01*
X37258711Y44753240D01*
X37257143Y44645660D01*
X37257121Y44630356D01*
X37257121Y44363774D01*
X37073305Y44363774D01*
X37073305Y45182590D01*
X37165213Y45182590D01*
X37218207Y45181206D01*
X37245815Y45175048D01*
X37256024Y45161106D01*
X37257121Y45147956D01*
X37257121Y45113322D01*
X37301150Y45147956D01*
X37351637Y45171584D01*
X37419460Y45183267D01*
X37491867Y45182853D01*
X37491867Y45182853D01*
G37*
X37491867Y45182853D02*
X37556108Y45170188D01*
X37592680Y45151436D01*
X37631153Y45120283D01*
X37576417Y45051173D01*
X37542669Y45009321D01*
X37519753Y44988902D01*
X37496979Y44985783D01*
X37463656Y44995828D01*
X37448014Y45001511D01*
X37384242Y45009896D01*
X37325840Y44991922D01*
X37282964Y44951318D01*
X37275999Y44938371D01*
X37268413Y44904076D01*
X37262559Y44840873D01*
X37258711Y44753240D01*
X37257143Y44645660D01*
X37257121Y44630356D01*
X37257121Y44363774D01*
X37073305Y44363774D01*
X37073305Y45182590D01*
X37165213Y45182590D01*
X37218207Y45181206D01*
X37245815Y45175048D01*
X37256024Y45161106D01*
X37257121Y45147956D01*
X37257121Y45113322D01*
X37301150Y45147956D01*
X37351637Y45171584D01*
X37419460Y45183267D01*
X37491867Y45182853D01*
G36*
X38019893Y45178222D02*
X38099768Y45157455D01*
X38166662Y45114595D01*
X38199051Y45082577D01*
X38252145Y45006887D01*
X38282573Y44919084D01*
X38293027Y44811150D01*
X38293080Y44802425D01*
X38293173Y44714695D01*
X37788234Y44714695D01*
X37798998Y44668741D01*
X37818432Y44627122D01*
X37852445Y44583756D01*
X37859560Y44576833D01*
X37920703Y44539365D01*
X37990429Y44533011D01*
X38070687Y44557662D01*
X38084292Y44564300D01*
X38126019Y44584481D01*
X38153968Y44595979D01*
X38158845Y44597042D01*
X38175868Y44586717D01*
X38208333Y44561455D01*
X38224814Y44547650D01*
X38258964Y44515939D01*
X38270178Y44495001D01*
X38262395Y44475740D01*
X38258235Y44470473D01*
X38230057Y44447422D01*
X38183562Y44419408D01*
X38151134Y44403054D01*
X38059085Y44374241D01*
X37957176Y44364905D01*
X37860663Y44375968D01*
X37833634Y44383888D01*
X37749976Y44428719D01*
X37687966Y44497702D01*
X37647245Y44591506D01*
X37627455Y44710802D01*
X37625282Y44773182D01*
X37631626Y44864002D01*
X37791857Y44864002D01*
X37807355Y44857288D01*
X37849012Y44852020D01*
X37909576Y44848911D01*
X37950607Y44848379D01*
X38024411Y44848892D01*
X38070993Y44851294D01*
X38096548Y44856878D01*
X38107269Y44866939D01*
X38109357Y44881537D01*
X38095031Y44926504D01*
X38058962Y44970947D01*
X38011515Y45005058D01*
X37964049Y45019012D01*
X37899579Y45006634D01*
X37843770Y44970848D01*
X37805074Y44919267D01*
X37791857Y44864002D01*
X37631626Y44864002D01*
X37634521Y44905434D01*
X37663036Y45010802D01*
X37711429Y45090122D01*
X37780304Y45144229D01*
X37870265Y45173957D01*
X37919000Y45179682D01*
X38019893Y45178222D01*
X38019893Y45178222D01*
G37*
X38019893Y45178222D02*
X38099768Y45157455D01*
X38166662Y45114595D01*
X38199051Y45082577D01*
X38252145Y45006887D01*
X38282573Y44919084D01*
X38293027Y44811150D01*
X38293080Y44802425D01*
X38293173Y44714695D01*
X37788234Y44714695D01*
X37798998Y44668741D01*
X37818432Y44627122D01*
X37852445Y44583756D01*
X37859560Y44576833D01*
X37920703Y44539365D01*
X37990429Y44533011D01*
X38070687Y44557662D01*
X38084292Y44564300D01*
X38126019Y44584481D01*
X38153968Y44595979D01*
X38158845Y44597042D01*
X38175868Y44586717D01*
X38208333Y44561455D01*
X38224814Y44547650D01*
X38258964Y44515939D01*
X38270178Y44495001D01*
X38262395Y44475740D01*
X38258235Y44470473D01*
X38230057Y44447422D01*
X38183562Y44419408D01*
X38151134Y44403054D01*
X38059085Y44374241D01*
X37957176Y44364905D01*
X37860663Y44375968D01*
X37833634Y44383888D01*
X37749976Y44428719D01*
X37687966Y44497702D01*
X37647245Y44591506D01*
X37627455Y44710802D01*
X37625282Y44773182D01*
X37631626Y44864002D01*
X37791857Y44864002D01*
X37807355Y44857288D01*
X37849012Y44852020D01*
X37909576Y44848911D01*
X37950607Y44848379D01*
X38024411Y44848892D01*
X38070993Y44851294D01*
X38096548Y44856878D01*
X38107269Y44866939D01*
X38109357Y44881537D01*
X38095031Y44926504D01*
X38058962Y44970947D01*
X38011515Y45005058D01*
X37964049Y45019012D01*
X37899579Y45006634D01*
X37843770Y44970848D01*
X37805074Y44919267D01*
X37791857Y44864002D01*
X37631626Y44864002D01*
X37634521Y44905434D01*
X37663036Y45010802D01*
X37711429Y45090122D01*
X37780304Y45144229D01*
X37870265Y45173957D01*
X37919000Y45179682D01*
X38019893Y45178222D01*
G36*
X31945484Y46427196D02*
X32032905Y46388546D01*
X32099270Y46324010D01*
X32144676Y46233488D01*
X32169218Y46116882D01*
X32170977Y46098676D01*
X32172356Y45970316D01*
X32154484Y45857804D01*
X32118450Y45766612D01*
X32099155Y45737278D01*
X32031945Y45675194D01*
X31946350Y45634984D01*
X31850590Y45618297D01*
X31752887Y45626783D01*
X31678617Y45652920D01*
X31614747Y45696965D01*
X31562546Y45754713D01*
X31561643Y45756064D01*
X31540444Y45791707D01*
X31526667Y45827548D01*
X31518324Y45872781D01*
X31513427Y45936599D01*
X31511269Y45988932D01*
X31510371Y46036390D01*
X31677443Y46036390D01*
X31679076Y45989146D01*
X31685004Y45926254D01*
X31695461Y45885893D01*
X31714319Y45857178D01*
X31731981Y45840404D01*
X31794594Y45805284D01*
X31860108Y45800590D01*
X31921121Y45825860D01*
X31951628Y45854176D01*
X31973611Y45882711D01*
X31986469Y45910016D01*
X31992112Y45945550D01*
X31992451Y45998776D01*
X31990712Y46047794D01*
X31986971Y46117818D01*
X31981041Y46163236D01*
X31970353Y46192860D01*
X31952339Y46215503D01*
X31938063Y46228445D01*
X31878351Y46262440D01*
X31813934Y46264135D01*
X31759919Y46243999D01*
X31713840Y46201948D01*
X31686389Y46132872D01*
X31677443Y46036390D01*
X31510371Y46036390D01*
X31509299Y46093001D01*
X31512664Y46170832D01*
X31522745Y46229370D01*
X31540926Y46275563D01*
X31568590Y46316358D01*
X31578846Y46328472D01*
X31642978Y46388826D01*
X31711766Y46424080D01*
X31795889Y46438850D01*
X31836909Y46440057D01*
X31945484Y46427196D01*
X31945484Y46427196D01*
G37*
X31945484Y46427196D02*
X32032905Y46388546D01*
X32099270Y46324010D01*
X32144676Y46233488D01*
X32169218Y46116882D01*
X32170977Y46098676D01*
X32172356Y45970316D01*
X32154484Y45857804D01*
X32118450Y45766612D01*
X32099155Y45737278D01*
X32031945Y45675194D01*
X31946350Y45634984D01*
X31850590Y45618297D01*
X31752887Y45626783D01*
X31678617Y45652920D01*
X31614747Y45696965D01*
X31562546Y45754713D01*
X31561643Y45756064D01*
X31540444Y45791707D01*
X31526667Y45827548D01*
X31518324Y45872781D01*
X31513427Y45936599D01*
X31511269Y45988932D01*
X31510371Y46036390D01*
X31677443Y46036390D01*
X31679076Y45989146D01*
X31685004Y45926254D01*
X31695461Y45885893D01*
X31714319Y45857178D01*
X31731981Y45840404D01*
X31794594Y45805284D01*
X31860108Y45800590D01*
X31921121Y45825860D01*
X31951628Y45854176D01*
X31973611Y45882711D01*
X31986469Y45910016D01*
X31992112Y45945550D01*
X31992451Y45998776D01*
X31990712Y46047794D01*
X31986971Y46117818D01*
X31981041Y46163236D01*
X31970353Y46192860D01*
X31952339Y46215503D01*
X31938063Y46228445D01*
X31878351Y46262440D01*
X31813934Y46264135D01*
X31759919Y46243999D01*
X31713840Y46201948D01*
X31686389Y46132872D01*
X31677443Y46036390D01*
X31510371Y46036390D01*
X31509299Y46093001D01*
X31512664Y46170832D01*
X31522745Y46229370D01*
X31540926Y46275563D01*
X31568590Y46316358D01*
X31578846Y46328472D01*
X31642978Y46388826D01*
X31711766Y46424080D01*
X31795889Y46438850D01*
X31836909Y46440057D01*
X31945484Y46427196D01*
G36*
X33515718Y46417273D02*
X33532370Y46409434D01*
X33590005Y46367214D01*
X33644505Y46305600D01*
X33685199Y46237757D01*
X33696774Y46206566D01*
X33707334Y46150851D01*
X33713631Y46083519D01*
X33714396Y46055715D01*
X33714489Y45967984D01*
X33209550Y45967984D01*
X33220313Y45922030D01*
X33246733Y45867680D01*
X33292922Y45820709D01*
X33347872Y45790452D01*
X33382889Y45784169D01*
X33430377Y45791794D01*
X33487035Y45810917D01*
X33506282Y45819716D01*
X33577459Y45855264D01*
X33638202Y45808933D01*
X33673252Y45777597D01*
X33691902Y45751733D01*
X33692847Y45744142D01*
X33676185Y45725744D01*
X33639670Y45697785D01*
X33606528Y45675973D01*
X33517093Y45636763D01*
X33416829Y45619015D01*
X33317454Y45623630D01*
X33238239Y45647749D01*
X33156580Y45699416D01*
X33098549Y45767444D01*
X33062246Y45855457D01*
X33045772Y45967084D01*
X33044311Y46018162D01*
X33050157Y46135209D01*
X33050875Y46138614D01*
X33218189Y46138614D01*
X33222797Y46127638D01*
X33241736Y46121585D01*
X33280798Y46118990D01*
X33345777Y46118390D01*
X33370797Y46118379D01*
X33446921Y46119286D01*
X33495196Y46122580D01*
X33521160Y46129119D01*
X33530348Y46139763D01*
X33530673Y46143181D01*
X33520187Y46170344D01*
X33493942Y46208397D01*
X33482659Y46221721D01*
X33440772Y46259404D01*
X33397109Y46274220D01*
X33373585Y46275458D01*
X33309943Y46259971D01*
X33256573Y46218370D01*
X33222719Y46157947D01*
X33222119Y46155978D01*
X33218189Y46138614D01*
X33050875Y46138614D01*
X33069599Y46227372D01*
X33104622Y46301110D01*
X33147456Y46353452D01*
X33226648Y46410208D01*
X33319740Y46440538D01*
X33418755Y46443279D01*
X33515718Y46417273D01*
X33515718Y46417273D01*
G37*
X33515718Y46417273D02*
X33532370Y46409434D01*
X33590005Y46367214D01*
X33644505Y46305600D01*
X33685199Y46237757D01*
X33696774Y46206566D01*
X33707334Y46150851D01*
X33713631Y46083519D01*
X33714396Y46055715D01*
X33714489Y45967984D01*
X33209550Y45967984D01*
X33220313Y45922030D01*
X33246733Y45867680D01*
X33292922Y45820709D01*
X33347872Y45790452D01*
X33382889Y45784169D01*
X33430377Y45791794D01*
X33487035Y45810917D01*
X33506282Y45819716D01*
X33577459Y45855264D01*
X33638202Y45808933D01*
X33673252Y45777597D01*
X33691902Y45751733D01*
X33692847Y45744142D01*
X33676185Y45725744D01*
X33639670Y45697785D01*
X33606528Y45675973D01*
X33517093Y45636763D01*
X33416829Y45619015D01*
X33317454Y45623630D01*
X33238239Y45647749D01*
X33156580Y45699416D01*
X33098549Y45767444D01*
X33062246Y45855457D01*
X33045772Y45967084D01*
X33044311Y46018162D01*
X33050157Y46135209D01*
X33050875Y46138614D01*
X33218189Y46138614D01*
X33222797Y46127638D01*
X33241736Y46121585D01*
X33280798Y46118990D01*
X33345777Y46118390D01*
X33370797Y46118379D01*
X33446921Y46119286D01*
X33495196Y46122580D01*
X33521160Y46129119D01*
X33530348Y46139763D01*
X33530673Y46143181D01*
X33520187Y46170344D01*
X33493942Y46208397D01*
X33482659Y46221721D01*
X33440772Y46259404D01*
X33397109Y46274220D01*
X33373585Y46275458D01*
X33309943Y46259971D01*
X33256573Y46218370D01*
X33222719Y46157947D01*
X33222119Y46155978D01*
X33218189Y46138614D01*
X33050875Y46138614D01*
X33069599Y46227372D01*
X33104622Y46301110D01*
X33147456Y46353452D01*
X33226648Y46410208D01*
X33319740Y46440538D01*
X33418755Y46443279D01*
X33515718Y46417273D01*
G36*
X35337328Y46438753D02*
X35400608Y46426752D01*
X35466257Y46401652D01*
X35473272Y46398452D01*
X35523056Y46372274D01*
X35557534Y46347947D01*
X35568678Y46332363D01*
X35558066Y46306947D01*
X35532288Y46269447D01*
X35520846Y46255448D01*
X35473692Y46200346D01*
X35412901Y46236214D01*
X35355047Y46260108D01*
X35288200Y46272880D01*
X35224094Y46273687D01*
X35174464Y46261685D01*
X35162554Y46254195D01*
X35139872Y46219850D01*
X35137116Y46180287D01*
X35154088Y46149380D01*
X35164127Y46143387D01*
X35194210Y46135943D01*
X35247089Y46127194D01*
X35312275Y46118833D01*
X35324300Y46117522D01*
X35428997Y46099412D01*
X35504932Y46068649D01*
X35555292Y46022393D01*
X35583264Y45957803D01*
X35591978Y45878913D01*
X35579940Y45789235D01*
X35540851Y45718814D01*
X35474555Y45667523D01*
X35380894Y45635233D01*
X35276923Y45622493D01*
X35192138Y45622646D01*
X35123365Y45634217D01*
X35076397Y45650191D01*
X35017050Y45678025D01*
X34962206Y45710327D01*
X34942713Y45724545D01*
X34892581Y45765465D01*
X35013503Y45887823D01*
X35082243Y45842333D01*
X35151188Y45808167D01*
X35224811Y45790296D01*
X35295583Y45788411D01*
X35355974Y45802199D01*
X35398457Y45831351D01*
X35412174Y45855948D01*
X35410117Y45895396D01*
X35376030Y45925563D01*
X35310008Y45946394D01*
X35237674Y45956021D01*
X35126352Y45974390D01*
X35043652Y46009046D01*
X34988465Y46061003D01*
X34959688Y46131277D01*
X34955701Y46214593D01*
X34975393Y46301619D01*
X35020289Y46367398D01*
X35090791Y46412232D01*
X35187301Y46436421D01*
X35258800Y46441163D01*
X35337328Y46438753D01*
X35337328Y46438753D01*
G37*
X35337328Y46438753D02*
X35400608Y46426752D01*
X35466257Y46401652D01*
X35473272Y46398452D01*
X35523056Y46372274D01*
X35557534Y46347947D01*
X35568678Y46332363D01*
X35558066Y46306947D01*
X35532288Y46269447D01*
X35520846Y46255448D01*
X35473692Y46200346D01*
X35412901Y46236214D01*
X35355047Y46260108D01*
X35288200Y46272880D01*
X35224094Y46273687D01*
X35174464Y46261685D01*
X35162554Y46254195D01*
X35139872Y46219850D01*
X35137116Y46180287D01*
X35154088Y46149380D01*
X35164127Y46143387D01*
X35194210Y46135943D01*
X35247089Y46127194D01*
X35312275Y46118833D01*
X35324300Y46117522D01*
X35428997Y46099412D01*
X35504932Y46068649D01*
X35555292Y46022393D01*
X35583264Y45957803D01*
X35591978Y45878913D01*
X35579940Y45789235D01*
X35540851Y45718814D01*
X35474555Y45667523D01*
X35380894Y45635233D01*
X35276923Y45622493D01*
X35192138Y45622646D01*
X35123365Y45634217D01*
X35076397Y45650191D01*
X35017050Y45678025D01*
X34962206Y45710327D01*
X34942713Y45724545D01*
X34892581Y45765465D01*
X35013503Y45887823D01*
X35082243Y45842333D01*
X35151188Y45808167D01*
X35224811Y45790296D01*
X35295583Y45788411D01*
X35355974Y45802199D01*
X35398457Y45831351D01*
X35412174Y45855948D01*
X35410117Y45895396D01*
X35376030Y45925563D01*
X35310008Y45946394D01*
X35237674Y45956021D01*
X35126352Y45974390D01*
X35043652Y46009046D01*
X34988465Y46061003D01*
X34959688Y46131277D01*
X34955701Y46214593D01*
X34975393Y46301619D01*
X35020289Y46367398D01*
X35090791Y46412232D01*
X35187301Y46436421D01*
X35258800Y46441163D01*
X35337328Y46438753D01*
G36*
X36130369Y46425990D02*
X36214892Y46379960D01*
X36281021Y46307294D01*
X36312178Y46248194D01*
X36325555Y46195995D01*
X36334222Y46121581D01*
X36337937Y46035858D01*
X36336454Y45949731D01*
X36329531Y45874107D01*
X36321445Y45833716D01*
X36294165Y45778460D01*
X36246920Y45719770D01*
X36189982Y45668448D01*
X36133624Y45635295D01*
X36132250Y45634769D01*
X36062316Y45620282D01*
X35979437Y45619923D01*
X35900677Y45633112D01*
X35870266Y45643683D01*
X35791939Y45688099D01*
X35735843Y45746293D01*
X35698986Y45823335D01*
X35678380Y45924299D01*
X35673718Y45977184D01*
X35674313Y46043637D01*
X35853436Y46043637D01*
X35859470Y45946670D01*
X35876838Y45872777D01*
X35904440Y45825564D01*
X35924104Y45812063D01*
X35974487Y45802649D01*
X36034373Y45805436D01*
X36086149Y45818984D01*
X36099727Y45826438D01*
X36135549Y45869849D01*
X36159193Y45936286D01*
X36169258Y46017139D01*
X36164342Y46103798D01*
X36153355Y46155951D01*
X36121809Y46216349D01*
X36072011Y46254103D01*
X36012037Y46267157D01*
X35949964Y46253451D01*
X35902282Y46219928D01*
X35877225Y46192269D01*
X35862600Y46165006D01*
X35855629Y46128110D01*
X35853533Y46071550D01*
X35853436Y46043637D01*
X35674313Y46043637D01*
X35674982Y46118306D01*
X35697965Y46234029D01*
X35742672Y46324359D01*
X35809105Y46389300D01*
X35897265Y46428855D01*
X35916195Y46433442D01*
X36029966Y46444210D01*
X36130369Y46425990D01*
X36130369Y46425990D01*
G37*
X36130369Y46425990D02*
X36214892Y46379960D01*
X36281021Y46307294D01*
X36312178Y46248194D01*
X36325555Y46195995D01*
X36334222Y46121581D01*
X36337937Y46035858D01*
X36336454Y45949731D01*
X36329531Y45874107D01*
X36321445Y45833716D01*
X36294165Y45778460D01*
X36246920Y45719770D01*
X36189982Y45668448D01*
X36133624Y45635295D01*
X36132250Y45634769D01*
X36062316Y45620282D01*
X35979437Y45619923D01*
X35900677Y45633112D01*
X35870266Y45643683D01*
X35791939Y45688099D01*
X35735843Y45746293D01*
X35698986Y45823335D01*
X35678380Y45924299D01*
X35673718Y45977184D01*
X35674313Y46043637D01*
X35853436Y46043637D01*
X35859470Y45946670D01*
X35876838Y45872777D01*
X35904440Y45825564D01*
X35924104Y45812063D01*
X35974487Y45802649D01*
X36034373Y45805436D01*
X36086149Y45818984D01*
X36099727Y45826438D01*
X36135549Y45869849D01*
X36159193Y45936286D01*
X36169258Y46017139D01*
X36164342Y46103798D01*
X36153355Y46155951D01*
X36121809Y46216349D01*
X36072011Y46254103D01*
X36012037Y46267157D01*
X35949964Y46253451D01*
X35902282Y46219928D01*
X35877225Y46192269D01*
X35862600Y46165006D01*
X35855629Y46128110D01*
X35853533Y46071550D01*
X35853436Y46043637D01*
X35674313Y46043637D01*
X35674982Y46118306D01*
X35697965Y46234029D01*
X35742672Y46324359D01*
X35809105Y46389300D01*
X35897265Y46428855D01*
X35916195Y46433442D01*
X36029966Y46444210D01*
X36130369Y46425990D01*
G36*
X36638831Y46175767D02*
X36640410Y46053211D01*
X36646181Y45960121D01*
X36657691Y45892649D01*
X36676490Y45846945D01*
X36704126Y45819161D01*
X36742148Y45805446D01*
X36789226Y45801942D01*
X36838532Y45805868D01*
X36875983Y45820211D01*
X36903128Y45848822D01*
X36921515Y45895549D01*
X36932693Y45964242D01*
X36938211Y46058750D01*
X36939621Y46175767D01*
X36939621Y46435879D01*
X37123436Y46435879D01*
X37123436Y45633774D01*
X37031528Y45633774D01*
X36976122Y45636019D01*
X36947591Y45643904D01*
X36939621Y45658872D01*
X36934820Y45672203D01*
X36915714Y45669383D01*
X36877204Y45650517D01*
X36788939Y45621413D01*
X36695323Y45623475D01*
X36605621Y45655079D01*
X36562904Y45680043D01*
X36530321Y45707074D01*
X36506517Y45740895D01*
X36490139Y45786232D01*
X36479831Y45847811D01*
X36474241Y45930357D01*
X36472012Y46038595D01*
X36471726Y46122296D01*
X36471726Y46435879D01*
X36638831Y46435879D01*
X36638831Y46175767D01*
X36638831Y46175767D01*
G37*
X36638831Y46175767D02*
X36640410Y46053211D01*
X36646181Y45960121D01*
X36657691Y45892649D01*
X36676490Y45846945D01*
X36704126Y45819161D01*
X36742148Y45805446D01*
X36789226Y45801942D01*
X36838532Y45805868D01*
X36875983Y45820211D01*
X36903128Y45848822D01*
X36921515Y45895549D01*
X36932693Y45964242D01*
X36938211Y46058750D01*
X36939621Y46175767D01*
X36939621Y46435879D01*
X37123436Y46435879D01*
X37123436Y45633774D01*
X37031528Y45633774D01*
X36976122Y45636019D01*
X36947591Y45643904D01*
X36939621Y45658872D01*
X36934820Y45672203D01*
X36915714Y45669383D01*
X36877204Y45650517D01*
X36788939Y45621413D01*
X36695323Y45623475D01*
X36605621Y45655079D01*
X36562904Y45680043D01*
X36530321Y45707074D01*
X36506517Y45740895D01*
X36490139Y45786232D01*
X36479831Y45847811D01*
X36474241Y45930357D01*
X36472012Y46038595D01*
X36471726Y46122296D01*
X36471726Y46435879D01*
X36638831Y46435879D01*
X36638831Y46175767D01*
G36*
X38265276Y46428881D02*
X38362095Y46387751D01*
X38392590Y46367729D01*
X38431565Y46336960D01*
X38456031Y46312767D01*
X38460278Y46304887D01*
X38448284Y46287401D01*
X38417587Y46257730D01*
X38393012Y46237021D01*
X38325746Y46182964D01*
X38272630Y46227658D01*
X38231584Y46256511D01*
X38191563Y46266471D01*
X38145759Y46264039D01*
X38073024Y46245955D01*
X38022956Y46208419D01*
X37992529Y46147738D01*
X37978717Y46060219D01*
X37978713Y46060164D01*
X37979908Y45962342D01*
X37998472Y45890570D01*
X38035504Y45841705D01*
X38060750Y45825157D01*
X38127797Y45804551D01*
X38199409Y45804538D01*
X38261715Y45824532D01*
X38276463Y45834300D01*
X38313450Y45859253D01*
X38342368Y45863342D01*
X38373556Y45844770D01*
X38408036Y45811413D01*
X38462612Y45755104D01*
X38402018Y45705158D01*
X38308398Y45648787D01*
X38202825Y45621007D01*
X38092498Y45623018D01*
X38020043Y45641438D01*
X37935356Y45686990D01*
X37867627Y45758650D01*
X37836857Y45809234D01*
X37811936Y45881812D01*
X37799466Y45973731D01*
X37799370Y46073352D01*
X37811570Y46169033D01*
X37835990Y46249131D01*
X37839836Y46257344D01*
X37896793Y46337887D01*
X37973909Y46396529D01*
X38065090Y46432053D01*
X38164243Y46443243D01*
X38265276Y46428881D01*
X38265276Y46428881D01*
G37*
X38265276Y46428881D02*
X38362095Y46387751D01*
X38392590Y46367729D01*
X38431565Y46336960D01*
X38456031Y46312767D01*
X38460278Y46304887D01*
X38448284Y46287401D01*
X38417587Y46257730D01*
X38393012Y46237021D01*
X38325746Y46182964D01*
X38272630Y46227658D01*
X38231584Y46256511D01*
X38191563Y46266471D01*
X38145759Y46264039D01*
X38073024Y46245955D01*
X38022956Y46208419D01*
X37992529Y46147738D01*
X37978717Y46060219D01*
X37978713Y46060164D01*
X37979908Y45962342D01*
X37998472Y45890570D01*
X38035504Y45841705D01*
X38060750Y45825157D01*
X38127797Y45804551D01*
X38199409Y45804538D01*
X38261715Y45824532D01*
X38276463Y45834300D01*
X38313450Y45859253D01*
X38342368Y45863342D01*
X38373556Y45844770D01*
X38408036Y45811413D01*
X38462612Y45755104D01*
X38402018Y45705158D01*
X38308398Y45648787D01*
X38202825Y45621007D01*
X38092498Y45623018D01*
X38020043Y45641438D01*
X37935356Y45686990D01*
X37867627Y45758650D01*
X37836857Y45809234D01*
X37811936Y45881812D01*
X37799466Y45973731D01*
X37799370Y46073352D01*
X37811570Y46169033D01*
X37835990Y46249131D01*
X37839836Y46257344D01*
X37896793Y46337887D01*
X37973909Y46396529D01*
X38065090Y46432053D01*
X38164243Y46443243D01*
X38265276Y46428881D01*
G36*
X38877484Y46438746D02*
X38920274Y46428351D01*
X39002309Y46390287D01*
X39072457Y46332151D01*
X39121005Y46262448D01*
X39127675Y46246798D01*
X39136824Y46205804D01*
X39143229Y46145162D01*
X39145410Y46083870D01*
X39145410Y45967984D01*
X38903107Y45967984D01*
X38803171Y45967607D01*
X38732769Y45965313D01*
X38688013Y45959362D01*
X38665015Y45948015D01*
X38659889Y45929529D01*
X38668748Y45902164D01*
X38684617Y45870145D01*
X38728884Y45816708D01*
X38790399Y45790085D01*
X38865585Y45790953D01*
X38950753Y45819929D01*
X39024359Y45855689D01*
X39085434Y45807396D01*
X39146510Y45759103D01*
X39089051Y45706015D01*
X39012341Y45655855D01*
X38918002Y45625612D01*
X38816527Y45617149D01*
X38718411Y45632326D01*
X38702581Y45637476D01*
X38616347Y45682509D01*
X38552201Y45749648D01*
X38508791Y45840895D01*
X38484764Y45958256D01*
X38484484Y45960771D01*
X38482333Y46088673D01*
X38491029Y46134303D01*
X38660805Y46134303D01*
X38676397Y46127287D01*
X38718729Y46121912D01*
X38781134Y46118843D01*
X38820681Y46118379D01*
X38894428Y46118670D01*
X38940540Y46120517D01*
X38964800Y46125388D01*
X38972994Y46134745D01*
X38970906Y46150055D01*
X38969155Y46155978D01*
X38939260Y46211632D01*
X38892242Y46256485D01*
X38850749Y46276195D01*
X38795626Y46275005D01*
X38739768Y46250425D01*
X38692912Y46209730D01*
X38664794Y46160192D01*
X38660805Y46134303D01*
X38491029Y46134303D01*
X38503774Y46201167D01*
X38546311Y46295573D01*
X38607447Y46369212D01*
X38684685Y46419407D01*
X38775530Y46443478D01*
X38877484Y46438746D01*
X38877484Y46438746D01*
G37*
X38877484Y46438746D02*
X38920274Y46428351D01*
X39002309Y46390287D01*
X39072457Y46332151D01*
X39121005Y46262448D01*
X39127675Y46246798D01*
X39136824Y46205804D01*
X39143229Y46145162D01*
X39145410Y46083870D01*
X39145410Y45967984D01*
X38903107Y45967984D01*
X38803171Y45967607D01*
X38732769Y45965313D01*
X38688013Y45959362D01*
X38665015Y45948015D01*
X38659889Y45929529D01*
X38668748Y45902164D01*
X38684617Y45870145D01*
X38728884Y45816708D01*
X38790399Y45790085D01*
X38865585Y45790953D01*
X38950753Y45819929D01*
X39024359Y45855689D01*
X39085434Y45807396D01*
X39146510Y45759103D01*
X39089051Y45706015D01*
X39012341Y45655855D01*
X38918002Y45625612D01*
X38816527Y45617149D01*
X38718411Y45632326D01*
X38702581Y45637476D01*
X38616347Y45682509D01*
X38552201Y45749648D01*
X38508791Y45840895D01*
X38484764Y45958256D01*
X38484484Y45960771D01*
X38482333Y46088673D01*
X38491029Y46134303D01*
X38660805Y46134303D01*
X38676397Y46127287D01*
X38718729Y46121912D01*
X38781134Y46118843D01*
X38820681Y46118379D01*
X38894428Y46118670D01*
X38940540Y46120517D01*
X38964800Y46125388D01*
X38972994Y46134745D01*
X38970906Y46150055D01*
X38969155Y46155978D01*
X38939260Y46211632D01*
X38892242Y46256485D01*
X38850749Y46276195D01*
X38795626Y46275005D01*
X38739768Y46250425D01*
X38692912Y46209730D01*
X38664794Y46160192D01*
X38660805Y46134303D01*
X38491029Y46134303D01*
X38503774Y46201167D01*
X38546311Y46295573D01*
X38607447Y46369212D01*
X38684685Y46419407D01*
X38775530Y46443478D01*
X38877484Y46438746D01*
G36*
X34316657Y46422074D02*
X34358246Y46402210D01*
X34398525Y46373516D01*
X34429210Y46340491D01*
X34451561Y46298369D01*
X34466836Y46242385D01*
X34476292Y46167772D01*
X34481187Y46069765D01*
X34482781Y45943598D01*
X34482806Y45930386D01*
X34483173Y45633774D01*
X34299357Y45633774D01*
X34299357Y45907219D01*
X34299227Y46008523D01*
X34298321Y46081947D01*
X34295873Y46133029D01*
X34291114Y46167310D01*
X34283274Y46190329D01*
X34271585Y46207627D01*
X34255302Y46224719D01*
X34198334Y46261443D01*
X34136145Y46268258D01*
X34076899Y46245039D01*
X34056295Y46227757D01*
X34041170Y46211509D01*
X34030310Y46194109D01*
X34023010Y46170088D01*
X34018563Y46133978D01*
X34016264Y46080312D01*
X34015404Y46003620D01*
X34015278Y45910257D01*
X34015278Y45633774D01*
X33831463Y45633774D01*
X33831463Y46435879D01*
X33923371Y46435879D01*
X33978551Y46433697D01*
X34007020Y46425949D01*
X34015275Y46410832D01*
X34015278Y46410384D01*
X34019108Y46395580D01*
X34036001Y46397260D01*
X34069588Y46413527D01*
X34145763Y46437460D01*
X34232900Y46440122D01*
X34316657Y46422074D01*
X34316657Y46422074D01*
G37*
X34316657Y46422074D02*
X34358246Y46402210D01*
X34398525Y46373516D01*
X34429210Y46340491D01*
X34451561Y46298369D01*
X34466836Y46242385D01*
X34476292Y46167772D01*
X34481187Y46069765D01*
X34482781Y45943598D01*
X34482806Y45930386D01*
X34483173Y45633774D01*
X34299357Y45633774D01*
X34299357Y45907219D01*
X34299227Y46008523D01*
X34298321Y46081947D01*
X34295873Y46133029D01*
X34291114Y46167310D01*
X34283274Y46190329D01*
X34271585Y46207627D01*
X34255302Y46224719D01*
X34198334Y46261443D01*
X34136145Y46268258D01*
X34076899Y46245039D01*
X34056295Y46227757D01*
X34041170Y46211509D01*
X34030310Y46194109D01*
X34023010Y46170088D01*
X34018563Y46133978D01*
X34016264Y46080312D01*
X34015404Y46003620D01*
X34015278Y45910257D01*
X34015278Y45633774D01*
X33831463Y45633774D01*
X33831463Y46435879D01*
X33923371Y46435879D01*
X33978551Y46433697D01*
X34007020Y46425949D01*
X34015275Y46410832D01*
X34015278Y46410384D01*
X34019108Y46395580D01*
X34036001Y46397260D01*
X34069588Y46413527D01*
X34145763Y46437460D01*
X34232900Y46440122D01*
X34316657Y46422074D01*
G36*
X37710088Y46436655D02*
X37767565Y46419094D01*
X37804572Y46396905D01*
X37816627Y46379358D01*
X37813309Y46358558D01*
X37791779Y46325881D01*
X37773574Y46302738D01*
X37736044Y46260898D01*
X37707848Y46243295D01*
X37683811Y46244444D01*
X37612508Y46262590D01*
X37560142Y46261766D01*
X37517618Y46241202D01*
X37503342Y46229166D01*
X37457647Y46186817D01*
X37457647Y45633774D01*
X37273831Y45633774D01*
X37273831Y46435879D01*
X37365739Y46435879D01*
X37420919Y46433697D01*
X37449388Y46425949D01*
X37457643Y46410832D01*
X37457647Y46410384D01*
X37461545Y46394551D01*
X37479174Y46396616D01*
X37503601Y46408039D01*
X37554050Y46429295D01*
X37595016Y46442084D01*
X37647728Y46445362D01*
X37710088Y46436655D01*
X37710088Y46436655D01*
G37*
X37710088Y46436655D02*
X37767565Y46419094D01*
X37804572Y46396905D01*
X37816627Y46379358D01*
X37813309Y46358558D01*
X37791779Y46325881D01*
X37773574Y46302738D01*
X37736044Y46260898D01*
X37707848Y46243295D01*
X37683811Y46244444D01*
X37612508Y46262590D01*
X37560142Y46261766D01*
X37517618Y46241202D01*
X37503342Y46229166D01*
X37457647Y46186817D01*
X37457647Y45633774D01*
X37273831Y45633774D01*
X37273831Y46435879D01*
X37365739Y46435879D01*
X37420919Y46433697D01*
X37449388Y46425949D01*
X37457643Y46410832D01*
X37457647Y46410384D01*
X37461545Y46394551D01*
X37479174Y46396616D01*
X37503601Y46408039D01*
X37554050Y46429295D01*
X37595016Y46442084D01*
X37647728Y46445362D01*
X37710088Y46436655D01*
G36*
X35819664Y51975724D02*
X35895213Y51574978D01*
X36452741Y51345146D01*
X36787165Y51572552D01*
X36880822Y51635869D01*
X36965482Y51692404D01*
X37037195Y51739573D01*
X37092011Y51774798D01*
X37125980Y51795495D01*
X37135230Y51799958D01*
X37151895Y51788480D01*
X37187506Y51756749D01*
X37238071Y51708817D01*
X37299600Y51648738D01*
X37368099Y51580567D01*
X37439579Y51508355D01*
X37510047Y51436158D01*
X37575511Y51368027D01*
X37631980Y51308017D01*
X37675463Y51260181D01*
X37701968Y51228573D01*
X37708305Y51217995D01*
X37699186Y51198494D01*
X37673620Y51155769D01*
X37634297Y51094002D01*
X37583903Y51017369D01*
X37525127Y50930052D01*
X37491068Y50880248D01*
X37428989Y50789307D01*
X37373826Y50707241D01*
X37328254Y50638137D01*
X37294950Y50586078D01*
X37276590Y50555150D01*
X37273831Y50548650D01*
X37280085Y50530179D01*
X37297134Y50487128D01*
X37322403Y50425551D01*
X37353322Y50351501D01*
X37387318Y50271030D01*
X37421818Y50190193D01*
X37454251Y50115042D01*
X37482043Y50051629D01*
X37502623Y50006007D01*
X37513419Y49984231D01*
X37514056Y49983374D01*
X37531007Y49979216D01*
X37576151Y49969939D01*
X37644810Y49956456D01*
X37732302Y49939679D01*
X37833950Y49920519D01*
X37893256Y49909470D01*
X38001872Y49888790D01*
X38099977Y49869111D01*
X38182609Y49851511D01*
X38244804Y49837067D01*
X38281599Y49826854D01*
X38288996Y49823614D01*
X38296240Y49801683D01*
X38302085Y49752153D01*
X38306535Y49680815D01*
X38309593Y49593461D01*
X38311265Y49495883D01*
X38311553Y49393874D01*
X38310461Y49293225D01*
X38307994Y49199728D01*
X38304156Y49119175D01*
X38298950Y49057358D01*
X38292381Y49020070D01*
X38288441Y49012307D01*
X38264888Y49003002D01*
X38214982Y48989700D01*
X38145323Y48973963D01*
X38062513Y48957354D01*
X38033605Y48951981D01*
X37894231Y48926452D01*
X37784136Y48905892D01*
X37699682Y48889485D01*
X37637230Y48876413D01*
X37593144Y48865859D01*
X37563785Y48857006D01*
X37545515Y48849037D01*
X37534698Y48841135D01*
X37533185Y48839573D01*
X37518077Y48814414D01*
X37495029Y48765450D01*
X37466344Y48698679D01*
X37434322Y48620095D01*
X37401265Y48535693D01*
X37369473Y48451470D01*
X37341249Y48373421D01*
X37318893Y48307541D01*
X37304707Y48259827D01*
X37300993Y48236273D01*
X37301302Y48235448D01*
X37313889Y48216196D01*
X37342444Y48173837D01*
X37383967Y48112779D01*
X37435456Y48037432D01*
X37493911Y47952204D01*
X37510558Y47927985D01*
X37569915Y47840177D01*
X37622147Y47760062D01*
X37664408Y47692238D01*
X37693853Y47641307D01*
X37707637Y47611869D01*
X37708305Y47608252D01*
X37696724Y47589243D01*
X37664724Y47551586D01*
X37616418Y47499327D01*
X37555920Y47436514D01*
X37487344Y47367194D01*
X37414804Y47295415D01*
X37342412Y47225223D01*
X37274284Y47160665D01*
X37214532Y47105790D01*
X37167271Y47064644D01*
X37136613Y47041274D01*
X37128132Y47037458D01*
X37108391Y47046445D01*
X37067974Y47070684D01*
X37013463Y47106091D01*
X36971523Y47134589D01*
X36895529Y47186882D01*
X36805534Y47248455D01*
X36715264Y47309930D01*
X36666732Y47342831D01*
X36502462Y47453941D01*
X36364569Y47379384D01*
X36301749Y47346722D01*
X36248329Y47321334D01*
X36212184Y47306854D01*
X36202984Y47304840D01*
X36191921Y47319716D01*
X36170094Y47361753D01*
X36139134Y47427073D01*
X36100670Y47511800D01*
X36056332Y47612055D01*
X36007747Y47723961D01*
X35956546Y47843641D01*
X35904359Y47967216D01*
X35852813Y48090809D01*
X35803540Y48210543D01*
X35758167Y48322541D01*
X35718325Y48422923D01*
X35685642Y48507814D01*
X35661749Y48573335D01*
X35648274Y48615610D01*
X35646106Y48630128D01*
X35663283Y48648647D01*
X35700890Y48678710D01*
X35751066Y48714068D01*
X35755278Y48716866D01*
X35884964Y48820675D01*
X35989534Y48941785D01*
X36068081Y49076324D01*
X36119699Y49220418D01*
X36143482Y49370195D01*
X36138523Y49521783D01*
X36103917Y49671308D01*
X36038757Y49814900D01*
X36019586Y49846316D01*
X35919874Y49973175D01*
X35802077Y50075045D01*
X35670271Y50151396D01*
X35528533Y50201698D01*
X35380942Y50225421D01*
X35231573Y50222035D01*
X35084503Y50191012D01*
X34943811Y50131820D01*
X34813573Y50043931D01*
X34773286Y50008258D01*
X34670755Y49896594D01*
X34596041Y49779043D01*
X34544790Y49647280D01*
X34516246Y49516793D01*
X34509200Y49370084D01*
X34532696Y49222647D01*
X34584349Y49079466D01*
X34661771Y48945523D01*
X34762575Y48825802D01*
X34884376Y48725286D01*
X34900384Y48714691D01*
X34951098Y48679994D01*
X34989650Y48649930D01*
X35008081Y48630735D01*
X35008349Y48630128D01*
X35004392Y48609364D01*
X34988707Y48562238D01*
X34962922Y48492627D01*
X34928669Y48404407D01*
X34887577Y48301456D01*
X34841276Y48187650D01*
X34791396Y48066865D01*
X34739567Y47942979D01*
X34687419Y47819868D01*
X34636582Y47701409D01*
X34588687Y47591477D01*
X34545362Y47493951D01*
X34508238Y47412707D01*
X34478944Y47351621D01*
X34459112Y47314570D01*
X34451126Y47304840D01*
X34426721Y47312417D01*
X34381058Y47332740D01*
X34322010Y47362175D01*
X34289540Y47379384D01*
X34151647Y47453941D01*
X33987377Y47342831D01*
X33903521Y47285910D01*
X33811713Y47223270D01*
X33725680Y47164289D01*
X33682587Y47134589D01*
X33621977Y47093890D01*
X33570655Y47061637D01*
X33535315Y47041916D01*
X33523837Y47037746D01*
X33507130Y47048993D01*
X33470154Y47080389D01*
X33416495Y47128676D01*
X33349738Y47190592D01*
X33273466Y47262879D01*
X33225227Y47309292D01*
X33140833Y47392213D01*
X33067897Y47466380D01*
X33009369Y47528620D01*
X32968197Y47575759D01*
X32947328Y47604627D01*
X32945326Y47610485D01*
X32954617Y47632768D01*
X32980291Y47677823D01*
X33019500Y47741089D01*
X33069397Y47818005D01*
X33127133Y47904008D01*
X33143551Y47927985D01*
X33203377Y48015130D01*
X33257050Y48093590D01*
X33301570Y48158955D01*
X33333935Y48206816D01*
X33351145Y48232765D01*
X33352807Y48235448D01*
X33350321Y48256128D01*
X33337123Y48301596D01*
X33315514Y48365856D01*
X33287796Y48442913D01*
X33256270Y48526771D01*
X33223237Y48611434D01*
X33190999Y48690908D01*
X33161857Y48759196D01*
X33138112Y48810303D01*
X33122065Y48838233D01*
X33120925Y48839573D01*
X33111112Y48847555D01*
X33094539Y48855449D01*
X33067568Y48864071D01*
X33026561Y48874238D01*
X32967880Y48886769D01*
X32887887Y48902479D01*
X32782945Y48922187D01*
X32649415Y48946708D01*
X32620504Y48951981D01*
X32534818Y48968536D01*
X32460118Y48984731D01*
X32403006Y48999004D01*
X32370083Y49009792D01*
X32365669Y49012307D01*
X32358394Y49034604D01*
X32352481Y49084431D01*
X32347934Y49155996D01*
X32344755Y49243507D01*
X32342951Y49341172D01*
X32342523Y49443199D01*
X32343477Y49543797D01*
X32345816Y49637173D01*
X32349544Y49717535D01*
X32354666Y49779091D01*
X32361184Y49816050D01*
X32365114Y49823614D01*
X32386992Y49831244D01*
X32436809Y49843658D01*
X32509603Y49859778D01*
X32600411Y49878527D01*
X32704269Y49898829D01*
X32760854Y49909470D01*
X32868214Y49929540D01*
X32963954Y49947720D01*
X33043394Y49963101D01*
X33101854Y49974769D01*
X33134655Y49981812D01*
X33140054Y49983374D01*
X33149178Y50000978D01*
X33168465Y50043382D01*
X33195345Y50104528D01*
X33227246Y50178357D01*
X33261598Y50258811D01*
X33295829Y50339832D01*
X33327369Y50415363D01*
X33353646Y50479345D01*
X33372089Y50525720D01*
X33380129Y50548431D01*
X33380278Y50549424D01*
X33371165Y50567339D01*
X33345614Y50608567D01*
X33306312Y50669009D01*
X33255943Y50744569D01*
X33197194Y50831148D01*
X33163042Y50880879D01*
X33100810Y50972064D01*
X33045536Y51054851D01*
X32999918Y51125051D01*
X32966652Y51178476D01*
X32948436Y51210939D01*
X32945805Y51218217D01*
X32957114Y51235155D01*
X32988381Y51271322D01*
X33035610Y51322665D01*
X33094808Y51385133D01*
X33161981Y51454674D01*
X33233134Y51527235D01*
X33304274Y51598765D01*
X33371407Y51665213D01*
X33430539Y51722526D01*
X33477675Y51766653D01*
X33508823Y51793541D01*
X33519243Y51799958D01*
X33536209Y51790935D01*
X33576789Y51765585D01*
X33637037Y51726490D01*
X33713007Y51676229D01*
X33800754Y51617383D01*
X33866944Y51572552D01*
X34201368Y51345146D01*
X34480133Y51460062D01*
X34758897Y51574978D01*
X34834446Y51975724D01*
X34909994Y52376471D01*
X35744115Y52376471D01*
X35819664Y51975724D01*
X35819664Y51975724D01*
G37*
X35819664Y51975724D02*
X35895213Y51574978D01*
X36452741Y51345146D01*
X36787165Y51572552D01*
X36880822Y51635869D01*
X36965482Y51692404D01*
X37037195Y51739573D01*
X37092011Y51774798D01*
X37125980Y51795495D01*
X37135230Y51799958D01*
X37151895Y51788480D01*
X37187506Y51756749D01*
X37238071Y51708817D01*
X37299600Y51648738D01*
X37368099Y51580567D01*
X37439579Y51508355D01*
X37510047Y51436158D01*
X37575511Y51368027D01*
X37631980Y51308017D01*
X37675463Y51260181D01*
X37701968Y51228573D01*
X37708305Y51217995D01*
X37699186Y51198494D01*
X37673620Y51155769D01*
X37634297Y51094002D01*
X37583903Y51017369D01*
X37525127Y50930052D01*
X37491068Y50880248D01*
X37428989Y50789307D01*
X37373826Y50707241D01*
X37328254Y50638137D01*
X37294950Y50586078D01*
X37276590Y50555150D01*
X37273831Y50548650D01*
X37280085Y50530179D01*
X37297134Y50487128D01*
X37322403Y50425551D01*
X37353322Y50351501D01*
X37387318Y50271030D01*
X37421818Y50190193D01*
X37454251Y50115042D01*
X37482043Y50051629D01*
X37502623Y50006007D01*
X37513419Y49984231D01*
X37514056Y49983374D01*
X37531007Y49979216D01*
X37576151Y49969939D01*
X37644810Y49956456D01*
X37732302Y49939679D01*
X37833950Y49920519D01*
X37893256Y49909470D01*
X38001872Y49888790D01*
X38099977Y49869111D01*
X38182609Y49851511D01*
X38244804Y49837067D01*
X38281599Y49826854D01*
X38288996Y49823614D01*
X38296240Y49801683D01*
X38302085Y49752153D01*
X38306535Y49680815D01*
X38309593Y49593461D01*
X38311265Y49495883D01*
X38311553Y49393874D01*
X38310461Y49293225D01*
X38307994Y49199728D01*
X38304156Y49119175D01*
X38298950Y49057358D01*
X38292381Y49020070D01*
X38288441Y49012307D01*
X38264888Y49003002D01*
X38214982Y48989700D01*
X38145323Y48973963D01*
X38062513Y48957354D01*
X38033605Y48951981D01*
X37894231Y48926452D01*
X37784136Y48905892D01*
X37699682Y48889485D01*
X37637230Y48876413D01*
X37593144Y48865859D01*
X37563785Y48857006D01*
X37545515Y48849037D01*
X37534698Y48841135D01*
X37533185Y48839573D01*
X37518077Y48814414D01*
X37495029Y48765450D01*
X37466344Y48698679D01*
X37434322Y48620095D01*
X37401265Y48535693D01*
X37369473Y48451470D01*
X37341249Y48373421D01*
X37318893Y48307541D01*
X37304707Y48259827D01*
X37300993Y48236273D01*
X37301302Y48235448D01*
X37313889Y48216196D01*
X37342444Y48173837D01*
X37383967Y48112779D01*
X37435456Y48037432D01*
X37493911Y47952204D01*
X37510558Y47927985D01*
X37569915Y47840177D01*
X37622147Y47760062D01*
X37664408Y47692238D01*
X37693853Y47641307D01*
X37707637Y47611869D01*
X37708305Y47608252D01*
X37696724Y47589243D01*
X37664724Y47551586D01*
X37616418Y47499327D01*
X37555920Y47436514D01*
X37487344Y47367194D01*
X37414804Y47295415D01*
X37342412Y47225223D01*
X37274284Y47160665D01*
X37214532Y47105790D01*
X37167271Y47064644D01*
X37136613Y47041274D01*
X37128132Y47037458D01*
X37108391Y47046445D01*
X37067974Y47070684D01*
X37013463Y47106091D01*
X36971523Y47134589D01*
X36895529Y47186882D01*
X36805534Y47248455D01*
X36715264Y47309930D01*
X36666732Y47342831D01*
X36502462Y47453941D01*
X36364569Y47379384D01*
X36301749Y47346722D01*
X36248329Y47321334D01*
X36212184Y47306854D01*
X36202984Y47304840D01*
X36191921Y47319716D01*
X36170094Y47361753D01*
X36139134Y47427073D01*
X36100670Y47511800D01*
X36056332Y47612055D01*
X36007747Y47723961D01*
X35956546Y47843641D01*
X35904359Y47967216D01*
X35852813Y48090809D01*
X35803540Y48210543D01*
X35758167Y48322541D01*
X35718325Y48422923D01*
X35685642Y48507814D01*
X35661749Y48573335D01*
X35648274Y48615610D01*
X35646106Y48630128D01*
X35663283Y48648647D01*
X35700890Y48678710D01*
X35751066Y48714068D01*
X35755278Y48716866D01*
X35884964Y48820675D01*
X35989534Y48941785D01*
X36068081Y49076324D01*
X36119699Y49220418D01*
X36143482Y49370195D01*
X36138523Y49521783D01*
X36103917Y49671308D01*
X36038757Y49814900D01*
X36019586Y49846316D01*
X35919874Y49973175D01*
X35802077Y50075045D01*
X35670271Y50151396D01*
X35528533Y50201698D01*
X35380942Y50225421D01*
X35231573Y50222035D01*
X35084503Y50191012D01*
X34943811Y50131820D01*
X34813573Y50043931D01*
X34773286Y50008258D01*
X34670755Y49896594D01*
X34596041Y49779043D01*
X34544790Y49647280D01*
X34516246Y49516793D01*
X34509200Y49370084D01*
X34532696Y49222647D01*
X34584349Y49079466D01*
X34661771Y48945523D01*
X34762575Y48825802D01*
X34884376Y48725286D01*
X34900384Y48714691D01*
X34951098Y48679994D01*
X34989650Y48649930D01*
X35008081Y48630735D01*
X35008349Y48630128D01*
X35004392Y48609364D01*
X34988707Y48562238D01*
X34962922Y48492627D01*
X34928669Y48404407D01*
X34887577Y48301456D01*
X34841276Y48187650D01*
X34791396Y48066865D01*
X34739567Y47942979D01*
X34687419Y47819868D01*
X34636582Y47701409D01*
X34588687Y47591477D01*
X34545362Y47493951D01*
X34508238Y47412707D01*
X34478944Y47351621D01*
X34459112Y47314570D01*
X34451126Y47304840D01*
X34426721Y47312417D01*
X34381058Y47332740D01*
X34322010Y47362175D01*
X34289540Y47379384D01*
X34151647Y47453941D01*
X33987377Y47342831D01*
X33903521Y47285910D01*
X33811713Y47223270D01*
X33725680Y47164289D01*
X33682587Y47134589D01*
X33621977Y47093890D01*
X33570655Y47061637D01*
X33535315Y47041916D01*
X33523837Y47037746D01*
X33507130Y47048993D01*
X33470154Y47080389D01*
X33416495Y47128676D01*
X33349738Y47190592D01*
X33273466Y47262879D01*
X33225227Y47309292D01*
X33140833Y47392213D01*
X33067897Y47466380D01*
X33009369Y47528620D01*
X32968197Y47575759D01*
X32947328Y47604627D01*
X32945326Y47610485D01*
X32954617Y47632768D01*
X32980291Y47677823D01*
X33019500Y47741089D01*
X33069397Y47818005D01*
X33127133Y47904008D01*
X33143551Y47927985D01*
X33203377Y48015130D01*
X33257050Y48093590D01*
X33301570Y48158955D01*
X33333935Y48206816D01*
X33351145Y48232765D01*
X33352807Y48235448D01*
X33350321Y48256128D01*
X33337123Y48301596D01*
X33315514Y48365856D01*
X33287796Y48442913D01*
X33256270Y48526771D01*
X33223237Y48611434D01*
X33190999Y48690908D01*
X33161857Y48759196D01*
X33138112Y48810303D01*
X33122065Y48838233D01*
X33120925Y48839573D01*
X33111112Y48847555D01*
X33094539Y48855449D01*
X33067568Y48864071D01*
X33026561Y48874238D01*
X32967880Y48886769D01*
X32887887Y48902479D01*
X32782945Y48922187D01*
X32649415Y48946708D01*
X32620504Y48951981D01*
X32534818Y48968536D01*
X32460118Y48984731D01*
X32403006Y48999004D01*
X32370083Y49009792D01*
X32365669Y49012307D01*
X32358394Y49034604D01*
X32352481Y49084431D01*
X32347934Y49155996D01*
X32344755Y49243507D01*
X32342951Y49341172D01*
X32342523Y49443199D01*
X32343477Y49543797D01*
X32345816Y49637173D01*
X32349544Y49717535D01*
X32354666Y49779091D01*
X32361184Y49816050D01*
X32365114Y49823614D01*
X32386992Y49831244D01*
X32436809Y49843658D01*
X32509603Y49859778D01*
X32600411Y49878527D01*
X32704269Y49898829D01*
X32760854Y49909470D01*
X32868214Y49929540D01*
X32963954Y49947720D01*
X33043394Y49963101D01*
X33101854Y49974769D01*
X33134655Y49981812D01*
X33140054Y49983374D01*
X33149178Y50000978D01*
X33168465Y50043382D01*
X33195345Y50104528D01*
X33227246Y50178357D01*
X33261598Y50258811D01*
X33295829Y50339832D01*
X33327369Y50415363D01*
X33353646Y50479345D01*
X33372089Y50525720D01*
X33380129Y50548431D01*
X33380278Y50549424D01*
X33371165Y50567339D01*
X33345614Y50608567D01*
X33306312Y50669009D01*
X33255943Y50744569D01*
X33197194Y50831148D01*
X33163042Y50880879D01*
X33100810Y50972064D01*
X33045536Y51054851D01*
X32999918Y51125051D01*
X32966652Y51178476D01*
X32948436Y51210939D01*
X32945805Y51218217D01*
X32957114Y51235155D01*
X32988381Y51271322D01*
X33035610Y51322665D01*
X33094808Y51385133D01*
X33161981Y51454674D01*
X33233134Y51527235D01*
X33304274Y51598765D01*
X33371407Y51665213D01*
X33430539Y51722526D01*
X33477675Y51766653D01*
X33508823Y51793541D01*
X33519243Y51799958D01*
X33536209Y51790935D01*
X33576789Y51765585D01*
X33637037Y51726490D01*
X33713007Y51676229D01*
X33800754Y51617383D01*
X33866944Y51572552D01*
X34201368Y51345146D01*
X34480133Y51460062D01*
X34758897Y51574978D01*
X34834446Y51975724D01*
X34909994Y52376471D01*
X35744115Y52376471D01*
X35819664Y51975724D01*
D10*
X29775161Y64831981D02*
X29679923Y64879600D01*
X29584685Y64974839D01*
X29441828Y65117696D01*
X29346590Y65165315D01*
X29251352Y65165315D01*
X29298971Y64927220D02*
X29203733Y64974839D01*
X29108495Y65070077D01*
X29060876Y65260553D01*
X29060876Y65593886D01*
X29108495Y65784362D01*
X29203733Y65879600D01*
X29298971Y65927220D01*
X29489447Y65927220D01*
X29584685Y65879600D01*
X29679923Y65784362D01*
X29727542Y65593886D01*
X29727542Y65260553D01*
X29679923Y65070077D01*
X29584685Y64974839D01*
X29489447Y64927220D01*
X29298971Y64927220D01*
X30060876Y65927220D02*
X30679923Y65927220D01*
X30346590Y65546267D01*
X30489447Y65546267D01*
X30584685Y65498648D01*
X30632304Y65451029D01*
X30679923Y65355791D01*
X30679923Y65117696D01*
X30632304Y65022458D01*
X30584685Y64974839D01*
X30489447Y64927220D01*
X30203733Y64927220D01*
X30108495Y64974839D01*
X30060876Y65022458D01*
X18896033Y47528220D02*
X18419842Y47528220D01*
X18419842Y48528220D01*
X19753176Y47528220D02*
X19181747Y47528220D01*
X19467461Y47528220D02*
X19467461Y48528220D01*
X19372223Y48385362D01*
X19276985Y48290124D01*
X19181747Y48242505D01*
X51682661Y61974481D02*
X51587423Y62022100D01*
X51492185Y62117339D01*
X51349328Y62260196D01*
X51254090Y62307815D01*
X51158852Y62307815D01*
X51206471Y62069720D02*
X51111233Y62117339D01*
X51015995Y62212577D01*
X50968376Y62403053D01*
X50968376Y62736386D01*
X51015995Y62926862D01*
X51111233Y63022100D01*
X51206471Y63069720D01*
X51396947Y63069720D01*
X51492185Y63022100D01*
X51587423Y62926862D01*
X51635042Y62736386D01*
X51635042Y62403053D01*
X51587423Y62212577D01*
X51492185Y62117339D01*
X51396947Y62069720D01*
X51206471Y62069720D01*
X52587423Y62069720D02*
X52015995Y62069720D01*
X52301709Y62069720D02*
X52301709Y63069720D01*
X52206471Y62926862D01*
X52111233Y62831624D01*
X52015995Y62784005D01*
X40786061Y62050681D02*
X40690823Y62098300D01*
X40595585Y62193539D01*
X40452728Y62336396D01*
X40357490Y62384015D01*
X40262252Y62384015D01*
X40309871Y62145920D02*
X40214633Y62193539D01*
X40119395Y62288777D01*
X40071776Y62479253D01*
X40071776Y62812586D01*
X40119395Y63003062D01*
X40214633Y63098300D01*
X40309871Y63145920D01*
X40500347Y63145920D01*
X40595585Y63098300D01*
X40690823Y63003062D01*
X40738442Y62812586D01*
X40738442Y62479253D01*
X40690823Y62288777D01*
X40595585Y62193539D01*
X40500347Y62145920D01*
X40309871Y62145920D01*
X41119395Y63050681D02*
X41167014Y63098300D01*
X41262252Y63145920D01*
X41500347Y63145920D01*
X41595585Y63098300D01*
X41643204Y63050681D01*
X41690823Y62955443D01*
X41690823Y62860205D01*
X41643204Y62717348D01*
X41071776Y62145920D01*
X41690823Y62145920D01*
X23375880Y7574043D02*
X22899690Y7240710D01*
X23375880Y7002615D02*
X22375880Y7002615D01*
X22375880Y7383567D01*
X22423500Y7478805D01*
X22471119Y7526424D01*
X22566357Y7574043D01*
X22709214Y7574043D01*
X22804452Y7526424D01*
X22852071Y7478805D01*
X22899690Y7383567D01*
X22899690Y7002615D01*
X23375880Y8526424D02*
X23375880Y7954996D01*
X23375880Y8240710D02*
X22375880Y8240710D01*
X22518738Y8145472D01*
X22613976Y8050234D01*
X22661595Y7954996D01*
X23375880Y9002615D02*
X23375880Y9193091D01*
X23328261Y9288329D01*
X23280642Y9335948D01*
X23137785Y9431186D01*
X22947309Y9478805D01*
X22566357Y9478805D01*
X22471119Y9431186D01*
X22423500Y9383567D01*
X22375880Y9288329D01*
X22375880Y9097853D01*
X22423500Y9002615D01*
X22471119Y8954996D01*
X22566357Y8907377D01*
X22804452Y8907377D01*
X22899690Y8954996D01*
X22947309Y9002615D01*
X22994928Y9097853D01*
X22994928Y9288329D01*
X22947309Y9383567D01*
X22899690Y9431186D01*
X22804452Y9478805D01*
X49598366Y31954720D02*
X49598366Y31240434D01*
X49550747Y31097577D01*
X49455509Y31002339D01*
X49312652Y30954720D01*
X49217414Y30954720D01*
X50074557Y30954720D02*
X50074557Y31954720D01*
X50455509Y31954720D01*
X50550747Y31907100D01*
X50598366Y31859481D01*
X50645985Y31764243D01*
X50645985Y31621386D01*
X50598366Y31526148D01*
X50550747Y31478529D01*
X50455509Y31430910D01*
X50074557Y31430910D01*
X51598366Y30954720D02*
X51026938Y30954720D01*
X51312652Y30954720D02*
X51312652Y31954720D01*
X51217414Y31811862D01*
X51122176Y31716624D01*
X51026938Y31669005D01*
X49896804Y40467020D02*
X49896804Y41467020D01*
X50277757Y41467020D01*
X50372995Y41419400D01*
X50420614Y41371781D01*
X50468233Y41276543D01*
X50468233Y41133686D01*
X50420614Y41038448D01*
X50372995Y40990829D01*
X50277757Y40943210D01*
X49896804Y40943210D01*
X50849185Y41371781D02*
X50896804Y41419400D01*
X50992042Y41467020D01*
X51230138Y41467020D01*
X51325376Y41419400D01*
X51372995Y41371781D01*
X51420614Y41276543D01*
X51420614Y41181305D01*
X51372995Y41038448D01*
X50801566Y40467020D01*
X51420614Y40467020D01*
X9255166Y69007029D02*
X8921833Y69007029D01*
X8921833Y68483220D02*
X8921833Y69483220D01*
X9398023Y69483220D01*
X10302785Y68483220D02*
X9731357Y68483220D01*
X10017071Y68483220D02*
X10017071Y69483220D01*
X9921833Y69340362D01*
X9826595Y69245124D01*
X9731357Y69197505D01*
X51101666Y65908229D02*
X50768333Y65908229D01*
X50768333Y65384420D02*
X50768333Y66384420D01*
X51244523Y66384420D01*
X51577857Y66289181D02*
X51625476Y66336800D01*
X51720714Y66384420D01*
X51958809Y66384420D01*
X52054047Y66336800D01*
X52101666Y66289181D01*
X52149285Y66193943D01*
X52149285Y66098705D01*
X52101666Y65955848D01*
X51530238Y65384420D01*
X52149285Y65384420D01*
X49623766Y11368020D02*
X49623766Y10653734D01*
X49576147Y10510877D01*
X49480909Y10415639D01*
X49338052Y10368020D01*
X49242814Y10368020D01*
X50099957Y10368020D02*
X50099957Y11368020D01*
X50480909Y11368020D01*
X50576147Y11320400D01*
X50623766Y11272781D01*
X50671385Y11177543D01*
X50671385Y11034686D01*
X50623766Y10939448D01*
X50576147Y10891829D01*
X50480909Y10844210D01*
X50099957Y10844210D01*
X51052338Y11272781D02*
X51099957Y11320400D01*
X51195195Y11368020D01*
X51433290Y11368020D01*
X51528528Y11320400D01*
X51576147Y11272781D01*
X51623766Y11177543D01*
X51623766Y11082305D01*
X51576147Y10939448D01*
X51004719Y10368020D01*
X51623766Y10368020D01*
X26522466Y10885420D02*
X26522466Y10171134D01*
X26474847Y10028277D01*
X26379609Y9933039D01*
X26236752Y9885420D01*
X26141514Y9885420D01*
X26998657Y9885420D02*
X26998657Y10885420D01*
X27379609Y10885420D01*
X27474847Y10837800D01*
X27522466Y10790181D01*
X27570085Y10694943D01*
X27570085Y10552086D01*
X27522466Y10456848D01*
X27474847Y10409229D01*
X27379609Y10361610D01*
X26998657Y10361610D01*
X27903419Y10885420D02*
X28522466Y10885420D01*
X28189133Y10504467D01*
X28331990Y10504467D01*
X28427228Y10456848D01*
X28474847Y10409229D01*
X28522466Y10313991D01*
X28522466Y10075896D01*
X28474847Y9980658D01*
X28427228Y9933039D01*
X28331990Y9885420D01*
X28046276Y9885420D01*
X27951038Y9933039D01*
X27903419Y9980658D01*
X26522466Y31522920D02*
X26522466Y30808634D01*
X26474847Y30665777D01*
X26379609Y30570539D01*
X26236752Y30522920D01*
X26141514Y30522920D01*
X26998657Y30522920D02*
X26998657Y31522920D01*
X27379609Y31522920D01*
X27474847Y31475300D01*
X27522466Y31427681D01*
X27570085Y31332443D01*
X27570085Y31189586D01*
X27522466Y31094348D01*
X27474847Y31046729D01*
X27379609Y30999110D01*
X26998657Y30999110D01*
X28427228Y31189586D02*
X28427228Y30522920D01*
X28189133Y31570539D02*
X27951038Y30856253D01*
X28570085Y30856253D01*
X65016142Y60048620D02*
X64682809Y60524810D01*
X64444714Y60048620D02*
X64444714Y61048620D01*
X64825666Y61048620D01*
X64920904Y61001000D01*
X64968523Y60953381D01*
X65016142Y60858143D01*
X65016142Y60715286D01*
X64968523Y60620048D01*
X64920904Y60572429D01*
X64825666Y60524810D01*
X64444714Y60524810D01*
X65968523Y60048620D02*
X65397095Y60048620D01*
X65682809Y60048620D02*
X65682809Y61048620D01*
X65587571Y60905762D01*
X65492333Y60810524D01*
X65397095Y60762905D01*
X66825666Y60715286D02*
X66825666Y60048620D01*
X66587571Y61096239D02*
X66349476Y60381953D01*
X66968523Y60381953D01*
X65003442Y49153820D02*
X64670109Y49630010D01*
X64432014Y49153820D02*
X64432014Y50153820D01*
X64812966Y50153820D01*
X64908204Y50106200D01*
X64955823Y50058581D01*
X65003442Y49963343D01*
X65003442Y49820486D01*
X64955823Y49725248D01*
X64908204Y49677629D01*
X64812966Y49630010D01*
X64432014Y49630010D01*
X65955823Y49153820D02*
X65384395Y49153820D01*
X65670109Y49153820D02*
X65670109Y50153820D01*
X65574871Y50010962D01*
X65479633Y49915724D01*
X65384395Y49868105D01*
X66860585Y50153820D02*
X66384395Y50153820D01*
X66336776Y49677629D01*
X66384395Y49725248D01*
X66479633Y49772867D01*
X66717728Y49772867D01*
X66812966Y49725248D01*
X66860585Y49677629D01*
X66908204Y49582391D01*
X66908204Y49344296D01*
X66860585Y49249058D01*
X66812966Y49201439D01*
X66717728Y49153820D01*
X66479633Y49153820D01*
X66384395Y49201439D01*
X66336776Y49249058D01*
X43210242Y64965320D02*
X42876909Y65441510D01*
X42638814Y64965320D02*
X42638814Y65965320D01*
X43019766Y65965320D01*
X43115004Y65917700D01*
X43162623Y65870081D01*
X43210242Y65774843D01*
X43210242Y65631986D01*
X43162623Y65536748D01*
X43115004Y65489129D01*
X43019766Y65441510D01*
X42638814Y65441510D01*
X44162623Y64965320D02*
X43591195Y64965320D01*
X43876909Y64965320D02*
X43876909Y65965320D01*
X43781671Y65822462D01*
X43686433Y65727224D01*
X43591195Y65679605D01*
X45019766Y65965320D02*
X44829290Y65965320D01*
X44734052Y65917700D01*
X44686433Y65870081D01*
X44591195Y65727224D01*
X44543576Y65536748D01*
X44543576Y65155796D01*
X44591195Y65060558D01*
X44638814Y65012939D01*
X44734052Y64965320D01*
X44924528Y64965320D01*
X45019766Y65012939D01*
X45067385Y65060558D01*
X45115004Y65155796D01*
X45115004Y65393891D01*
X45067385Y65489129D01*
X45019766Y65536748D01*
X44924528Y65584367D01*
X44734052Y65584367D01*
X44638814Y65536748D01*
X44591195Y65489129D01*
X44543576Y65393891D01*
X58735933Y64355720D02*
X58402600Y64831910D01*
X58164504Y64355720D02*
X58164504Y65355720D01*
X58545457Y65355720D01*
X58640695Y65308100D01*
X58688314Y65260481D01*
X58735933Y65165243D01*
X58735933Y65022386D01*
X58688314Y64927148D01*
X58640695Y64879529D01*
X58545457Y64831910D01*
X58164504Y64831910D01*
X59069266Y65355720D02*
X59735933Y65355720D01*
X59307361Y64355720D01*
X21254980Y65613043D02*
X20778790Y65279710D01*
X21254980Y65041615D02*
X20254980Y65041615D01*
X20254980Y65422567D01*
X20302600Y65517805D01*
X20350219Y65565424D01*
X20445457Y65613043D01*
X20588314Y65613043D01*
X20683552Y65565424D01*
X20731171Y65517805D01*
X20778790Y65422567D01*
X20778790Y65041615D01*
X21254980Y66565424D02*
X21254980Y65993996D01*
X21254980Y66279710D02*
X20254980Y66279710D01*
X20397838Y66184472D01*
X20493076Y66089234D01*
X20540695Y65993996D01*
X20254980Y66898758D02*
X20254980Y67517805D01*
X20635933Y67184472D01*
X20635933Y67327329D01*
X20683552Y67422567D01*
X20731171Y67470186D01*
X20826409Y67517805D01*
X21064504Y67517805D01*
X21159742Y67470186D01*
X21207361Y67422567D01*
X21254980Y67327329D01*
X21254980Y67041615D01*
X21207361Y66946377D01*
X21159742Y66898758D01*
X8463042Y61650620D02*
X8129709Y62126810D01*
X7891614Y61650620D02*
X7891614Y62650620D01*
X8272566Y62650620D01*
X8367804Y62603000D01*
X8415423Y62555381D01*
X8463042Y62460143D01*
X8463042Y62317286D01*
X8415423Y62222048D01*
X8367804Y62174429D01*
X8272566Y62126810D01*
X7891614Y62126810D01*
X9415423Y61650620D02*
X8843995Y61650620D01*
X9129709Y61650620D02*
X9129709Y62650620D01*
X9034471Y62507762D01*
X8939233Y62412524D01*
X8843995Y62364905D01*
X9796376Y62555381D02*
X9843995Y62603000D01*
X9939233Y62650620D01*
X10177328Y62650620D01*
X10272566Y62603000D01*
X10320185Y62555381D01*
X10367804Y62460143D01*
X10367804Y62364905D01*
X10320185Y62222048D01*
X9748757Y61650620D01*
X10367804Y61650620D01*
X61275933Y64355720D02*
X60942600Y64831910D01*
X60704504Y64355720D02*
X60704504Y65355720D01*
X61085457Y65355720D01*
X61180695Y65308100D01*
X61228314Y65260481D01*
X61275933Y65165243D01*
X61275933Y65022386D01*
X61228314Y64927148D01*
X61180695Y64879529D01*
X61085457Y64831910D01*
X60704504Y64831910D01*
X61847361Y64927148D02*
X61752123Y64974767D01*
X61704504Y65022386D01*
X61656885Y65117624D01*
X61656885Y65165243D01*
X61704504Y65260481D01*
X61752123Y65308100D01*
X61847361Y65355720D01*
X62037838Y65355720D01*
X62133076Y65308100D01*
X62180695Y65260481D01*
X62228314Y65165243D01*
X62228314Y65117624D01*
X62180695Y65022386D01*
X62133076Y64974767D01*
X62037838Y64927148D01*
X61847361Y64927148D01*
X61752123Y64879529D01*
X61704504Y64831910D01*
X61656885Y64736672D01*
X61656885Y64546196D01*
X61704504Y64450958D01*
X61752123Y64403339D01*
X61847361Y64355720D01*
X62037838Y64355720D01*
X62133076Y64403339D01*
X62180695Y64450958D01*
X62228314Y64546196D01*
X62228314Y64736672D01*
X62180695Y64831910D01*
X62133076Y64879529D01*
X62037838Y64927148D01*
X9479042Y67137020D02*
X9145709Y67613210D01*
X8907614Y67137020D02*
X8907614Y68137020D01*
X9288566Y68137020D01*
X9383804Y68089400D01*
X9431423Y68041781D01*
X9479042Y67946543D01*
X9479042Y67803686D01*
X9431423Y67708448D01*
X9383804Y67660829D01*
X9288566Y67613210D01*
X8907614Y67613210D01*
X10431423Y67137020D02*
X9859995Y67137020D01*
X10145709Y67137020D02*
X10145709Y68137020D01*
X10050471Y67994162D01*
X9955233Y67898924D01*
X9859995Y67851305D01*
X11383804Y67137020D02*
X10812376Y67137020D01*
X11098090Y67137020D02*
X11098090Y68137020D01*
X11002852Y67994162D01*
X10907614Y67898924D01*
X10812376Y67851305D01*
X56221333Y64355720D02*
X55888000Y64831910D01*
X55649904Y64355720D02*
X55649904Y65355720D01*
X56030857Y65355720D01*
X56126095Y65308100D01*
X56173714Y65260481D01*
X56221333Y65165243D01*
X56221333Y65022386D01*
X56173714Y64927148D01*
X56126095Y64879529D01*
X56030857Y64831910D01*
X55649904Y64831910D01*
X57078476Y65355720D02*
X56888000Y65355720D01*
X56792761Y65308100D01*
X56745142Y65260481D01*
X56649904Y65117624D01*
X56602285Y64927148D01*
X56602285Y64546196D01*
X56649904Y64450958D01*
X56697523Y64403339D01*
X56792761Y64355720D01*
X56983238Y64355720D01*
X57078476Y64403339D01*
X57126095Y64450958D01*
X57173714Y64546196D01*
X57173714Y64784291D01*
X57126095Y64879529D01*
X57078476Y64927148D01*
X56983238Y64974767D01*
X56792761Y64974767D01*
X56697523Y64927148D01*
X56649904Y64879529D01*
X56602285Y64784291D01*
X46504380Y3262334D02*
X46028190Y2929000D01*
X46504380Y2690905D02*
X45504380Y2690905D01*
X45504380Y3071858D01*
X45552000Y3167096D01*
X45599619Y3214715D01*
X45694857Y3262334D01*
X45837714Y3262334D01*
X45932952Y3214715D01*
X45980571Y3167096D01*
X46028190Y3071858D01*
X46028190Y2690905D01*
X45504380Y4167096D02*
X45504380Y3690905D01*
X45980571Y3643286D01*
X45932952Y3690905D01*
X45885333Y3786143D01*
X45885333Y4024239D01*
X45932952Y4119477D01*
X45980571Y4167096D01*
X46075809Y4214715D01*
X46313904Y4214715D01*
X46409142Y4167096D01*
X46456761Y4119477D01*
X46504380Y4024239D01*
X46504380Y3786143D01*
X46456761Y3690905D01*
X46409142Y3643286D01*
X48899842Y54703720D02*
X48566509Y55179910D01*
X48328414Y54703720D02*
X48328414Y55703720D01*
X48709366Y55703720D01*
X48804604Y55656100D01*
X48852223Y55608481D01*
X48899842Y55513243D01*
X48899842Y55370386D01*
X48852223Y55275148D01*
X48804604Y55227529D01*
X48709366Y55179910D01*
X48328414Y55179910D01*
X49852223Y54703720D02*
X49280795Y54703720D01*
X49566509Y54703720D02*
X49566509Y55703720D01*
X49471271Y55560862D01*
X49376033Y55465624D01*
X49280795Y55418005D01*
X50185557Y55703720D02*
X50852223Y55703720D01*
X50423652Y54703720D01*
X44086542Y54678320D02*
X43753209Y55154510D01*
X43515114Y54678320D02*
X43515114Y55678320D01*
X43896066Y55678320D01*
X43991304Y55630700D01*
X44038923Y55583081D01*
X44086542Y55487843D01*
X44086542Y55344986D01*
X44038923Y55249748D01*
X43991304Y55202129D01*
X43896066Y55154510D01*
X43515114Y55154510D01*
X45038923Y54678320D02*
X44467495Y54678320D01*
X44753209Y54678320D02*
X44753209Y55678320D01*
X44657971Y55535462D01*
X44562733Y55440224D01*
X44467495Y55392605D01*
X45610352Y55249748D02*
X45515114Y55297367D01*
X45467495Y55344986D01*
X45419876Y55440224D01*
X45419876Y55487843D01*
X45467495Y55583081D01*
X45515114Y55630700D01*
X45610352Y55678320D01*
X45800828Y55678320D01*
X45896066Y55630700D01*
X45943685Y55583081D01*
X45991304Y55487843D01*
X45991304Y55440224D01*
X45943685Y55344986D01*
X45896066Y55297367D01*
X45800828Y55249748D01*
X45610352Y55249748D01*
X45515114Y55202129D01*
X45467495Y55154510D01*
X45419876Y55059272D01*
X45419876Y54868796D01*
X45467495Y54773558D01*
X45515114Y54725939D01*
X45610352Y54678320D01*
X45800828Y54678320D01*
X45896066Y54725939D01*
X45943685Y54773558D01*
X45991304Y54868796D01*
X45991304Y55059272D01*
X45943685Y55154510D01*
X45896066Y55202129D01*
X45800828Y55249748D01*
X23413980Y28427443D02*
X22937790Y28094110D01*
X23413980Y27856015D02*
X22413980Y27856015D01*
X22413980Y28236967D01*
X22461600Y28332205D01*
X22509219Y28379824D01*
X22604457Y28427443D01*
X22747314Y28427443D01*
X22842552Y28379824D01*
X22890171Y28332205D01*
X22937790Y28236967D01*
X22937790Y27856015D01*
X22509219Y28808396D02*
X22461600Y28856015D01*
X22413980Y28951253D01*
X22413980Y29189348D01*
X22461600Y29284586D01*
X22509219Y29332205D01*
X22604457Y29379824D01*
X22699695Y29379824D01*
X22842552Y29332205D01*
X23413980Y28760777D01*
X23413980Y29379824D01*
X22413980Y29998872D02*
X22413980Y30094110D01*
X22461600Y30189348D01*
X22509219Y30236967D01*
X22604457Y30284586D01*
X22794933Y30332205D01*
X23033028Y30332205D01*
X23223504Y30284586D01*
X23318742Y30236967D01*
X23366361Y30189348D01*
X23413980Y30094110D01*
X23413980Y29998872D01*
X23366361Y29903634D01*
X23318742Y29856015D01*
X23223504Y29808396D01*
X23033028Y29760777D01*
X22794933Y29760777D01*
X22604457Y29808396D01*
X22509219Y29856015D01*
X22461600Y29903634D01*
X22413980Y29998872D01*
X66260742Y64368420D02*
X65927409Y64844610D01*
X65689314Y64368420D02*
X65689314Y65368420D01*
X66070266Y65368420D01*
X66165504Y65320800D01*
X66213123Y65273181D01*
X66260742Y65177943D01*
X66260742Y65035086D01*
X66213123Y64939848D01*
X66165504Y64892229D01*
X66070266Y64844610D01*
X65689314Y64844610D01*
X67213123Y64368420D02*
X66641695Y64368420D01*
X66927409Y64368420D02*
X66927409Y65368420D01*
X66832171Y65225562D01*
X66736933Y65130324D01*
X66641695Y65082705D01*
X67832171Y65368420D02*
X67927409Y65368420D01*
X68022647Y65320800D01*
X68070266Y65273181D01*
X68117885Y65177943D01*
X68165504Y64987467D01*
X68165504Y64749372D01*
X68117885Y64558896D01*
X68070266Y64463658D01*
X68022647Y64416039D01*
X67927409Y64368420D01*
X67832171Y64368420D01*
X67736933Y64416039D01*
X67689314Y64463658D01*
X67641695Y64558896D01*
X67594076Y64749372D01*
X67594076Y64987467D01*
X67641695Y65177943D01*
X67689314Y65273181D01*
X67736933Y65320800D01*
X67832171Y65368420D01*
X63841333Y64368420D02*
X63508000Y64844610D01*
X63269904Y64368420D02*
X63269904Y65368420D01*
X63650857Y65368420D01*
X63746095Y65320800D01*
X63793714Y65273181D01*
X63841333Y65177943D01*
X63841333Y65035086D01*
X63793714Y64939848D01*
X63746095Y64892229D01*
X63650857Y64844610D01*
X63269904Y64844610D01*
X64317523Y64368420D02*
X64508000Y64368420D01*
X64603238Y64416039D01*
X64650857Y64463658D01*
X64746095Y64606515D01*
X64793714Y64796991D01*
X64793714Y65177943D01*
X64746095Y65273181D01*
X64698476Y65320800D01*
X64603238Y65368420D01*
X64412761Y65368420D01*
X64317523Y65320800D01*
X64269904Y65273181D01*
X64222285Y65177943D01*
X64222285Y64939848D01*
X64269904Y64844610D01*
X64317523Y64796991D01*
X64412761Y64749372D01*
X64603238Y64749372D01*
X64698476Y64796991D01*
X64746095Y64844610D01*
X64793714Y64939848D01*
X23390380Y2786143D02*
X22914190Y2452810D01*
X23390380Y2214715D02*
X22390380Y2214715D01*
X22390380Y2595667D01*
X22438000Y2690905D01*
X22485619Y2738524D01*
X22580857Y2786143D01*
X22723714Y2786143D01*
X22818952Y2738524D01*
X22866571Y2690905D01*
X22914190Y2595667D01*
X22914190Y2214715D01*
X22485619Y3167096D02*
X22438000Y3214715D01*
X22390380Y3309953D01*
X22390380Y3548048D01*
X22438000Y3643286D01*
X22485619Y3690905D01*
X22580857Y3738524D01*
X22676095Y3738524D01*
X22818952Y3690905D01*
X23390380Y3119477D01*
X23390380Y3738524D01*
X23390380Y4690905D02*
X23390380Y4119477D01*
X23390380Y4405191D02*
X22390380Y4405191D01*
X22533238Y4309953D01*
X22628476Y4214715D01*
X22676095Y4119477D01*
X23390380Y23868143D02*
X22914190Y23534810D01*
X23390380Y23296715D02*
X22390380Y23296715D01*
X22390380Y23677667D01*
X22438000Y23772905D01*
X22485619Y23820524D01*
X22580857Y23868143D01*
X22723714Y23868143D01*
X22818952Y23820524D01*
X22866571Y23772905D01*
X22914190Y23677667D01*
X22914190Y23296715D01*
X22485619Y24249096D02*
X22438000Y24296715D01*
X22390380Y24391953D01*
X22390380Y24630048D01*
X22438000Y24725286D01*
X22485619Y24772905D01*
X22580857Y24820524D01*
X22676095Y24820524D01*
X22818952Y24772905D01*
X23390380Y24201477D01*
X23390380Y24820524D01*
X22485619Y25201477D02*
X22438000Y25249096D01*
X22390380Y25344334D01*
X22390380Y25582429D01*
X22438000Y25677667D01*
X22485619Y25725286D01*
X22580857Y25772905D01*
X22676095Y25772905D01*
X22818952Y25725286D01*
X23390380Y25153858D01*
X23390380Y25772905D01*
X32580342Y64927220D02*
X32247009Y65403410D01*
X32008914Y64927220D02*
X32008914Y65927220D01*
X32389866Y65927220D01*
X32485104Y65879600D01*
X32532723Y65831981D01*
X32580342Y65736743D01*
X32580342Y65593886D01*
X32532723Y65498648D01*
X32485104Y65451029D01*
X32389866Y65403410D01*
X32008914Y65403410D01*
X32961295Y65831981D02*
X33008914Y65879600D01*
X33104152Y65927220D01*
X33342247Y65927220D01*
X33437485Y65879600D01*
X33485104Y65831981D01*
X33532723Y65736743D01*
X33532723Y65641505D01*
X33485104Y65498648D01*
X32913676Y64927220D01*
X33532723Y64927220D01*
X33866057Y65927220D02*
X34485104Y65927220D01*
X34151771Y65546267D01*
X34294628Y65546267D01*
X34389866Y65498648D01*
X34437485Y65451029D01*
X34485104Y65355791D01*
X34485104Y65117696D01*
X34437485Y65022458D01*
X34389866Y64974839D01*
X34294628Y64927220D01*
X34008914Y64927220D01*
X33913676Y64974839D01*
X33866057Y65022458D01*
X38231842Y54741820D02*
X37898509Y55218010D01*
X37660414Y54741820D02*
X37660414Y55741820D01*
X38041366Y55741820D01*
X38136604Y55694200D01*
X38184223Y55646581D01*
X38231842Y55551343D01*
X38231842Y55408486D01*
X38184223Y55313248D01*
X38136604Y55265629D01*
X38041366Y55218010D01*
X37660414Y55218010D01*
X38612795Y55646581D02*
X38660414Y55694200D01*
X38755652Y55741820D01*
X38993747Y55741820D01*
X39088985Y55694200D01*
X39136604Y55646581D01*
X39184223Y55551343D01*
X39184223Y55456105D01*
X39136604Y55313248D01*
X38565176Y54741820D01*
X39184223Y54741820D01*
X40041366Y55408486D02*
X40041366Y54741820D01*
X39803271Y55789439D02*
X39565176Y55075153D01*
X40184223Y55075153D01*
X46504380Y24598334D02*
X46028190Y24265000D01*
X46504380Y24026905D02*
X45504380Y24026905D01*
X45504380Y24407858D01*
X45552000Y24503096D01*
X45599619Y24550715D01*
X45694857Y24598334D01*
X45837714Y24598334D01*
X45932952Y24550715D01*
X45980571Y24503096D01*
X46028190Y24407858D01*
X46028190Y24026905D01*
X45837714Y25455477D02*
X46504380Y25455477D01*
X45456761Y25217381D02*
X46171047Y24979286D01*
X46171047Y25598334D01*
X46489880Y29424334D02*
X46013690Y29091000D01*
X46489880Y28852905D02*
X45489880Y28852905D01*
X45489880Y29233858D01*
X45537500Y29329096D01*
X45585119Y29376715D01*
X45680357Y29424334D01*
X45823214Y29424334D01*
X45918452Y29376715D01*
X45966071Y29329096D01*
X46013690Y29233858D01*
X46013690Y28852905D01*
X46489880Y30376715D02*
X46489880Y29805286D01*
X46489880Y30091000D02*
X45489880Y30091000D01*
X45632738Y29995762D01*
X45727976Y29900524D01*
X45775595Y29805286D01*
X46477180Y7910534D02*
X46000990Y7577200D01*
X46477180Y7339105D02*
X45477180Y7339105D01*
X45477180Y7720058D01*
X45524800Y7815296D01*
X45572419Y7862915D01*
X45667657Y7910534D01*
X45810514Y7910534D01*
X45905752Y7862915D01*
X45953371Y7815296D01*
X46000990Y7720058D01*
X46000990Y7339105D01*
X45572419Y8291486D02*
X45524800Y8339105D01*
X45477180Y8434343D01*
X45477180Y8672439D01*
X45524800Y8767677D01*
X45572419Y8815296D01*
X45667657Y8862915D01*
X45762895Y8862915D01*
X45905752Y8815296D01*
X46477180Y8243867D01*
X46477180Y8862915D01*
X53668633Y64355720D02*
X53335300Y64831910D01*
X53097204Y64355720D02*
X53097204Y65355720D01*
X53478157Y65355720D01*
X53573395Y65308100D01*
X53621014Y65260481D01*
X53668633Y65165243D01*
X53668633Y65022386D01*
X53621014Y64927148D01*
X53573395Y64879529D01*
X53478157Y64831910D01*
X53097204Y64831910D01*
X54001966Y65355720D02*
X54621014Y65355720D01*
X54287680Y64974767D01*
X54430538Y64974767D01*
X54525776Y64927148D01*
X54573395Y64879529D01*
X54621014Y64784291D01*
X54621014Y64546196D01*
X54573395Y64450958D01*
X54525776Y64403339D01*
X54430538Y64355720D01*
X54144823Y64355720D01*
X54049585Y64403339D01*
X54001966Y64450958D01*
X3175095Y60110620D02*
X3175095Y59301096D01*
X3222714Y59205858D01*
X3270333Y59158239D01*
X3365571Y59110620D01*
X3556047Y59110620D01*
X3651285Y59158239D01*
X3698904Y59205858D01*
X3746523Y59301096D01*
X3746523Y60110620D01*
X4746523Y59110620D02*
X4175095Y59110620D01*
X4460809Y59110620D02*
X4460809Y60110620D01*
X4365571Y59967762D01*
X4270333Y59872524D01*
X4175095Y59824905D01*
X1119142Y63739734D02*
X1166761Y63692115D01*
X1214380Y63549258D01*
X1214380Y63454020D01*
X1166761Y63311162D01*
X1071523Y63215924D01*
X976285Y63168305D01*
X785809Y63120686D01*
X642952Y63120686D01*
X452476Y63168305D01*
X357238Y63215924D01*
X262000Y63311162D01*
X214380Y63454020D01*
X214380Y63549258D01*
X262000Y63692115D01*
X309619Y63739734D01*
X1214380Y64692115D02*
X1214380Y64120686D01*
X1214380Y64406400D02*
X214380Y64406400D01*
X357238Y64311162D01*
X452476Y64215924D01*
X500095Y64120686D01*
X1119142Y65746334D02*
X1166761Y65698715D01*
X1214380Y65555858D01*
X1214380Y65460620D01*
X1166761Y65317762D01*
X1071523Y65222524D01*
X976285Y65174905D01*
X785809Y65127286D01*
X642952Y65127286D01*
X452476Y65174905D01*
X357238Y65222524D01*
X262000Y65317762D01*
X214380Y65460620D01*
X214380Y65555858D01*
X262000Y65698715D01*
X309619Y65746334D01*
X309619Y66127286D02*
X262000Y66174905D01*
X214380Y66270143D01*
X214380Y66508239D01*
X262000Y66603477D01*
X309619Y66651096D01*
X404857Y66698715D01*
X500095Y66698715D01*
X642952Y66651096D01*
X1214380Y66079667D01*
X1214380Y66698715D01*
X2132033Y50582558D02*
X2084414Y50534939D01*
X1941557Y50487320D01*
X1846319Y50487320D01*
X1703461Y50534939D01*
X1608223Y50630177D01*
X1560604Y50725415D01*
X1512985Y50915891D01*
X1512985Y51058748D01*
X1560604Y51249224D01*
X1608223Y51344462D01*
X1703461Y51439700D01*
X1846319Y51487320D01*
X1941557Y51487320D01*
X2084414Y51439700D01*
X2132033Y51392081D01*
X2465366Y51487320D02*
X3084414Y51487320D01*
X2751080Y51106367D01*
X2893938Y51106367D01*
X2989176Y51058748D01*
X3036795Y51011129D01*
X3084414Y50915891D01*
X3084414Y50677796D01*
X3036795Y50582558D01*
X2989176Y50534939D01*
X2893938Y50487320D01*
X2608223Y50487320D01*
X2512985Y50534939D01*
X2465366Y50582558D01*
X29741833Y52944758D02*
X29694214Y52897139D01*
X29551357Y52849520D01*
X29456119Y52849520D01*
X29313261Y52897139D01*
X29218023Y52992377D01*
X29170404Y53087615D01*
X29122785Y53278091D01*
X29122785Y53420948D01*
X29170404Y53611424D01*
X29218023Y53706662D01*
X29313261Y53801900D01*
X29456119Y53849520D01*
X29551357Y53849520D01*
X29694214Y53801900D01*
X29741833Y53754281D01*
X30598976Y53516186D02*
X30598976Y52849520D01*
X30360880Y53897139D02*
X30122785Y53182853D01*
X30741833Y53182853D01*
X20612047Y52517572D02*
X21373952Y52517572D01*
X20993000Y52136620D02*
X20993000Y52898524D01*
X61682333Y36447458D02*
X61634714Y36399839D01*
X61491857Y36352220D01*
X61396619Y36352220D01*
X61253761Y36399839D01*
X61158523Y36495077D01*
X61110904Y36590315D01*
X61063285Y36780791D01*
X61063285Y36923648D01*
X61110904Y37114124D01*
X61158523Y37209362D01*
X61253761Y37304600D01*
X61396619Y37352220D01*
X61491857Y37352220D01*
X61634714Y37304600D01*
X61682333Y37256981D01*
X62587095Y37352220D02*
X62110904Y37352220D01*
X62063285Y36876029D01*
X62110904Y36923648D01*
X62206142Y36971267D01*
X62444238Y36971267D01*
X62539476Y36923648D01*
X62587095Y36876029D01*
X62634714Y36780791D01*
X62634714Y36542696D01*
X62587095Y36447458D01*
X62539476Y36399839D01*
X62444238Y36352220D01*
X62206142Y36352220D01*
X62110904Y36399839D01*
X62063285Y36447458D01*
X61783933Y20331158D02*
X61736314Y20283539D01*
X61593457Y20235920D01*
X61498219Y20235920D01*
X61355361Y20283539D01*
X61260123Y20378777D01*
X61212504Y20474015D01*
X61164885Y20664491D01*
X61164885Y20807348D01*
X61212504Y20997824D01*
X61260123Y21093062D01*
X61355361Y21188300D01*
X61498219Y21235920D01*
X61593457Y21235920D01*
X61736314Y21188300D01*
X61783933Y21140681D01*
X62641076Y21235920D02*
X62450600Y21235920D01*
X62355361Y21188300D01*
X62307742Y21140681D01*
X62212504Y20997824D01*
X62164885Y20807348D01*
X62164885Y20426396D01*
X62212504Y20331158D01*
X62260123Y20283539D01*
X62355361Y20235920D01*
X62545838Y20235920D01*
X62641076Y20283539D01*
X62688695Y20331158D01*
X62736314Y20426396D01*
X62736314Y20664491D01*
X62688695Y20759729D01*
X62641076Y20807348D01*
X62545838Y20854967D01*
X62355361Y20854967D01*
X62260123Y20807348D01*
X62212504Y20759729D01*
X62164885Y20664491D01*
X22464733Y11263358D02*
X22417114Y11215739D01*
X22274257Y11168120D01*
X22179019Y11168120D01*
X22036161Y11215739D01*
X21940923Y11310977D01*
X21893304Y11406215D01*
X21845685Y11596691D01*
X21845685Y11739548D01*
X21893304Y11930024D01*
X21940923Y12025262D01*
X22036161Y12120500D01*
X22179019Y12168120D01*
X22274257Y12168120D01*
X22417114Y12120500D01*
X22464733Y12072881D01*
X22798066Y12168120D02*
X23464733Y12168120D01*
X23036161Y11168120D01*
X27873428Y11341048D02*
X27873428Y12102953D01*
X28254380Y11722000D02*
X27492476Y11722000D01*
X45591433Y32256458D02*
X45543814Y32208839D01*
X45400957Y32161220D01*
X45305719Y32161220D01*
X45162861Y32208839D01*
X45067623Y32304077D01*
X45020004Y32399315D01*
X44972385Y32589791D01*
X44972385Y32732648D01*
X45020004Y32923124D01*
X45067623Y33018362D01*
X45162861Y33113600D01*
X45305719Y33161220D01*
X45400957Y33161220D01*
X45543814Y33113600D01*
X45591433Y33065981D01*
X46162861Y32732648D02*
X46067623Y32780267D01*
X46020004Y32827886D01*
X45972385Y32923124D01*
X45972385Y32970743D01*
X46020004Y33065981D01*
X46067623Y33113600D01*
X46162861Y33161220D01*
X46353338Y33161220D01*
X46448576Y33113600D01*
X46496195Y33065981D01*
X46543814Y32970743D01*
X46543814Y32923124D01*
X46496195Y32827886D01*
X46448576Y32780267D01*
X46353338Y32732648D01*
X46162861Y32732648D01*
X46067623Y32685029D01*
X46020004Y32637410D01*
X45972385Y32542172D01*
X45972385Y32351696D01*
X46020004Y32256458D01*
X46067623Y32208839D01*
X46162861Y32161220D01*
X46353338Y32161220D01*
X46448576Y32208839D01*
X46496195Y32256458D01*
X46543814Y32351696D01*
X46543814Y32542172D01*
X46496195Y32637410D01*
X46448576Y32685029D01*
X46353338Y32732648D01*
X50987428Y32296048D02*
X50987428Y33057953D01*
X51368380Y32677000D02*
X50606476Y32677000D01*
X22858433Y32142158D02*
X22810814Y32094539D01*
X22667957Y32046920D01*
X22572719Y32046920D01*
X22429861Y32094539D01*
X22334623Y32189777D01*
X22287004Y32285015D01*
X22239385Y32475491D01*
X22239385Y32618348D01*
X22287004Y32808824D01*
X22334623Y32904062D01*
X22429861Y32999300D01*
X22572719Y33046920D01*
X22667957Y33046920D01*
X22810814Y32999300D01*
X22858433Y32951681D01*
X23334623Y32046920D02*
X23525100Y32046920D01*
X23620338Y32094539D01*
X23667957Y32142158D01*
X23763195Y32285015D01*
X23810814Y32475491D01*
X23810814Y32856443D01*
X23763195Y32951681D01*
X23715576Y32999300D01*
X23620338Y33046920D01*
X23429861Y33046920D01*
X23334623Y32999300D01*
X23287004Y32951681D01*
X23239385Y32856443D01*
X23239385Y32618348D01*
X23287004Y32523110D01*
X23334623Y32475491D01*
X23429861Y32427872D01*
X23620338Y32427872D01*
X23715576Y32475491D01*
X23763195Y32523110D01*
X23810814Y32618348D01*
X28381428Y32169048D02*
X28381428Y32930953D01*
X28762380Y32550000D02*
X28000476Y32550000D01*
X46381942Y10825243D02*
X46429561Y10777624D01*
X46477180Y10634767D01*
X46477180Y10539529D01*
X46429561Y10396672D01*
X46334323Y10301434D01*
X46239085Y10253815D01*
X46048609Y10206196D01*
X45905752Y10206196D01*
X45715276Y10253815D01*
X45620038Y10301434D01*
X45524800Y10396672D01*
X45477180Y10539529D01*
X45477180Y10634767D01*
X45524800Y10777624D01*
X45572419Y10825243D01*
X46477180Y11777624D02*
X46477180Y11206196D01*
X46477180Y11491910D02*
X45477180Y11491910D01*
X45620038Y11396672D01*
X45715276Y11301434D01*
X45762895Y11206196D01*
X45477180Y12396672D02*
X45477180Y12491910D01*
X45524800Y12587148D01*
X45572419Y12634767D01*
X45667657Y12682386D01*
X45858133Y12730005D01*
X46096228Y12730005D01*
X46286704Y12682386D01*
X46381942Y12634767D01*
X46429561Y12587148D01*
X46477180Y12491910D01*
X46477180Y12396672D01*
X46429561Y12301434D01*
X46381942Y12253815D01*
X46286704Y12206196D01*
X46096228Y12158577D01*
X45858133Y12158577D01*
X45667657Y12206196D01*
X45572419Y12253815D01*
X45524800Y12301434D01*
X45477180Y12396672D01*
X50987428Y11722048D02*
X50987428Y12483953D01*
X51368380Y12103000D02*
X50606476Y12103000D01*
X22172704Y47363120D02*
X22172704Y48363120D01*
X22410800Y48363120D01*
X22553657Y48315500D01*
X22648895Y48220262D01*
X22696514Y48125024D01*
X22744133Y47934548D01*
X22744133Y47791691D01*
X22696514Y47601215D01*
X22648895Y47505977D01*
X22553657Y47410739D01*
X22410800Y47363120D01*
X22172704Y47363120D01*
X23696514Y47363120D02*
X23125085Y47363120D01*
X23410800Y47363120D02*
X23410800Y48363120D01*
X23315561Y48220262D01*
X23220323Y48125024D01*
X23125085Y48077405D01*
X14755904Y60928620D02*
X14755904Y61928620D01*
X14994000Y61928620D01*
X15136857Y61881000D01*
X15232095Y61785762D01*
X15279714Y61690524D01*
X15327333Y61500048D01*
X15327333Y61357191D01*
X15279714Y61166715D01*
X15232095Y61071477D01*
X15136857Y60976239D01*
X14994000Y60928620D01*
X14755904Y60928620D01*
X15708285Y61833381D02*
X15755904Y61881000D01*
X15851142Y61928620D01*
X16089238Y61928620D01*
X16184476Y61881000D01*
X16232095Y61833381D01*
X16279714Y61738143D01*
X16279714Y61642905D01*
X16232095Y61500048D01*
X15660666Y60928620D01*
X16279714Y60928620D01*
X51573204Y59618620D02*
X51573204Y60618620D01*
X51811300Y60618620D01*
X51954157Y60571000D01*
X52049395Y60475762D01*
X52097014Y60380524D01*
X52144633Y60190048D01*
X52144633Y60047191D01*
X52097014Y59856715D01*
X52049395Y59761477D01*
X51954157Y59666239D01*
X51811300Y59618620D01*
X51573204Y59618620D01*
X53001776Y60285286D02*
X53001776Y59618620D01*
X52763680Y60666239D02*
X52525585Y59951953D01*
X53144633Y59951953D01*
X12187180Y72498224D02*
X12187180Y71926796D01*
X12187180Y72212510D02*
X11187180Y72212510D01*
X11330038Y72117272D01*
X11425276Y72022034D01*
X11472895Y71926796D01*
X11282419Y72879177D02*
X11234800Y72926796D01*
X11187180Y73022034D01*
X11187180Y73260129D01*
X11234800Y73355367D01*
X11282419Y73402986D01*
X11377657Y73450605D01*
X11472895Y73450605D01*
X11615752Y73402986D01*
X12187180Y72831558D01*
X12187180Y73450605D01*
X11806228Y73879177D02*
X11806228Y74641081D01*
X11282419Y75069653D02*
X11234800Y75117272D01*
X11187180Y75212510D01*
X11187180Y75450605D01*
X11234800Y75545843D01*
X11282419Y75593462D01*
X11377657Y75641081D01*
X11472895Y75641081D01*
X11615752Y75593462D01*
X12187180Y75022034D01*
X12187180Y75641081D01*
X11520514Y76498224D02*
X12187180Y76498224D01*
X11139561Y76260129D02*
X11853847Y76022034D01*
X11853847Y76641081D01*
X11187180Y76879177D02*
X12187180Y77212510D01*
X11187180Y77545843D01*
X8523242Y46502724D02*
X8570861Y46455105D01*
X8618480Y46312248D01*
X8618480Y46217010D01*
X8570861Y46074153D01*
X8475623Y45978915D01*
X8380385Y45931296D01*
X8189909Y45883677D01*
X8047052Y45883677D01*
X7856576Y45931296D01*
X7761338Y45978915D01*
X7666100Y46074153D01*
X7618480Y46217010D01*
X7618480Y46312248D01*
X7666100Y46455105D01*
X7713719Y46502724D01*
X8618480Y46931296D02*
X7618480Y46931296D01*
X8618480Y47502724D01*
X7618480Y47502724D01*
X8618480Y48502724D02*
X8618480Y47931296D01*
X8618480Y48217010D02*
X7618480Y48217010D01*
X7761338Y48121772D01*
X7856576Y48026534D01*
X7904195Y47931296D01*
X62168042Y46451924D02*
X62215661Y46404305D01*
X62263280Y46261448D01*
X62263280Y46166210D01*
X62215661Y46023353D01*
X62120423Y45928115D01*
X62025185Y45880496D01*
X61834709Y45832877D01*
X61691852Y45832877D01*
X61501376Y45880496D01*
X61406138Y45928115D01*
X61310900Y46023353D01*
X61263280Y46166210D01*
X61263280Y46261448D01*
X61310900Y46404305D01*
X61358519Y46451924D01*
X62263280Y46880496D02*
X61263280Y46880496D01*
X62263280Y47451924D01*
X61263280Y47451924D01*
X61358519Y47880496D02*
X61310900Y47928115D01*
X61263280Y48023353D01*
X61263280Y48261448D01*
X61310900Y48356686D01*
X61358519Y48404305D01*
X61453757Y48451924D01*
X61548995Y48451924D01*
X61691852Y48404305D01*
X62263280Y47832877D01*
X62263280Y48451924D01*
X18730980Y73180867D02*
X19730980Y73514200D01*
X18730980Y73847534D01*
X19635742Y74752296D02*
X19683361Y74704677D01*
X19730980Y74561820D01*
X19730980Y74466581D01*
X19683361Y74323724D01*
X19588123Y74228486D01*
X19492885Y74180867D01*
X19302409Y74133248D01*
X19159552Y74133248D01*
X18969076Y74180867D01*
X18873838Y74228486D01*
X18778600Y74323724D01*
X18730980Y74466581D01*
X18730980Y74561820D01*
X18778600Y74704677D01*
X18826219Y74752296D01*
X19635742Y75752296D02*
X19683361Y75704677D01*
X19730980Y75561820D01*
X19730980Y75466581D01*
X19683361Y75323724D01*
X19588123Y75228486D01*
X19492885Y75180867D01*
X19302409Y75133248D01*
X19159552Y75133248D01*
X18969076Y75180867D01*
X18873838Y75228486D01*
X18778600Y75323724D01*
X18730980Y75466581D01*
X18730980Y75561820D01*
X18778600Y75704677D01*
X18826219Y75752296D01*
X19350028Y76942772D02*
X19350028Y77704677D01*
X49896804Y19854920D02*
X49896804Y20854920D01*
X50277757Y20854920D01*
X50372995Y20807300D01*
X50420614Y20759681D01*
X50468233Y20664443D01*
X50468233Y20521586D01*
X50420614Y20426348D01*
X50372995Y20378729D01*
X50277757Y20331110D01*
X49896804Y20331110D01*
X50801566Y20854920D02*
X51420614Y20854920D01*
X51087280Y20473967D01*
X51230138Y20473967D01*
X51325376Y20426348D01*
X51372995Y20378729D01*
X51420614Y20283491D01*
X51420614Y20045396D01*
X51372995Y19950158D01*
X51325376Y19902539D01*
X51230138Y19854920D01*
X50944423Y19854920D01*
X50849185Y19902539D01*
X50801566Y19950158D01*
X40471766Y65946329D02*
X40138433Y65946329D01*
X40138433Y65422520D02*
X40138433Y66422520D01*
X40614623Y66422520D01*
X40900338Y66422520D02*
X41519385Y66422520D01*
X41186052Y66041567D01*
X41328909Y66041567D01*
X41424147Y65993948D01*
X41471766Y65946329D01*
X41519385Y65851091D01*
X41519385Y65612996D01*
X41471766Y65517758D01*
X41424147Y65470139D01*
X41328909Y65422520D01*
X41043195Y65422520D01*
X40947957Y65470139D01*
X40900338Y65517758D01*
X33393142Y54741820D02*
X33059809Y55218010D01*
X32821714Y54741820D02*
X32821714Y55741820D01*
X33202666Y55741820D01*
X33297904Y55694200D01*
X33345523Y55646581D01*
X33393142Y55551343D01*
X33393142Y55408486D01*
X33345523Y55313248D01*
X33297904Y55265629D01*
X33202666Y55218010D01*
X32821714Y55218010D01*
X33774095Y55646581D02*
X33821714Y55694200D01*
X33916952Y55741820D01*
X34155047Y55741820D01*
X34250285Y55694200D01*
X34297904Y55646581D01*
X34345523Y55551343D01*
X34345523Y55456105D01*
X34297904Y55313248D01*
X33726476Y54741820D01*
X34345523Y54741820D01*
X35250285Y55741820D02*
X34774095Y55741820D01*
X34726476Y55265629D01*
X34774095Y55313248D01*
X34869333Y55360867D01*
X35107428Y55360867D01*
X35202666Y55313248D01*
X35250285Y55265629D01*
X35297904Y55170391D01*
X35297904Y54932296D01*
X35250285Y54837058D01*
X35202666Y54789439D01*
X35107428Y54741820D01*
X34869333Y54741820D01*
X34774095Y54789439D01*
X34726476Y54837058D01*
X12720580Y67308505D02*
X11720580Y67308505D01*
X11720580Y67546600D01*
X11768200Y67689458D01*
X11863438Y67784696D01*
X11958676Y67832315D01*
X12149152Y67879934D01*
X12292009Y67879934D01*
X12482485Y67832315D01*
X12577723Y67784696D01*
X12672961Y67689458D01*
X12720580Y67546600D01*
X12720580Y67308505D01*
X11720580Y68213267D02*
X11720580Y68832315D01*
X12101533Y68498981D01*
X12101533Y68641839D01*
X12149152Y68737077D01*
X12196771Y68784696D01*
X12292009Y68832315D01*
X12530104Y68832315D01*
X12625342Y68784696D01*
X12672961Y68737077D01*
X12720580Y68641839D01*
X12720580Y68356124D01*
X12672961Y68260886D01*
X12625342Y68213267D01*
X41790880Y69442105D02*
X40790880Y69442105D01*
X40790880Y69680200D01*
X40838500Y69823058D01*
X40933738Y69918296D01*
X41028976Y69965915D01*
X41219452Y70013534D01*
X41362309Y70013534D01*
X41552785Y69965915D01*
X41648023Y69918296D01*
X41743261Y69823058D01*
X41790880Y69680200D01*
X41790880Y69442105D01*
X40790880Y70918296D02*
X40790880Y70442105D01*
X41267071Y70394486D01*
X41219452Y70442105D01*
X41171833Y70537343D01*
X41171833Y70775439D01*
X41219452Y70870677D01*
X41267071Y70918296D01*
X41362309Y70965915D01*
X41600404Y70965915D01*
X41695642Y70918296D01*
X41743261Y70870677D01*
X41790880Y70775439D01*
X41790880Y70537343D01*
X41743261Y70442105D01*
X41695642Y70394486D01*
X40892504Y59593220D02*
X40892504Y60593220D01*
X41130600Y60593220D01*
X41273457Y60545600D01*
X41368695Y60450362D01*
X41416314Y60355124D01*
X41463933Y60164648D01*
X41463933Y60021791D01*
X41416314Y59831315D01*
X41368695Y59736077D01*
X41273457Y59640839D01*
X41130600Y59593220D01*
X40892504Y59593220D01*
X42321076Y60593220D02*
X42130600Y60593220D01*
X42035361Y60545600D01*
X41987742Y60497981D01*
X41892504Y60355124D01*
X41844885Y60164648D01*
X41844885Y59783696D01*
X41892504Y59688458D01*
X41940123Y59640839D01*
X42035361Y59593220D01*
X42225838Y59593220D01*
X42321076Y59640839D01*
X42368695Y59688458D01*
X42416314Y59783696D01*
X42416314Y60021791D01*
X42368695Y60117029D01*
X42321076Y60164648D01*
X42225838Y60212267D01*
X42035361Y60212267D01*
X41940123Y60164648D01*
X41892504Y60117029D01*
X41844885Y60021791D01*
X31113504Y69537320D02*
X31113504Y70537320D01*
X31351600Y70537320D01*
X31494457Y70489700D01*
X31589695Y70394462D01*
X31637314Y70299224D01*
X31684933Y70108748D01*
X31684933Y69965891D01*
X31637314Y69775415D01*
X31589695Y69680177D01*
X31494457Y69584939D01*
X31351600Y69537320D01*
X31113504Y69537320D01*
X32018266Y70537320D02*
X32684933Y70537320D01*
X32256361Y69537320D01*
X30161004Y62298320D02*
X30161004Y63298320D01*
X30399100Y63298320D01*
X30541957Y63250700D01*
X30637195Y63155462D01*
X30684814Y63060224D01*
X30732433Y62869748D01*
X30732433Y62726891D01*
X30684814Y62536415D01*
X30637195Y62441177D01*
X30541957Y62345939D01*
X30399100Y62298320D01*
X30161004Y62298320D01*
X31303861Y62869748D02*
X31208623Y62917367D01*
X31161004Y62964986D01*
X31113385Y63060224D01*
X31113385Y63107843D01*
X31161004Y63203081D01*
X31208623Y63250700D01*
X31303861Y63298320D01*
X31494338Y63298320D01*
X31589576Y63250700D01*
X31637195Y63203081D01*
X31684814Y63107843D01*
X31684814Y63060224D01*
X31637195Y62964986D01*
X31589576Y62917367D01*
X31494338Y62869748D01*
X31303861Y62869748D01*
X31208623Y62822129D01*
X31161004Y62774510D01*
X31113385Y62679272D01*
X31113385Y62488796D01*
X31161004Y62393558D01*
X31208623Y62345939D01*
X31303861Y62298320D01*
X31494338Y62298320D01*
X31589576Y62345939D01*
X31637195Y62393558D01*
X31684814Y62488796D01*
X31684814Y62679272D01*
X31637195Y62774510D01*
X31589576Y62822129D01*
X31494338Y62869748D01*
X50468280Y43570567D02*
X51182566Y43570567D01*
X51325423Y43522948D01*
X51420661Y43427710D01*
X51468280Y43284853D01*
X51468280Y43189615D01*
X50801614Y44475329D02*
X51468280Y44475329D01*
X50420661Y44237234D02*
X51134947Y43999139D01*
X51134947Y44618186D01*
X18692880Y68456372D02*
X18692880Y67980181D01*
X19169071Y67932562D01*
X19121452Y67980181D01*
X19073833Y68075420D01*
X19073833Y68313515D01*
X19121452Y68408753D01*
X19169071Y68456372D01*
X19264309Y68503991D01*
X19502404Y68503991D01*
X19597642Y68456372D01*
X19645261Y68408753D01*
X19692880Y68313515D01*
X19692880Y68075420D01*
X19645261Y67980181D01*
X19597642Y67932562D01*
X18692880Y68789705D02*
X19692880Y69123039D01*
X18692880Y69456372D01*
X19311928Y71313515D02*
X19311928Y72075420D01*
X26922504Y19753320D02*
X26922504Y20753320D01*
X27303457Y20753320D01*
X27398695Y20705700D01*
X27446314Y20658081D01*
X27493933Y20562843D01*
X27493933Y20419986D01*
X27446314Y20324748D01*
X27398695Y20277129D01*
X27303457Y20229510D01*
X26922504Y20229510D01*
X27827266Y20753320D02*
X28493933Y20753320D01*
X28065361Y19753320D01*
X26986004Y40428920D02*
X26986004Y41428920D01*
X27366957Y41428920D01*
X27462195Y41381300D01*
X27509814Y41333681D01*
X27557433Y41238443D01*
X27557433Y41095586D01*
X27509814Y41000348D01*
X27462195Y40952729D01*
X27366957Y40905110D01*
X26986004Y40905110D01*
X28128861Y41000348D02*
X28033623Y41047967D01*
X27986004Y41095586D01*
X27938385Y41190824D01*
X27938385Y41238443D01*
X27986004Y41333681D01*
X28033623Y41381300D01*
X28128861Y41428920D01*
X28319338Y41428920D01*
X28414576Y41381300D01*
X28462195Y41333681D01*
X28509814Y41238443D01*
X28509814Y41190824D01*
X28462195Y41095586D01*
X28414576Y41047967D01*
X28319338Y41000348D01*
X28128861Y41000348D01*
X28033623Y40952729D01*
X27986004Y40905110D01*
X27938385Y40809872D01*
X27938385Y40619396D01*
X27986004Y40524158D01*
X28033623Y40476539D01*
X28128861Y40428920D01*
X28319338Y40428920D01*
X28414576Y40476539D01*
X28462195Y40524158D01*
X28509814Y40619396D01*
X28509814Y40809872D01*
X28462195Y40905110D01*
X28414576Y40952729D01*
X28319338Y41000348D01*
X51503271Y74315748D02*
X51550890Y74458605D01*
X51598509Y74506224D01*
X51693747Y74553843D01*
X51836604Y74553843D01*
X51931842Y74506224D01*
X51979461Y74458605D01*
X52027080Y74363367D01*
X52027080Y73982415D01*
X51027080Y73982415D01*
X51027080Y74315748D01*
X51074700Y74410986D01*
X51122319Y74458605D01*
X51217557Y74506224D01*
X51312795Y74506224D01*
X51408033Y74458605D01*
X51455652Y74410986D01*
X51503271Y74315748D01*
X51503271Y73982415D01*
X51503271Y74982415D02*
X51503271Y75315748D01*
X52027080Y75458605D02*
X52027080Y74982415D01*
X51027080Y74982415D01*
X51027080Y75458605D01*
X52027080Y75887177D02*
X51027080Y75887177D01*
X51027080Y76125272D01*
X51074700Y76268129D01*
X51169938Y76363367D01*
X51265176Y76410986D01*
X51455652Y76458605D01*
X51598509Y76458605D01*
X51788985Y76410986D01*
X51884223Y76363367D01*
X51979461Y76268129D01*
X52027080Y76125272D01*
X52027080Y75887177D01*
X40720971Y74125272D02*
X40720971Y74458605D01*
X41244780Y74601462D02*
X41244780Y74125272D01*
X40244780Y74125272D01*
X40244780Y74601462D01*
X40244780Y74934796D02*
X41244780Y75601462D01*
X40244780Y75601462D02*
X41244780Y74934796D01*
X40244780Y75839558D02*
X40244780Y76410986D01*
X41244780Y76125272D02*
X40244780Y76125272D01*
X29710071Y74437977D02*
X29710071Y74104643D01*
X30233880Y74104643D02*
X29233880Y74104643D01*
X29233880Y74580834D01*
X29948166Y74914167D02*
X29948166Y75390358D01*
X30233880Y74818929D02*
X29233880Y75152262D01*
X30233880Y75485596D01*
X30233880Y75818929D02*
X29233880Y75818929D01*
X30233880Y76390358D01*
X29233880Y76390358D01*
X31313380Y59402743D02*
X30837190Y59069410D01*
X31313380Y58831315D02*
X30313380Y58831315D01*
X30313380Y59212267D01*
X30361000Y59307505D01*
X30408619Y59355124D01*
X30503857Y59402743D01*
X30646714Y59402743D01*
X30741952Y59355124D01*
X30789571Y59307505D01*
X30837190Y59212267D01*
X30837190Y58831315D01*
X30408619Y59783696D02*
X30361000Y59831315D01*
X30313380Y59926553D01*
X30313380Y60164648D01*
X30361000Y60259886D01*
X30408619Y60307505D01*
X30503857Y60355124D01*
X30599095Y60355124D01*
X30741952Y60307505D01*
X31313380Y59736077D01*
X31313380Y60355124D01*
X30313380Y61212267D02*
X30313380Y61021791D01*
X30361000Y60926553D01*
X30408619Y60878934D01*
X30551476Y60783696D01*
X30741952Y60736077D01*
X31122904Y60736077D01*
X31218142Y60783696D01*
X31265761Y60831315D01*
X31313380Y60926553D01*
X31313380Y61117029D01*
X31265761Y61212267D01*
X31218142Y61259886D01*
X31122904Y61307505D01*
X30884809Y61307505D01*
X30789571Y61259886D01*
X30741952Y61212267D01*
X30694333Y61117029D01*
X30694333Y60926553D01*
X30741952Y60831315D01*
X30789571Y60783696D01*
X30884809Y60736077D01*
X23449042Y57421520D02*
X23115709Y57897710D01*
X22877614Y57421520D02*
X22877614Y58421520D01*
X23258566Y58421520D01*
X23353804Y58373900D01*
X23401423Y58326281D01*
X23449042Y58231043D01*
X23449042Y58088186D01*
X23401423Y57992948D01*
X23353804Y57945329D01*
X23258566Y57897710D01*
X22877614Y57897710D01*
X23829995Y58326281D02*
X23877614Y58373900D01*
X23972852Y58421520D01*
X24210947Y58421520D01*
X24306185Y58373900D01*
X24353804Y58326281D01*
X24401423Y58231043D01*
X24401423Y58135805D01*
X24353804Y57992948D01*
X23782376Y57421520D01*
X24401423Y57421520D01*
X24734757Y58421520D02*
X25401423Y58421520D01*
X24972852Y57421520D01*
M02*
